{
.appVersion = "3436";
.formatVersion = 3;
DisplayStrings = (
"ooooooooo


HHOHHOOHOO

Honhonhon



Businesses increasingly are using algorithms to determine prices, and to rapidly adjust those prices throughout the day. This new technology is called dynamic pricing, and it’s poised to change the way businesses set and advertise their prices. Think of the ever-changing electronic signs at gas stations, but for everything.

Businesses can use dynamic pricing to deliver better deals to customers. But they also are using the new technology to jack up prices. As the video says, the humble price tag “was like a little handshake. It represented an agreement, one price for every customer. But now that agreement is breaking.” And we are all going to pay.
zzzzzzzzzzzzzzz

zozozozozo",
"Alphabet and Numbers with spacing characters:

HHOHHOOHOO

HHAHHOOAOO
HHBHHOOBOO
HHCHHOOCOO
HHDHHOODOO
HHEHHOOEOO
HHFHHOOFOO
HHGHHOOGOO
HHHHHOOHOO
HHIHHOOIOO
HHJHHOOJOO
HHKHHOOKOO
HHLHHOOLOO
HHMHHOOMOO
HHNHHOONOO
HHOHHOOOOO
HHPHHOOPOO
HHQHHOOQOO
HHRHHOOROO
HHSHHOOSOO
HHTHHOOTOO
HHUHHOOUOO
HHVHHOOVOO
HHWHHOOWOO
HHXHHOOXOO
HHYHHOOYOO
HHZHHOOZOO

nnannooaoo
nnbnnooboo
nncnnoocoo
nndnnoodoo
nnennooeoo
nnfnnoofoo
nngnnoogoo
nnnnhoohoo
nninnooioo
nnjnnoojoo
nnknnookoo
nnlnnooloo
nnmnnoomoo
nnnnnoonoo
nnonnooooo
nnpnnoopoo
nnqnnooqoo
nnrnnooroo
nnsnnoosoo
nntnnootoo
nnunnoouoo
nnvnnoovoo
nnwnnoowoo
nnxnnooxoo
nnynnooyoo
nnznnoozoo


0000010010111
0001010111111
0002010212111
0003010313111
0004010414111
0005010515111
0006010616111
0007010717111
0008010818111
0009010919111


"
);
axes = (
{
name = Weight;
tag = wght;
}
);
date = "2025-10-19 19:33:20 +0000";
familyName = Juncture;
fontMaster = (
{
axesValues = (
100
);
iconName = Light_SemiExtended;
id = m004;
metricValues = (
{
pos = 1071;
},
{
},
{
over = 24;
pos = 1024;
},
{
over = 24;
pos = 733;
},
{
over = -24;
},
{
over = -24;
pos = -309;
},
{
}
);
name = ExtraLight;
stemValues = (
42,
36
);
userData = {
GSCornerRadius = 180;

glyphs = (
{
glyphname = A;
lastChange = "2025-11-28 10:14:21 +0000";
layers = (
{
anchors = (
{
name = bottom;
pos = (406,0);
},
{
name = ogonek;
pos = (751,8);
},
{
name = top;
pos = (406,1024);
}
);
layerId = m004;
shapes = (
{
closed = 1;
nodes = (
(661,345,l),
(152,345,l),
(152,287,l),
(661,287,l)
);
},
{
closed = 1;
nodes = (
(82,0,l),
(412,996,l),
(400,994,l),
(730,0,l),
(796,0,l),
(454,1024,l),
(358,1024,l),
(16,0,l)
);
}
);
width = 812;
},
{
anchors = (
{
name = bottom;
pos = (471,0);
},
{
name = ogonek;
pos = (839,8);
},
{
name = top;
pos = (471,1024);
}
);
layerId = m005;
shapes = (
{
closed = 1;
nodes = (
(679,372,l),
(239,372,l),
(242,194,l),
(682,194,l)
);
},
{
closed = 1;
nodes = (
(233,0,l),
(526,884,l),
(406,884,l),
(698,0,l),
(920,0,l),
(564,1024,l),
(378,1024,l),
(22,0,l)
);
}
);
width = 942;
},
{
anchors = (
{
name = bottom;
pos = (442,0);
},
{
name = ogonek;
pos = (814,8);
},
{
name = top;
pos = (442,1024);
}
);
layerId = "1B8EDE0E-D46F-48F9-B9C6-2CD34FEA95FD";
shapes = (
{
closed = 1;
nodes = (
(665,349,l),
(216,349,l),
(217,240,l),
(666,240,l)
);
},
{
closed = 1;
nodes = (
(159,0,l),
(461,898,l),
(417,898,l),
(718,0,l),
(850,0,l),
(500,1024,l),
(375,1024,l),
(25,0,l)
);
}
);
width = 875;
}
);
metricRight = "=|";
unicode = 65;
},
{
glyphname = AE;
lastChange = "2025-11-27 15:25:08 +0000";
layers = (
{
anchors = (
{
name = bottom;
pos = (563,0);
},
{
name = top;
pos = (563,1126);
}
);
layerId = m004;
shapes = (
{
closed = 1;
nodes = (
(141,0,l),
(298,334,l),
(627,334,l),
(627,0,l),
(1115,0,l),
(1115,56,l),
(692,56,l),
(692,505,l),
(1057,505,l),
(1057,561,l),
(692,561,l),
(692,968,l),
(1115,968,l),
(1115,1024,l),
(552,1024,l),
(68,0,l)
);
},
{
closed = 1;
nodes = (
(610,995,l),
(567,968,l),
(627,968,l),
(627,397,l),
(328,397,l)
);
}
);
width = 1246;
},
{
anchors = (
{
name = bottom;
pos = (614,0);
},
{
name = top;
pos = (614,1126);
}
);
layerId = "1B8EDE0E-D46F-48F9-B9C6-2CD34FEA95FD";
shapes = (
{
closed = 1;
nodes = (
(180,0,l),
(322,303,l),
(630,303,l),
(630,0,l),
(1171,0,l),
(1171,118,l),
(770,118,l),
(770,473,l),
(1100,473,l),
(1100,593,l),
(770,593,l),
(770,906,l),
(1171,906,l),
(1171,1024,l),
(520,1024,l),
(25,0,l)
);
},
{
closed = 1;
nodes = (
(632,965,l),
(542,908,l),
(630,908,l),
(630,419,l),
(376,419,l)
);
}
);
width = 1242;
},
{
anchors = (
{
name = bottom;
pos = (735,0);
},
{
name = top;
pos = (735,1126);
}
);
layerId = m005;
shapes = (
{
closed = 1;
nodes = (
(256,0,l),
(363,243,l),
(656,243,l),
(656,0,l),
(1260,0,l),
(1260,189,l),
(867,189,l),
(867,436,l),
(1185,436,l),
(1185,628,l),
(867,628,l),
(867,836,l),
(1260,836,l),
(1260,1024,l),
(490,1024,l),
(24,0,l)
);
},
{
closed = 1;
nodes = (
(662,922,l),
(530,836,l),
(656,836,l),
(656,434,l),
(448,434,l)
);
}
);
width = 1300;
}
);
metricLeft = "=A";
metricRight = "=E";
unicode = 198;
},
{
glyphname = B;
lastChange = "2025-11-28 10:14:33 +0000";
layers = (
{
anchors = (
{
name = bottom;
pos = (418,0);
},
{
name = center;
pos = (217,307);
},
{
name = top;
pos = (418,1024);
}
);
layerId = m004;
shapes = (
{
closed = 1;
nodes = (
(452,0,l),
(452,58,l),
(146,58,l),
(146,505,l),
(451,505,l),
(451,563,l),
(146,563,l),
(146,966,l),
(413,966,l),
(413,1024,l),
(80,1024,l),
(80,0,l)
);
},
{
closed = 1;
nodes = (
(600,510,o),
(695,624,o),
(695,766,c),
(695,892,o),
(619,1024,o),
(413,1024,c),
(413,966,l),
(562,966,o),
(630,880,o),
(630,765,cs),
(630,650,o),
(558,563,o),
(429,563,c),
(429,510,l)
);
},
{
closed = 1;
nodes = (
(658,0,o),
(742,110,o),
(742,279,c),
(742,463,o),
(614,560,o),
(451,560,c),
(451,505,l),
(624,505,o),
(677,407,o),
(677,278,cs),
(677,149,o),
(624,58,o),
(451,58,c),
(451,0,l)
);
}
);
width = 854;
},
{
anchors = (
{
name = bottom;
pos = (447,0);
},
{
name = center;
pos = (226,307);
},
{
name = top;
pos = (447,1024);
}
);
layerId = m005;
shapes = (
{
closed = 1;
nodes = (
(499,0,l),
(499,180,l),
(296,180,l),
(296,451,l),
(548,451,l),
(548,611,l),
(296,611,l),
(296,844,l),
(485,844,l),
(485,1024,l),
(85,1024,l),
(85,0,l)
);
},
{
closed = 1;
nodes = (
(683,463,o),
(809,551,o),
(809,733,cs),
(809,885,o),
(705,1024,o),
(485,1024,c),
(485,844,l),
(570,844,o),
(598,792,o),
(598,728,cs),
(598,668,o),
(570,611,o),
(485,611,c),
(485,463,l)
);
},
{
closed = 1;
nodes = (
(732,0,o),
(855,102,o),
(855,307,cs),
(855,537,o),
(625,599,o),
(483,599,c),
(483,451,l),
(595,451,o),
(644,394,o),
(644,315,cs),
(644,236,o),
(595,180,o),
(499,180,c),
(499,0,l)
);
}
);
width = 915;
},
{
anchors = (
{
name = bottom;
pos = (420,0);
},
{
name = center;
pos = (207,307);
},
{
name = top;
pos = (420,1024);
}
);
layerId = "1B8EDE0E-D46F-48F9-B9C6-2CD34FEA95FD";
shapes = (
{
closed = 1;
nodes = (
(492,0,l),
(492,110,l),
(240,110,l),
(240,463,l),
(502,463,l),
(502,573,l),
(240,573,l),
(240,913,l),
(488,913,l),
(488,1024,l),
(105,1024,l),
(105,0,l)
);
},
{
closed = 1;
nodes = (
(703,487,o),
(778,583,o),
(778,742,cs),
(778,900,o),
(685,1024,o),
(488,1024,c),
(488,913,l),
(611,913,o),
(651,816,o),
(651,746,cs),
(651,675,o),
(607,573,o),
(488,573,c),
(488,487,l)
);
},
{
closed = 1;
nodes = (
(710,0,o),
(820,90,o),
(820,284,cs),
(820,482,o),
(648,569,o),
(484,569,c),
(484,463,l),
(651,463,o),
(694,380,o),
(694,285,cs),
(694,191,o),
(644,110,o),
(492,110,c),
(492,0,l)
);
}
);
width = 883;
}
);
metricLeft = "=H";
unicode = 66;
},
{
glyphname = C;
lastChange = "2025-11-28 10:14:39 +0000";
layers = (
{
anchors = (
{
name = bottom;
pos = (420,0);
},
{
name = top;
pos = (420,1024);
}
);
background = {
shapes = (
{
closed = 1;
nodes = (
(297,-9,o),
(405,34,o),
(405,169,c),
(372,169,l),
(372,61,o),
(291,17,o),
(221,18,cs),
(151,19,o),
(70,61,o),
(70,169,c),
(70,335,l),
(70,451,o),
(151,493,o),
(221,494,cs),
(291,495,o),
(372,451,o),
(372,335,c),
(405,335,l),
(405,478,o),
(297,521,o),
(221,521,cs),
(145,521,o),
(37,478,o),
(37,335,c),
(37,169,l),
(37,34,o),
(145,-9,o),
(221,-9,cs)
);
}
);
};
layerId = m004;
shapes = (
{
closed = 1;
nodes = (
(577,-19,o),
(776,55,o),
(796,298,c),
(732,298,l),
(714,109,o),
(565,33,o),
(429,35,cs),
(289,36,o),
(127,121,o),
(127,339,c),
(127,670,l),
(127,903,o),
(289,988,o),
(429,989,cs),
(569,991,o),
(709,911,o),
(732,709,c),
(798,709,l),
(776,964,o),
(582,1043,o),
(429,1043,cs),
(278,1043,o),
(60,956,o),
(60,670,c),
(60,339,l),
(60,68,o),
(278,-19,o),
(429,-19,cs)
);
}
);
width = 904;
},
{
anchors = (
{
name = bottom;
pos = (473,0);
},
{
name = top;
pos = (473,1024);
}
);
background = {
shapes = (
{
closed = 1;
nodes = (
(389,209,l),
(389,83,o),
(323,59,o),
(266,60,cs),
(208,61,o),
(143,83,o),
(143,209,cs),
(143,303,ls),
(143,429,o),
(208,451,o),
(266,452,cs),
(323,453,o),
(389,429,o),
(389,303,c),
(467,303,l),
(467,478,o),
(352,521,o),
(266,521,cs),
(180,521,o),
(64,478,o),
(64,303,cs),
(64,209,ls),
(64,34,o),
(180,-9,o),
(266,-9,cs),
(352,-9,o),
(467,34,o),
(467,209,c)
);
}
);
};
layerId = m005;
shapes = (
{
closed = 1;
nodes = (
(674,-19,o),
(887,88,o),
(898,354,c),
(687,354,l),
(678,205,o),
(591,159,o),
(487,161,cs),
(378,162,o),
(271,200,o),
(271,436,cs),
(271,588,ls),
(271,824,o),
(378,862,o),
(487,863,cs),
(589,865,o),
(670,816,o),
(690,670,c),
(900,670,l),
(881,936,o),
(667,1043,o),
(487,1043,cs),
(307,1043,o),
(60,952,o),
(60,588,cs),
(60,436,ls),
(60,72,o),
(307,-19,o),
(487,-19,cs)
);
}
);
width = 955;
},
{
anchors = (
{
name = bottom;
pos = (482,0);
},
{
name = top;
pos = (482,1024);
}
);
layerId = "1B8EDE0E-D46F-48F9-B9C6-2CD34FEA95FD";
shapes = (
{
closed = 1;
nodes = (
(659,-30,o),
(852,65,o),
(871,301,c),
(733,301,l),
(715,139,o),
(605,85,o),
(485,85,cs),
(320,85,o),
(230,191,o),
(230,388,c),
(230,633,l),
(230,832,o),
(319,939,o),
(485,939,cs),
(607,939,o),
(709,882,o),
(734,718,c),
(873,718,l),
(848,963,o),
(652,1054,o),
(485,1054,cs),
(318,1054,o),
(90,967,o),
(90,633,c),
(90,388,l),
(90,57,o),
(318,-30,o),
(485,-30,cs)
);
}
);
width = 947;
}
);
metricLeft = O;
unicode = 67;
},
{
glyphname = D;
lastChange = "2025-11-28 10:14:48 +0000";
layers = (
{
anchors = (
{
name = bottom;
pos = (426,0);
},
{
name = center;
pos = (220,512);
},
{
name = top;
pos = (426,1024);
}
);
layerId = m004;
shapes = (
{
closed = 1;
nodes = (
(145,968,l),
(410,968,ls),
(549,968,o),
(695,882,o),
(695,667,cs),
(695,342,ls),
(695,142,o),
(549,56,o),
(410,56,cs),
(145,56,l)
);
},
{
closed = 1;
nodes = (
(410,0,ls),
(562,0,o),
(759,89,o),
(759,342,cs),
(759,667,ls),
(759,935,o),
(562,1022,o),
(410,1022,cs),
(80,1024,l),
(80,0,l)
);
}
);
width = 819;
},
{
anchors = (
{
name = bottom;
pos = (468,21);
},
{
name = center;
pos = (203,584);
},
{
name = top;
pos = (468,1147);
}
);
layerId = m005;
shapes = (
{
closed = 1;
nodes = (
(296,845,l),
(422,845,ls),
(547,845,o),
(657,802,o),
(657,569,cs),
(657,456,ls),
(657,221,o),
(547,178,o),
(422,178,cs),
(296,178,l)
);
},
{
closed = 1;
nodes = (
(438,0,ls),
(616,0,o),
(868,74,o),
(868,456,cs),
(868,569,ls),
(868,950,o),
(616,1024,o),
(438,1024,cs),
(85,1024,l),
(85,0,l)
);
}
);
width = 928;
},
{
anchors = (
{
name = bottom;
pos = (452,0);
},
{
name = center;
pos = (202,563);
},
{
name = top;
pos = (452,1126);
}
);
layerId = "1B8EDE0E-D46F-48F9-B9C6-2CD34FEA95FD";
shapes = (
{
closed = 1;
nodes = (
(245,901,l),
(423,901,ls),
(554,901,o),
(691,851,o),
(691,607,cs),
(691,421,ls),
(691,174,o),
(557,125,o),
(423,123,cs),
(245,123,l)
);
},
{
closed = 1;
nodes = (
(434,0,ls),
(595,0,o),
(827,75,o),
(827,421,cs),
(827,607,ls),
(827,949,o),
(594,1024,o),
(434,1024,cs),
(105,1024,l),
(105,0,l)
);
}
);
width = 917;
}
);
metricLeft = "=H";
metricRight = "=O";
unicode = 68;
},
{
glyphname = E;
lastChange = "2025-11-28 10:14:58 +0000";
layers = (
{
anchors = (
{
name = bottom;
pos = (371,0);
},
{
name = ogonek;
pos = (642,8);
},
{
name = top;
pos = (371,1024);
},
{
name = topleft;
pos = (48,1024);
}
);
layerId = m004;
shapes = (
{
closed = 1;
nodes = (
(699,0,l),
(699,56,l),
(146,56,l),
(146,505,l),
(610,505,l),
(610,561,l),
(146,561,l),
(146,968,l),
(699,968,l),
(699,1024,l),
(80,1024,l),
(80,0,l)
);
}
);
width = 778;
},
{
anchors = (
{
name = bottom;
pos = (406,0);
},
{
name = ogonek;
pos = (732,16);
},
{
name = top;
pos = (406,1024);
},
{
name = topleft;
pos = (29,1024);
}
);
layerId = m005;
shapes = (
{
closed = 1;
nodes = (
(782,0,l),
(782,189,l),
(296,189,l),
(296,436,l),
(701,436,l),
(701,629,l),
(296,629,l),
(296,835,l),
(782,835,l),
(782,1024,l),
(85,1024,l),
(85,0,l)
);
}
);
width = 822;
},
{
anchors = (
{
name = bottom;
pos = (378,0);
},
{
name = ogonek;
pos = (680,16);
},
{
name = top;
pos = (378,1024);
},
{
name = topleft;
pos = (31,1024);
}
);
layerId = "1B8EDE0E-D46F-48F9-B9C6-2CD34FEA95FD";
shapes = (
{
closed = 1;
nodes = (
(756,0,l),
(756,117,l),
(245,117,l),
(245,464,l),
(669,464,l),
(669,584,l),
(245,584,l),
(245,907,l),
(756,907,l),
(756,1024,l),
(105,1024,l),
(105,0,l)
);
}
);
width = 827;
}
);
metricLeft = "=H";
unicode = 69;
},
{
glyphname = F;
lastChange = "2025-11-28 10:15:02 +0000";
layers = (
{
anchors = (
{
name = bottom;
pos = (347,0);
},
{
name = top;
pos = (347,1024);
}
);
layerId = m004;
shapes = (
{
closed = 1;
nodes = (
(146,0,l),
(146,417,l),
(589,417,l),
(589,474,l),
(146,474,l),
(146,967,l),
(655,967,l),
(655,1024,l),
(80,1024,l),
(80,0,l)
);
}
);
width = 726;
},
{
anchors = (
{
name = bottom;
pos = (319,-186);
},
{
name = top;
pos = (319,838);
}
);
layerId = m005;
shapes = (
{
closed = 1;
nodes = (
(296,0,l),
(296,372,l),
(682,372,l),
(682,564,l),
(296,564,l),
(296,835,l),
(735,835,l),
(735,1024,l),
(85,1024,l),
(85,0,l)
);
}
);
width = 775;
},
{
anchors = (
{
name = bottom;
pos = (370,0);
},
{
name = top;
pos = (370,1024);
}
);
layerId = "1B8EDE0E-D46F-48F9-B9C6-2CD34FEA95FD";
shapes = (
{
closed = 1;
nodes = (
(245,0,l),
(245,404,l),
(653,404,l),
(653,523,l),
(245,523,l),
(245,909,l),
(716,909,l),
(716,1024,l),
(105,1024,l),
(105,0,l)
);
}
);
width = 779;
}
);
metricLeft = "=H";
unicode = 70;
},
{
glyphname = G;
lastChange = "2025-11-28 10:15:16 +0000";
layers = (
{
anchors = (
{
name = bottom;
pos = (435,0);
},
{
name = top;
pos = (435,1024);
}
);
background = {
shapes = (
{
closed = 0;
nodes = (
(453,256,ls),
(453,414,o),
(383,497,o),
(257,496,cs)
);
},
{
closed = 0;
nodes = (
(257,521,ls),
(394,521,o),
(484,447,o),
(484,256,cs)
);
}
);
};
layerId = m004;
shapes = (
{
closed = 1;
nodes = (
(796,0,l),
(796,514,l),
(533,514,l),
(533,457,l),
(732,457,l),
(730,135,l),
(730,120,l),
(746,0,l)
);
},
{
closed = 1;
nodes = (
(577,-19,o),
(746,27,o),
(765,298,c),
(732,298,l),
(711,112,o),
(565,35,o),
(429,36,cs),
(289,38,o),
(127,121,o),
(127,339,c),
(127,670,l),
(127,903,o),
(289,986,o),
(429,988,cs),
(569,989,o),
(709,911,o),
(732,709,c),
(798,709,l),
(776,964,o),
(582,1043,o),
(429,1043,cs),
(278,1043,o),
(60,956,o),
(60,670,c),
(60,339,l),
(60,68,o),
(278,-19,o),
(429,-19,cs)
);
}
);
width = 923;
},
{
anchors = (
{
name = bottom;
pos = (476,9);
},
{
name = top;
pos = (476,1034);
}
);
guides = (
{
pos = (317,-100);
}
);
layerId = m005;
shapes = (
{
closed = 1;
nodes = (
(897,-3,l),
(897,533,l),
(525,533,l),
(525,367,l),
(686,367,l),
(686,71,l),
(703,71,l),
(719,-3,l)
);
},
{
closed = 1;
nodes = (
(667,-19,o),
(755,88,o),
(772,354,c),
(686,367,l),
(687,263,o),
(629,159,o),
(487,161,cs),
(378,162,o),
(271,200,o),
(271,436,cs),
(271,588,ls),
(271,824,o),
(378,862,o),
(487,863,cs),
(597,865,o),
(678,816,o),
(698,670,c),
(908,670,l),
(889,936,o),
(674,1043,o),
(487,1043,cs),
(307,1043,o),
(60,952,o),
(60,588,cs),
(60,436,ls),
(60,72,o),
(276,-19,o),
(455,-19,cs)
);
}
);
width = 983;
},
{
anchors = (
{
name = bottom;
pos = (479,9);
},
{
name = top;
pos = (479,1034);
}
);
background = {
shapes = (
{
closed = 1;
nodes = (
(747,385,l),
(747,198,o),
(653,95,o),
(485,95,c),
(318,95,o),
(226,198,o),
(226,385,c),
(226,636,l),
(226,826,o),
(318,929,o),
(485,929,cs),
(654,929,o),
(747,826,o),
(747,636,c)
);
},
{
closed = 1;
nodes = (
(90,385,ls),
(90,139,o),
(244,-24,o),
(485,-24,cs),
(728,-24,o),
(883,137,o),
(883,385,cs),
(883,636,ls),
(883,886,o),
(729,1048,o),
(485,1048,cs),
(243,1048,o),
(90,885,o),
(90,636,cs)
);
}
);
};
layerId = "1B8EDE0E-D46F-48F9-B9C6-2CD34FEA95FD";
shapes = (
{
closed = 1;
nodes = (
(866,0,l),
(866,515,l),
(542,515,l),
(542,400,l),
(732,400,l),
(732,90,l),
(743,90,l),
(762,0,l)
);
},
{
closed = 1;
nodes = (
(631,-30,o),
(789,30,o),
(778,308,c),
(732,308,l),
(732,181,o),
(641,89,o),
(485,89,cs),
(318,89,o),
(226,192,o),
(226,379,cs),
(226,636,ls),
(226,832,o),
(318,935,o),
(485,935,cs),
(620,935,o),
(732,871,o),
(746,715,c),
(877,715,l),
(858,954,o),
(668,1054,o),
(485,1054,cs),
(243,1054,o),
(90,891,o),
(90,636,cs),
(90,379,ls),
(90,133,o),
(244,-30,o),
(485,-30,cs)
);
}
);
width = 964;
}
);
metricLeft = "=O";
unicode = 71;
},
{
glyphname = H;
lastChange = "2025-11-28 10:11:38 +0000";
layers = (
{
anchors = (
{
name = bottom;
pos = (429,0);
},
{
name = center;
pos = (429,818);
},
{
name = top;
pos = (429,1024);
},
{
name = topleft;
pos = (-3,1024);
}
);
layerId = m004;
shapes = (
{
closed = 1;
nodes = (
(80,2,l),
(146,2,l),
(146,495,l),
(711,495,l),
(711,2,l),
(778,2,l),
(778,1023,l),
(711,1023,l),
(711,551,l),
(146,551,l),
(146,1023,l),
(80,1023,l)
);
}
);
width = 858;
},
{
anchors = (
{
name = bottom;
pos = (482,0);
},
{
name = center;
pos = (482,819);
},
{
name = top;
pos = (482,1024);
},
{
name = topleft;
pos = (14,1024);
}
);
layerId = m005;
shapes = (
{
closed = 1;
nodes = (
(85,0,l),
(296,0,l),
(296,438,l),
(667,438,l),
(667,0,l),
(879,0,l),
(879,1024,l),
(667,1024,l),
(667,630,l),
(296,630,l),
(296,1024,l),
(85,1024,l)
);
}
);
width = 964;
},
{
anchors = (
{
name = bottom;
pos = (471,-2);
},
{
name = center;
pos = (471,818);
},
{
name = top;
pos = (471,1023);
},
{
name = topleft;
pos = (31,1023);
}
);
layerId = "1B8EDE0E-D46F-48F9-B9C6-2CD34FEA95FD";
shapes = (
{
closed = 1;
nodes = (
(105,2,l),
(245,2,l),
(245,459,l),
(710,459,l),
(710,2,l),
(850,2,l),
(850,1023,l),
(710,1023,l),
(710,579,l),
(245,579,l),
(245,1023,l),
(105,1023,l)
);
}
);
width = 955;
}
);
metricRight = "=|";
unicode = 72;
},
{
glyphname = I;
lastChange = "2025-11-28 10:15:22 +0000";
layers = (
{
anchors = (
{
name = bottom;
pos = (115,0);
},
{
name = ogonek;
pos = (241,9);
},
{
name = top;
pos = (115,1126);
},
{
name = topleft;
pos = (-24,1126);
}
);
layerId = m004;
shapes = (
{
closed = 1;
nodes = (
(80,1024,l),
(80,0,l),
(145,0,l),
(145,1024,l)
);
}
);
width = 225;
},
{
anchors = (
{
name = bottom;
pos = (190,9);
},
{
name = ogonek;
pos = (358,25);
},
{
name = top;
pos = (190,1034);
},
{
name = topleft;
pos = (14,1034);
}
);
layerId = m005;
shapes = (
{
closed = 1;
nodes = (
(85,1024,l),
(85,0,l),
(296,0,l),
(296,1024,l)
);
}
);
width = 381;
},
{
anchors = (
{
name = bottom;
pos = (176,0);
},
{
name = ogonek;
pos = (330,17);
},
{
name = top;
pos = (176,1126);
},
{
name = topleft;
pos = (16,1126);
}
);
layerId = "1B8EDE0E-D46F-48F9-B9C6-2CD34FEA95FD";
shapes = (
{
closed = 1;
nodes = (
(105,1024,l),
(105,0,l),
(245,0,l),
(245,1024,l)
);
}
);
width = 350;
}
);
metricLeft = H;
metricRight = H;
unicode = 73;
},
{
glyphname = J;
lastChange = "2025-11-28 10:15:26 +0000";
layers = (
{
anchors = (
{
name = bottom;
pos = (365,-3);
},
{
name = top;
pos = (365,1126);
}
);
layerId = m004;
shapes = (
{
closed = 1;
nodes = (
(515,-24,o),
(608,80,o),
(608,269,cs),
(608,1024,l),
(543,1024,l),
(543,269,ls),
(543,119,o),
(470,32,o),
(344,32,cs),
(219,32,o),
(142,119,o),
(142,269,c),
(142,306,l),
(77,306,l),
(77,269,l),
(77,80,o),
(172,-24,o),
(344,-24,cs)
);
}
);
width = 688;
},
{
anchors = (
{
name = bottom;
pos = (427,10);
},
{
name = top;
pos = (427,1137);
}
);
layerId = m005;
shapes = (
{
closed = 1;
nodes = (
(566,-24,o),
(678,110,o),
(678,293,cs),
(678,1024,l),
(466,1024,l),
(466,285,ls),
(466,206,o),
(427,161,o),
(347,161,cs),
(267,161,o),
(225,206,o),
(225,285,cs),
(225,343,l),
(22,343,l),
(22,293,ls),
(22,110,o),
(134,-24,o),
(349,-24,cs)
);
}
);
width = 763;
},
{
anchors = (
{
name = bottom;
pos = (360,10);
},
{
name = top;
pos = (360,1137);
}
);
layerId = "1B8EDE0E-D46F-48F9-B9C6-2CD34FEA95FD";
shapes = (
{
closed = 1;
nodes = (
(518,-30,o),
(641,77,o),
(641,294,cs),
(641,1024,l),
(501,1024,l),
(501,294,ls),
(501,153,o),
(450,91,o),
(333,91,cs),
(216,91,o),
(165,152,o),
(165,293,c),
(165,308,l),
(25,308,l),
(25,294,l),
(25,77,o),
(148,-30,o),
(333,-30,cs)
);
}
);
width = 746;
}
);
metricRight = H;
unicode = 74;
},
{
glyphname = K;
lastChange = "2025-11-28 10:15:31 +0000";
layers = (
{
anchors = (
{
name = bottom;
pos = (396,0);
},
{
name = top;
pos = (396,1024);
}
);
layerId = m004;
shapes = (
{
closed = 1;
nodes = (
(144,2,l),
(144,1024,l),
(80,1024,l),
(80,2,l)
);
},
{
closed = 1;
nodes = (
(732,1024,l),
(653,1024,l),
(117,392,l),
(122,304,l)
);
},
{
closed = 1;
nodes = (
(771,0,l),
(396,674,l),
(351,632,l),
(702,0,l)
);
}
);
width = 825;
},
{
anchors = (
{
name = bottom;
pos = (448,0);
},
{
name = top;
pos = (448,1024);
}
);
layerId = m005;
shapes = (
{
closed = 1;
nodes = (
(296,0,l),
(296,1024,l),
(85,1024,l),
(85,0,l)
);
},
{
closed = 1;
nodes = (
(918,1024,l),
(672,1024,l),
(272,548,l),
(278,257,l)
);
},
{
closed = 1;
nodes = (
(964,0,l),
(573,700,l),
(430,540,l),
(732,0,l)
);
}
);
width = 971;
},
{
anchors = (
{
name = bottom;
pos = (426,-244);
},
{
name = top;
pos = (426,780);
}
);
layerId = "1B8EDE0E-D46F-48F9-B9C6-2CD34FEA95FD";
shapes = (
{
closed = 1;
nodes = (
(245,0,l),
(245,1024,l),
(105,1024,l),
(105,0,l)
);
},
{
closed = 1;
nodes = (
(817,1024,l),
(661,1024,l),
(204,488,l),
(199,290,l)
);
},
{
closed = 1;
nodes = (
(866,0,l),
(462,718,l),
(363,613,l),
(713,0,l)
);
}
);
width = 891;
}
);
metricLeft = "=H";
unicode = 75;
},
{
glyphname = L;
lastChange = "2025-11-28 10:15:37 +0000";
layers = (
{
anchors = (
{
name = bottom;
pos = (389,0);
},
{
name = center;
pos = (389,512);
},
{
name = top;
pos = (389,1024);
},
{
name = topright;
pos = (707,1024);
}
);
layerId = m004;
shapes = (
{
closed = 1;
nodes = (
(667,0,l),
(667,54,l),
(144,54,l),
(144,1024,l),
(80,1024,l),
(80,0,l)
);
}
);
width = 715;
},
{
anchors = (
{
name = bottom;
pos = (253,0);
},
{
name = center;
pos = (253,512);
},
{
name = top;
pos = (253,1024);
},
{
name = topright;
pos = (617,1024);
}
);
layerId = m005;
shapes = (
{
closed = 1;
nodes = (
(775,0,l),
(775,189,l),
(296,189,l),
(296,1024,l),
(85,1024,l),
(85,0,l)
);
}
);
width = 806;
},
{
anchors = (
{
name = bottom;
pos = (370,0);
},
{
name = center;
pos = (370,512);
},
{
name = top;
pos = (184,1024);
},
{
name = topright;
pos = (708,1024);
}
);
layerId = "1B8EDE0E-D46F-48F9-B9C6-2CD34FEA95FD";
shapes = (
{
closed = 1;
nodes = (
(746,0,l),
(746,120,l),
(245,120,l),
(245,1024,l),
(105,1024,l),
(105,0,l)
);
}
);
width = 778;
}
);
metricLeft = "=H";
unicode = 76;
},
{
glyphname = Lslash;
lastChange = "2025-11-26 14:44:30 +0000";
layers = (
{
layerId = m004;
shapes = (
{
ref = L;
},
{
closed = 1;
nodes = (
(40,306,l),
(505,490,l),
(505,553,l),
(40,369,l)
);
}
);
width = 393;
},
{
layerId = "1B8EDE0E-D46F-48F9-B9C6-2CD34FEA95FD";
shapes = (
{
ref = L;
},
{
closed = 1;
nodes = (
(32,306,l),
(533,504,l),
(533,635,l),
(32,436,l)
);
}
);
width = 402;
},
{
layerId = m005;
shapes = (
{
ref = L;
},
{
closed = 1;
nodes = (
(17,306,l),
(622,548,l),
(622,748,l),
(17,506,l)
);
}
);
width = 396;
}
);
unicode = 321;
},
{
glyphname = M;
lastChange = "2025-11-28 10:16:02 +0000";
layers = (
{
anchors = (
{
name = bottom;
pos = (596,0);
},
{
name = top;
pos = (596,1126);
}
);
layerId = m004;
shapes = (
{
closed = 1;
nodes = (
(145,0,l),
(145,991,l),
(106,969,l),
(493,217,l),
(545,217,l),
(929,969,l),
(889,991,l),
(889,0,l),
(956,0,l),
(956,1024,l),
(889,1024,l),
(506,280,l),
(530,280,l),
(145,1024,l),
(80,1024,l),
(80,0,l)
);
}
);
width = 1036;
},
{
anchors = (
{
name = bottom;
pos = (590,0);
},
{
name = top;
pos = (590,1024);
}
);
layerId = m005;
shapes = (
{
closed = 1;
nodes = (
(296,0,l),
(296,819,l),
(221,819,l),
(504,167,l),
(674,167,l),
(958,819,l),
(883,819,l),
(883,0,l),
(1094,0,l),
(1094,1024,l),
(895,1024,l),
(528,272,l),
(651,272,l),
(285,1024,l),
(85,1024,l),
(85,0,l)
);
}
);
width = 1179;
},
{
anchors = (
{
name = bottom;
pos = (568,-1);
},
{
name = top;
pos = (568,1126);
}
);
layerId = "1B8EDE0E-D46F-48F9-B9C6-2CD34FEA95FD";
shapes = (
{
closed = 1;
nodes = (
(245,1,l),
(245,871,l),
(215,838,l),
(514,244,l),
(620,244,l),
(921,838,l),
(891,871,l),
(891,1,l),
(1031,1,l),
(1031,1024,l),
(890,1024,l),
(544,367,l),
(592,367,l),
(247,1024,l),
(105,1024,l),
(105,1,l)
);
}
);
width = 1136;
}
);
metricLeft = H;
metricRight = H;
unicode = 77;
},
{
glyphname = N;
lastChange = "2025-11-28 10:16:10 +0000";
layers = (
{
anchors = (
{
name = bottom;
pos = (435,0);
},
{
name = top;
pos = (435,1024);
}
);
layerId = m004;
shapes = (
{
closed = 1;
nodes = (
(80,0,l),
(146,0,l),
(146,950,l),
(108,950,l),
(745,0,l),
(790,0,l),
(790,1024,l),
(724,1024,l),
(724,68,l),
(773,68,l),
(136,1024,l),
(80,1024,l)
);
}
);
width = 870;
},
{
anchors = (
{
name = bottom;
pos = (480,0);
},
{
name = top;
pos = (480,1024);
}
);
layerId = m005;
shapes = (
{
closed = 1;
nodes = (
(85,0,l),
(296,0,l),
(296,839,l),
(168,839,l),
(682,0,l),
(883,0,l),
(883,1024,l),
(672,1024,l),
(672,166,l),
(800,163,l),
(286,1024,l),
(85,1024,l)
);
}
);
width = 968;
},
{
anchors = (
{
name = bottom;
pos = (475,0);
},
{
name = top;
pos = (475,1024);
}
);
layerId = "1B8EDE0E-D46F-48F9-B9C6-2CD34FEA95FD";
shapes = (
{
closed = 1;
nodes = (
(105,0,l),
(245,0,l),
(245,904,l),
(179,893,l),
(718,0,l),
(852,0,l),
(852,1024,l),
(712,1024,l),
(712,115,l),
(781,125,l),
(242,1024,l),
(105,1024,l)
);
}
);
width = 957;
}
);
metricLeft = H;
metricRight = "=|";
unicode = 78;
},
{
glyphname = O;
lastChange = "2025-11-28 10:11:59 +0000";
layers = (
{
anchors = (
{
name = bottom;
pos = (433,0);
},
{
name = center;
pos = (433,563);
},
{
name = ogonek;
pos = (836,9);
},
{
name = top;
pos = (433,1126);
},
{
name = topleft;
pos = (-55,1126);
},
{
name = topright;
pos = (920,1126);
}
);
layerId = m004;
shapes = (
{
closed = 1;
nodes = (
(740,353,ls),
(740,159,o),
(617,31,o),
(433,31,cs),
(249,31,o),
(125,165,o),
(125,353,cs),
(125,672,ls),
(125,860,o),
(249,993,o),
(433,993,cs),
(617,993,o),
(740,866,o),
(740,672,cs)
);
},
{
closed = 1;
nodes = (
(60,353,ls),
(60,120,o),
(213,-24,o),
(433,-24,cs),
(652,-24,o),
(805,120,o),
(805,353,cs),
(805,672,ls),
(805,904,o),
(652,1048,o),
(433,1048,cs),
(213,1048,o),
(60,904,o),
(60,672,cs)
);
}
);
width = 865;
},
{
anchors = (
{
name = bottom;
pos = (525,0);
},
{
name = center;
pos = (525,563);
},
{
name = ogonek;
pos = (951,17);
},
{
name = top;
pos = (525,1147);
},
{
name = topleft;
pos = (26,1126);
},
{
name = topright;
pos = (1024,1126);
}
);
layerId = m005;
shapes = (
{
closed = 1;
nodes = (
(700,415,ls),
(700,212,o),
(589,161,o),
(487,162,cs),
(385,164,o),
(274,212,o),
(274,415,cs),
(274,610,ls),
(274,813,o),
(385,862,o),
(487,863,cs),
(589,865,o),
(700,813,o),
(700,610,cs)
);
},
{
closed = 1;
nodes = (
(60,410,ls),
(60,59,o),
(313,-34,o),
(487,-34,cs),
(662,-34,o),
(913,59,o),
(913,410,cs),
(913,615,ls),
(913,967,o),
(662,1058,o),
(487,1058,cs),
(313,1058,o),
(60,967,o),
(60,615,cs)
);
}
);
width = 973;
},
{
anchors = (
{
name = bottom;
pos = (485,0);
},
{
name = center;
pos = (485,563);
},
{
name = ogonek;
pos = (900,17);
},
{
name = top;
pos = (485,1126);
},
{
name = topleft;
pos = (2,1126);
},
{
name = topright;
pos = (969,1126);
}
);
layerId = "1B8EDE0E-D46F-48F9-B9C6-2CD34FEA95FD";
shapes = (
{
closed = 1;
nodes = (
(747,379,l),
(747,192,o),
(653,89,o),
(485,89,c),
(318,89,o),
(226,192,o),
(226,379,c),
(226,642,l),
(226,832,o),
(318,935,o),
(485,935,cs),
(654,935,o),
(747,832,o),
(747,642,c)
);
},
{
closed = 1;
nodes = (
(90,379,ls),
(90,133,o),
(244,-30,o),
(485,-30,cs),
(728,-30,o),
(883,131,o),
(883,379,cs),
(883,642,ls),
(883,892,o),
(729,1054,o),
(485,1054,cs),
(243,1054,o),
(90,891,o),
(90,642,cs)
);
}
);
width = 973;
}
);
metricRight = "=|";
unicode = 79;
},
{
glyphname = Oslash;
lastChange = "2025-11-27 15:24:51 +0000";
layers = (
{
anchors = (
{
name = bottom;
pos = (289,0);
},
{
name = top;
pos = (289,1126);
}
);
layerId = m004;
shapes = (
{
ref = O;
},
{
closed = 1;
nodes = (
(132,0,l),
(492,563,l),
(447,562,l),
(87,0,l)
);
}
);
width = 982;
},
{
anchors = (
{
name = bottom;
pos = (503,10);
},
{
name = top;
pos = (503,1137);
}
);
layerId = "1B8EDE0E-D46F-48F9-B9C6-2CD34FEA95FD";
shapes = (
{
ref = O;
},
{
closed = 1;
nodes = (
(228,10,l),
(958,1137,l),
(779,1137,l),
(49,10,l)
);
}
);
width = 1007;
},
{
anchors = (
{
name = bottom;
pos = (521,10);
},
{
name = top;
pos = (521,1137);
}
);
layerId = m005;
shapes = (
{
ref = O;
},
{
closed = 1;
nodes = (
(285,10,l),
(1029,1137,l),
(756,1137,l),
(13,10,l)
);
}
);
width = 1042;
}
);
metricRight = "=|";
unicode = 216;
},
{
glyphname = P;
lastChange = "2025-11-28 10:16:27 +0000";
layers = (
{
anchors = (
{
name = bottom;
pos = (339,0);
},
{
name = top;
pos = (339,1024);
}
);
layerId = m004;
shapes = (
{
closed = 1;
nodes = (
(146,0,l),
(146,1024,l),
(80,1024,l),
(80,0,l)
);
},
{
closed = 1;
nodes = (
(357,430,ls),
(530,430,o),
(653,553,o),
(653,727,cs),
(653,900,o),
(529,1024,o),
(357,1024,cs),
(116,1024,l),
(116,967,l),
(357,967,ls),
(496,967,o),
(587,868,o),
(587,727,cs),
(587,584,o),
(498,487,o),
(357,487,cs),
(116,487,l),
(116,430,l)
);
}
);
width = 716;
},
{
anchors = (
{
name = bottom;
pos = (341,0);
},
{
name = top;
pos = (341,1024);
}
);
layerId = m005;
shapes = (
{
closed = 1;
nodes = (
(296,0,l),
(296,1024,l),
(85,1024,l),
(85,0,l)
);
},
{
closed = 1;
nodes = (
(417,364,ls),
(563,364,o),
(753,458,o),
(753,696,cs),
(753,935,o),
(563,1024,o),
(417,1024,cs),
(215,1024,l),
(215,830,l),
(401,830,ls),
(484,830,o),
(541,774,o),
(541,694,cs),
(541,612,o),
(486,558,o),
(401,558,cs),
(215,558,l),
(215,364,l)
);
}
);
width = 788;
},
{
anchors = (
{
name = bottom;
pos = (382,0);
},
{
name = top;
pos = (382,1024);
}
);
layerId = "1B8EDE0E-D46F-48F9-B9C6-2CD34FEA95FD";
shapes = (
{
closed = 1;
nodes = (
(245,0,l),
(245,1024,l),
(105,1024,l),
(105,0,l)
);
},
{
closed = 1;
nodes = (
(404,399,ls),
(578,399,o),
(724,511,o),
(724,711,cs),
(724,911,o),
(577,1024,o),
(404,1024,cs),
(212,1024,l),
(212,908,l),
(392,908,ls),
(519,908,o),
(592,836,o),
(592,711,cs),
(592,587,o),
(519,515,o),
(392,515,cs),
(212,515,l),
(212,399,l)
);
}
);
width = 764;
}
);
metricLeft = "=H";
unicode = 80;
},
{
glyphname = Q;
lastChange = "2025-11-28 10:16:31 +0000";
layers = (
{
anchors = (
{
name = bottom;
pos = (432,0);
},
{
name = top;
pos = (432,1024);
}
);
layerId = m004;
shapes = (
{
closed = 1;
nodes = (
(60,338,l),
(60,64,o),
(280,-24,o),
(433,-24,cs),
(586,-24,o),
(804,64,o),
(804,338,c),
(804,671,l),
(804,961,o),
(586,1048,o),
(433,1048,cs),
(280,1048,o),
(60,961,o),
(60,671,c)
);
},
{
closed = 1;
nodes = (
(737,338,l),
(737,117,o),
(573,30,o),
(433,32,cs),
(291,34,o),
(127,117,o),
(127,338,c),
(127,671,l),
(127,907,o),
(291,989,o),
(433,991,cs),
(573,993,o),
(737,907,o),
(737,671,c)
);
},
{
closed = 1;
nodes = (
(605,70,l),
(712,-89,l),
(767,-52,l),
(661,106,l)
);
}
);
width = 864;
},
{
anchors = (
{
name = bottom;
pos = (495,0);
},
{
name = top;
pos = (495,1024);
}
);
background = {
shapes = (
{
closed = 1;
nodes = (
(355,29,l),
(408,-64,l),
(491,-17,l),
(437,76,l)
);
}
);
};
layerId = m005;
shapes = (
{
closed = 1;
nodes = (
(60,420,ls),
(60,68,o),
(313,-24,o),
(494,-24,cs),
(678,-24,o),
(929,68,o),
(929,420,cs),
(929,605,ls),
(929,956,o),
(678,1048,o),
(494,1048,cs),
(313,1048,o),
(60,956,o),
(60,605,cs)
);
},
{
closed = 1;
nodes = (
(715,424,ls),
(715,211,o),
(604,169,o),
(494,170,cs),
(385,173,o),
(274,211,o),
(274,424,cs),
(274,600,ls),
(274,813,o),
(385,850,o),
(494,852,cs),
(604,854,o),
(715,813,o),
(715,600,cs)
);
},
{
closed = 1;
nodes = (
(555,112,l),
(698,-140,l),
(889,-31,l),
(745,220,l)
);
}
);
width = 989;
},
{
anchors = (
{
name = bottom;
pos = (487,0);
},
{
name = top;
pos = (487,1024);
}
);
layerId = "1B8EDE0E-D46F-48F9-B9C6-2CD34FEA95FD";
shapes = (
{
closed = 1;
nodes = (
(90,379,ls),
(90,133,o),
(244,-30,o),
(485,-30,cs),
(728,-30,o),
(883,131,o),
(883,379,cs),
(883,642,ls),
(883,892,o),
(729,1054,o),
(485,1054,cs),
(243,1054,o),
(90,891,o),
(90,642,cs)
);
},
{
closed = 1;
nodes = (
(747,379,l),
(747,192,o),
(653,89,o),
(485,89,c),
(318,89,o),
(226,192,o),
(226,379,c),
(226,642,l),
(226,832,o),
(318,935,o),
(485,935,cs),
(654,935,o),
(747,832,o),
(747,642,c)
);
},
{
closed = 1;
nodes = (
(644,45,l),
(755,-149,l),
(883,-74,l),
(770,118,l)
);
}
);
width = 973;
}
);
metricLeft = "=O";
metricRight = "=O";
unicode = 81;
},
{
glyphname = R;
lastChange = "2025-11-27 15:24:51 +0000";
layers = (
{
anchors = (
{
name = bottom;
pos = (385,0);
},
{
name = top;
pos = (385,1024);
}
);
layerId = m004;
shapes = (
{
closed = 1;
nodes = (
(146,967,l),
(404,967,ls),
(551,967,o),
(619,882,o),
(619,735,cs),
(619,585,o),
(547,503,o),
(404,503,cs),
(146,503,l)
);
},
{
closed = 1;
nodes = (
(146,0,l),
(146,446,l),
(404,446,ls),
(583,446,o),
(685,561,o),
(685,735,cs),
(685,956,o),
(549,1024,o),
(404,1024,cs),
(80,1024,l),
(80,0,l)
);
},
{
closed = 1;
nodes = (
(748,0,l),
(486,463,l),
(418,463,l),
(678,0,l)
);
}
);
width = 783;
},
{
anchors = (
{
name = bottom;
pos = (380,0);
},
{
name = top;
pos = (380,1024);
}
);
layerId = m005;
shapes = (
{
closed = 1;
nodes = (
(309,830,l),
(458,830,ls),
(529,830,o),
(589,809,o),
(589,700,cs),
(589,605,o),
(536,572,o),
(458,572,cs),
(309,572,l)
);
},
{
closed = 1;
nodes = (
(309,0,l),
(309,378,l),
(452,378,ls),
(616,378,o),
(811,447,o),
(811,700,cs),
(811,956,o),
(616,1024,o),
(451,1024,cs),
(95,1024,l),
(95,0,l)
);
},
{
closed = 1;
nodes = (
(881,0,l),
(583,525,l),
(364,525,l),
(648,0,l)
);
}
);
width = 876;
},
{
anchors = (
{
name = bottom;
pos = (415,0);
},
{
name = top;
pos = (415,1024);
}
);
layerId = "1B8EDE0E-D46F-48F9-B9C6-2CD34FEA95FD";
shapes = (
{
closed = 1;
nodes = (
(244,904,l),
(437,904,ls),
(560,904,o),
(627,843,o),
(627,725,cs),
(627,607,o),
(560,549,o),
(437,549,cs),
(244,549,l)
);
},
{
closed = 1;
nodes = (
(244,0,l),
(244,429,l),
(425,429,ls),
(639,429,o),
(769,533,o),
(769,725,cs),
(769,917,o),
(639,1024,o),
(425,1024,cs),
(105,1024,l),
(105,0,l)
);
},
{
closed = 1;
nodes = (
(828,0,l),
(558,481,l),
(407,481,l),
(677,0,l)
);
}
);
width = 842;
}
);
metricLeft = "=H";
unicode = 82;
},
{
glyphname = S;
lastChange = "2025-11-28 10:16:41 +0000";
layers = (
{
anchors = (
{
name = bottom;
pos = (393,0);
},
{
name = top;
pos = (393,1126);
}
);
layerId = m004;
shapes = (
{
closed = 1;
nodes = (
(599,-24,o),
(731,81,o),
(731,251,cs),
(731,432,o),
(597,489,o),
(501,523,cs),
(339,581,ls),
(255,611,o),
(164,663,o),
(164,761,cs),
(164,898,o),
(257,989,o),
(397,989,cs),
(536,989,o),
(647,907,o),
(647,726,c),
(713,726,l),
(713,934,o),
(583,1047,o),
(399,1047,cs),
(214,1047,o),
(95,935,o),
(98,764,cs),
(101,625,o),
(207,560,o),
(308,524,cs),
(470,467,ls),
(614,416,o),
(666,356,o),
(666,249,cs),
(666,119,o),
(557,36,o),
(412,36,cs),
(257,36,o),
(137,132,o),
(121,286,c),
(57,286,l),
(70,102,o),
(225,-24,o),
(412,-24,cs)
);
}
);
width = 788;
},
{
anchors = (
{
name = bottom;
pos = (459,10);
},
{
name = top;
pos = (459,1137);
}
);
layerId = m005;
shapes = (
{
closed = 1;
nodes = (
(651,-24,o),
(788,87,o),
(788,267,cs),
(788,391,o),
(714,500,o),
(578,549,cs),
(432,602,ls),
(394,616,o),
(295,663,o),
(295,752,cs),
(295,815,o),
(350,857,o),
(431,857,cs),
(530,857,o),
(578,808,o),
(578,709,c),
(785,709,l),
(785,970,o),
(587,1048,o),
(431,1048,cs),
(248,1048,o),
(88,946,o),
(88,747,cs),
(88,594,o),
(178,487,o),
(292,446,cs),
(435,394,ls),
(505,369,o),
(581,332,o),
(581,259,cs),
(581,160,o),
(462,159,o),
(431,159,cs),
(319,159,o),
(251,230,o),
(240,352,c),
(45,352,l),
(57,110,o),
(220,-24,o),
(431,-24,cs)
);
}
);
width = 833;
},
{
anchors = (
{
name = bottom;
pos = (408,10);
},
{
name = top;
pos = (408,1137);
}
);
layerId = "1B8EDE0E-D46F-48F9-B9C6-2CD34FEA95FD";
shapes = (
{
closed = 1;
nodes = (
(642,-30,o),
(785,93,o),
(785,267,cs),
(785,401,o),
(706,493,o),
(521,562,cs),
(403,605,ls),
(284,648,o),
(228,691,o),
(228,773,cs),
(228,870,o),
(306,940,o),
(419,940,cs),
(545,940,o),
(624,854,o),
(627,717,c),
(762,717,l),
(758,928,o),
(633,1054,o),
(420,1054,cs),
(219,1054,o),
(94,946,o),
(94,773,cs),
(94,639,o),
(181,544,o),
(346,483,cs),
(463,440,ls),
(593,392,o),
(651,346,o),
(651,264,cs),
(651,161,o),
(570,88,o),
(438,88,cs),
(275,88,o),
(197,187,o),
(179,301,c),
(47,301,l),
(76,76,o),
(223,-30,o),
(441,-30,cs)
);
}
);
width = 832;
}
);
metricRight = "=|";
unicode = 83;
},
{
glyphname = T;
lastChange = "2025-11-27 14:41:26 +0000";
layers = (
{
anchors = (
{
name = bottom;
pos = (380,0);
},
{
name = center;
pos = (380,512);
},
{
name = top;
pos = (380,1024);
}
);
layerId = m004;
shapes = (
{
closed = 1;
nodes = (
(35,1023,l),
(35,968,l),
(347,968,l),
(347,2,l),
(413,2,l),
(413,968,l),
(725,968,l),
(725,1023,l)
);
}
);
width = 760;
},
{
anchors = (
{
name = bottom;
pos = (463,0);
},
{
name = center;
pos = (463,563);
},
{
name = top;
pos = (463,1126);
}
);
layerId = m005;
shapes = (
{
closed = 1;
nodes = (
(17,1024,l),
(17,830,l),
(317,830,l),
(317,0,l),
(528,0,l),
(528,830,l),
(827,830,l),
(827,1024,l)
);
}
);
width = 844;
},
{
anchors = (
{
name = bottom;
pos = (411,-2);
},
{
name = center;
pos = (411,562);
},
{
name = top;
pos = (411,1125);
}
);
layerId = "1B8EDE0E-D46F-48F9-B9C6-2CD34FEA95FD";
shapes = (
{
closed = 1;
nodes = (
(45,1024,l),
(45,904,l),
(359,904,l),
(359,2,l),
(499,2,l),
(499,904,l),
(813,904,l),
(813,1024,l)
);
}
);
width = 858;
}
);
metricRight = "=|";
unicode = 84;
},
{
glyphname = U;
lastChange = "2025-11-27 15:04:28 +0000";
layers = (
{
anchors = (
{
name = bottom;
pos = (503,0);
},
{
name = ogonek;
pos = (879,8);
},
{
name = top;
pos = (503,1024);
},
{
name = topright;
pos = (958,1024);
}
);
layerId = m004;
shapes = (
{
closed = 1;
nodes = (
(726,-19,o),
(856,121,o),
(856,339,c),
(856,1024,l),
(789,1024,l),
(789,339,l),
(789,159,o),
(682,38,o),
(503,38,cs),
(324,38,o),
(216,165,o),
(216,339,c),
(216,1024,l),
(150,1024,l),
(150,339,l),
(150,122,o),
(280,-19,o),
(503,-19,cs)
);
}
);
width = 1006;
},
{
anchors = (
{
name = bottom;
pos = (470,0);
},
{
name = ogonek;
pos = (863,16);
},
{
name = top;
pos = (470,1024);
},
{
name = topright;
pos = (931,1024);
}
);
layerId = m005;
shapes = (
{
closed = 1;
nodes = (
(641,-19,o),
(876,47,o),
(876,342,cs),
(876,1024,l),
(665,1024,l),
(665,380,ls),
(665,214,o),
(570,175,o),
(470,176,cs),
(369,178,o),
(274,216,o),
(274,380,cs),
(274,1024,l),
(63,1024,l),
(63,342,ls),
(63,47,o),
(299,-19,o),
(470,-19,cs)
);
}
);
width = 939;
},
{
anchors = (
{
name = bottom;
pos = (469,0);
},
{
name = ogonek;
pos = (839,16);
},
{
name = top;
pos = (469,1024);
},
{
name = topright;
pos = (900,1024);
}
);
layerId = "1B8EDE0E-D46F-48F9-B9C6-2CD34FEA95FD";
shapes = (
{
closed = 1;
nodes = (
(625,-30,o),
(842,46,o),
(842,364,c),
(842,1024,l),
(703,1024,l),
(703,375,l),
(703,143,o),
(576,89,o),
(469,89,cs),
(358,91,o),
(235,143,o),
(235,375,c),
(235,1024,l),
(95,1024,l),
(95,364,l),
(95,46,o),
(314,-30,o),
(469,-30,cs)
);
}
);
width = 937;
}
);
metricRight = "=|";
unicode = 85;
},
{
glyphname = V;
lastChange = "2025-11-27 14:42:35 +0000";
layers = (
{
anchors = (
{
name = bottom;
pos = (430,0);
},
{
name = top;
pos = (430,1024);
}
);
layerId = m004;
shapes = (
{
closed = 1;
nodes = (
(467,0,l),
(809,1024,l),
(746,1026,l),
(415,28,l),
(445,28,l),
(116,1024,l),
(51,1024,l),
(393,0,l)
);
}
);
width = 860;
},
{
anchors = (
{
name = bottom;
pos = (455,0);
},
{
name = top;
pos = (455,1024);
}
);
layerId = m005;
shapes = (
{
closed = 1;
nodes = (
(546,0,l),
(897,1024,l),
(675,1024,l),
(398,140,l),
(516,140,l),
(234,1024,l),
(12,1024,l),
(363,0,l)
);
}
);
width = 909;
},
{
anchors = (
{
name = bottom;
pos = (446,0);
},
{
name = top;
pos = (446,1024);
}
);
layerId = "1B8EDE0E-D46F-48F9-B9C6-2CD34FEA95FD";
shapes = (
{
closed = 1;
nodes = (
(511,0,l),
(861,1024,l),
(719,1024,l),
(423,126,l),
(475,126,l),
(175,1024,l),
(30,1024,l),
(380,0,l)
);
}
);
width = 891;
}
);
metricRight = "=|";
unicode = 86;
},
{
glyphname = W;
lastChange = "2025-11-27 14:44:19 +0000";
layers = (
{
anchors = (
{
name = bottom;
pos = (676,0);
},
{
name = top;
pos = (676,1024);
}
);
layerId = m004;
shapes = (
{
closed = 1;
nodes = (
(438,0,l),
(688,993,l),
(652,991,l),
(923,0,l),
(995,0,l),
(1300,1024,l),
(1235,1024,l),
(936,6,l),
(983,6,l),
(706,1024,l),
(636,1024,l),
(377,13,l),
(417,15,l),
(116,1024,l),
(51,1024,l),
(363,0,l)
);
}
);
width = 1351;
},
{
anchors = (
{
name = bottom;
pos = (740,0);
},
{
name = top;
pos = (740,1126);
}
);
layerId = m005;
shapes = (
{
closed = 1;
nodes = (
(481,0,l),
(728,868,l),
(612,864,l),
(852,0,l),
(1040,0,l),
(1334,1024,l),
(1115,1024,l),
(925,291,l),
(982,291,l),
(781,1024,l),
(565,1024,l),
(373,291,l),
(426,291,l),
(236,1024,l),
(12,1024,l),
(304,0,l)
);
}
);
width = 1346;
},
{
anchors = (
{
name = bottom;
pos = (660,0);
},
{
name = top;
pos = (660,1126);
}
);
layerId = "1B8EDE0E-D46F-48F9-B9C6-2CD34FEA95FD";
shapes = (
{
closed = 1;
nodes = (
(432,0,l),
(685,913,l),
(629,911,l),
(883,0,l),
(1004,0,l),
(1294,1024,l),
(1154,1024,l),
(910,115,l),
(986,115,l),
(726,1024,l),
(594,1024,l),
(340,115,l),
(414,115,l),
(170,1024,l),
(30,1024,l),
(318,0,l)
);
}
);
width = 1324;
}
);
metricLeft = "=V";
metricRight = "=|";
unicode = 87;
},
{
glyphname = X;
lastChange = "2025-11-27 14:45:45 +0000";
layers = (
{
anchors = (
{
name = bottom;
pos = (399,0);
},
{
name = top;
pos = (399,1024);
}
);
layerId = m004;
shapes = (
{
closed = 1;
nodes = (
(746,1,l),
(124,1023,l),
(51,1023,l),
(675,1,l)
);
},
{
closed = 1;
nodes = (
(429,489,l),
(746,1023,l),
(678,1023,l),
(395,546,l)
);
},
{
closed = 1;
nodes = (
(127,1,l),
(417,489,l),
(384,546,l),
(59,1,l)
);
}
);
width = 797;
},
{
anchors = (
{
name = bottom;
pos = (463,0);
},
{
name = top;
pos = (463,1024);
}
);
layerId = m005;
shapes = (
{
closed = 1;
nodes = (
(903,0,l),
(273,1024,l),
(24,1024,l),
(655,0,l)
);
},
{
closed = 1;
nodes = (
(514,399,l),
(895,1029,l),
(660,1029,l),
(394,594,l)
);
},
{
closed = 1;
nodes = (
(249,0,l),
(517,436,l),
(397,632,l),
(16,0,l)
);
}
);
width = 919;
},
{
anchors = (
{
name = bottom;
pos = (424,-1);
},
{
name = top;
pos = (424,1023);
}
);
layerId = "1B8EDE0E-D46F-48F9-B9C6-2CD34FEA95FD";
shapes = (
{
closed = 1;
nodes = (
(819,1,l),
(184,1023,l),
(35,1023,l),
(670,1,l)
);
},
{
closed = 1;
nodes = (
(461,455,l),
(814,1023,l),
(665,1023,l),
(386,574,l)
);
},
{
closed = 1;
nodes = (
(376,574,l),
(20,1,l),
(169,1,l),
(451,455,l)
);
}
);
width = 839;
}
);
metricRight = "=|";
unicode = 88;
},
{
glyphname = Y;
lastChange = "2025-11-27 14:46:30 +0000";
layers = (
{
anchors = (
{
name = bottom;
pos = (396,0);
},
{
name = top;
pos = (396,1024);
},
{
name = topleft;
pos = (61,1024);
}
);
layerId = m004;
shapes = (
{
closed = 1;
nodes = (
(362,424,l),
(362,0,l),
(428,0,l),
(428,424,l),
(735,1024,l),
(666,1024,l),
(370,447,l),
(421,447,l),
(126,1024,l),
(56,1024,l)
);
}
);
width = 791;
},
{
anchors = (
{
name = bottom;
pos = (469,0);
},
{
name = top;
pos = (469,1126);
},
{
name = topleft;
pos = (39,1126);
}
);
layerId = m005;
shapes = (
{
closed = 1;
nodes = (
(322,417,l),
(322,0,l),
(533,0,l),
(533,417,l),
(842,1024,l),
(623,1024,l),
(336,481,l),
(511,481,l),
(234,1024,l),
(13,1024,l)
);
}
);
width = 855;
},
{
anchors = (
{
name = bottom;
pos = (431,0);
},
{
name = top;
pos = (431,1126);
},
{
name = topleft;
pos = (20,1126);
}
);
layerId = "1B8EDE0E-D46F-48F9-B9C6-2CD34FEA95FD";
shapes = (
{
closed = 1;
nodes = (
(361,421,l),
(361,0,l),
(501,0,l),
(501,421,l),
(812,1024,l),
(684,1024,l),
(408,479,l),
(454,479,l),
(185,1024,l),
(50,1024,l)
);
}
);
width = 862;
}
);
metricRight = "=|";
unicode = 89;
},
{
glyphname = Z;
lastChange = "2025-11-27 14:47:18 +0000";
layers = (
{
anchors = (
{
name = bottom;
pos = (374,0);
},
{
name = center;
pos = (374,512);
},
{
name = top;
pos = (374,1024);
}
);
layerId = m004;
shapes = (
{
closed = 1;
nodes = (
(48,54,l),
(48,0,l),
(700,0,l),
(700,56,l),
(125,56,l),
(700,971,l),
(700,1024,l),
(48,1024,l),
(48,968,l),
(625,968,l)
);
}
);
width = 748;
},
{
anchors = (
{
name = bottom;
pos = (422,0);
},
{
name = center;
pos = (422,512);
},
{
name = top;
pos = (422,1024);
}
);
layerId = m005;
shapes = (
{
closed = 1;
nodes = (
(48,126,l),
(48,0,l),
(795,0,l),
(795,194,l),
(326,194,l),
(795,898,l),
(795,1024,l),
(48,1024,l),
(48,830,l),
(517,830,l)
);
}
);
width = 843;
},
{
anchors = (
{
name = bottom;
pos = (406,0);
},
{
name = center;
pos = (406,512);
},
{
name = top;
pos = (406,1024);
}
);
layerId = "1B8EDE0E-D46F-48F9-B9C6-2CD34FEA95FD";
shapes = (
{
closed = 1;
nodes = (
(70,97,l),
(70,0,l),
(742,0,l),
(742,120,l),
(227,120,l),
(742,928,l),
(742,1024,l),
(70,1024,l),
(70,904,l),
(585,904,l)
);
}
);
width = 812;
}
);
metricRight = "=|";
unicode = 90;
},
{
glyphname = a;
lastChange = "2025-11-28 10:18:23 +0000";
layers = (
{
anchors = (
{
name = bottom;
pos = (362,0);
},
{
name = ogonek;
pos = (664,9);
},
{
name = top;
pos = (365,806);
}
);
background = {
shapes = (
{
closed = 0;
nodes = (
(82,544,ls),
(81,711,o),
(198,827,o),
(365,827,cs)
);
}
);
};
layerId = m004;
shapes = (
{
closed = 1;
nodes = (
(331,429,ls),
(165,429,o),
(63,365,o),
(63,216,cs),
(63,64,o),
(159,-24,o),
(309,-24,cs),
(439,-24,o),
(518,34,o),
(560,98,c),
(560,246,l),
(560,155,o),
(469,30,o),
(309,30,cs),
(202,30,o),
(128,96,o),
(128,218,cs),
(128,342,o),
(221,372,o),
(341,372,cs),
(576,372,l),
(576,429,l)
);
},
{
closed = 1;
nodes = (
(623,0,l),
(623,498,ls),
(623,651,o),
(517,757,o),
(364,757,cs),
(222,757,o),
(127,664,o),
(110,552,c),
(176,552,l),
(191,634,o),
(256,699,o),
(364,699,cs),
(484,699,o),
(560,620,o),
(560,497,cs),
(560,110,l),
(544,79,l),
(560,79,l),
(576,0,l)
);
}
);
width = 715;
},
{
anchors = (
{
name = bottom;
pos = (405,0);
},
{
name = ogonek;
pos = (738,9);
},
{
name = top;
pos = (405,806);
}
);
layerId = m005;
shapes = (
{
closed = 1;
nodes = (
(374,447,ls),
(129,447,o),
(45,324,o),
(45,201,cs),
(45,64,o),
(149,-24,o),
(313,-24,cs),
(430,-24,o),
(480,28,o),
(535,93,c),
(499,289,l),
(499,139,o),
(416,129,o),
(349,129,cs),
(295,129,o),
(254,163,o),
(254,211,cs),
(254,276,o),
(295,296,o),
(380,296,cs),
(517,296,l),
(517,447,l)
);
},
{
closed = 1;
nodes = (
(702,0,l),
(704,497,ls),
(705,678,o),
(548,757,o),
(389,757,cs),
(229,757,o),
(95,678,o),
(68,484,c),
(266,484,l),
(267,564,o),
(335,580,o),
(384,580,cs),
(422,580,o),
(498,574,o),
(498,494,cs),
(498,144,l),
(518,80,l),
(534,80,l),
(558,0,l)
);
}
);
width = 784;
},
{
anchors = (
{
name = bottom;
pos = (369,0);
},
{
name = ogonek;
pos = (700,9);
},
{
name = top;
pos = (369,806);
}
);
layerId = "1B8EDE0E-D46F-48F9-B9C6-2CD34FEA95FD";
shapes = (
{
closed = 1;
nodes = (
(309,439,ls),
(112,439,o),
(46,294,o),
(46,211,cs),
(46,66,o),
(152,-30,o),
(309,-30,cs),
(396,-30,o),
(479,20,o),
(515,70,c),
(517,265,l),
(517,162,o),
(431,86,o),
(309,86,cs),
(220,86,o),
(178,125,o),
(178,214,cs),
(178,289,o),
(228,327,o),
(324,327,cs),
(534,327,l),
(534,439,l)
);
},
{
closed = 1;
nodes = (
(650,6,l),
(652,508,ls),
(652,664,o),
(527,763,o),
(370,763,cs),
(218,763,o),
(101,670,o),
(87,536,c),
(221,536,l),
(228,600,o),
(289,643,o),
(370,643,cs),
(462,643,o),
(517,585,o),
(517,493,cs),
(515,91,l),
(515,70,l),
(532,70,l),
(547,6,l)
);
}
);
width = 737;
}
);
metricRight = "=n";
unicode = 97;
},
{
glyphname = b;
lastChange = "2025-11-28 10:18:26 +0000";
layers = (
{
anchors = (
{
name = bottom;
pos = (368,0);
},
{
name = center;
pos = (180,943);
},
{
name = top;
pos = (368,780);
}
);
layerId = m004;
shapes = (
{
closed = 1;
nodes = (
(147,0,l),
(163,76,l),
(178,76,l),
(163,128,l),
(164,1071,l),
(100,1071,l),
(102,0,l)
);
},
{
closed = 1;
nodes = (
(549,-24,o),
(672,72,o),
(672,289,cs),
(672,444,ls),
(672,661,o),
(549,757,o),
(388,757,cs),
(212,757,o),
(147,659,o),
(135,455,c),
(164,455,l),
(164,601,o),
(223,697,o),
(385,697,cs),
(529,697,o),
(608,608,o),
(608,447,cs),
(608,289,ls),
(608,128,o),
(529,36,o),
(385,36,cs),
(228,36,o),
(164,125,o),
(164,286,c),
(121,316,l),
(130,88,o),
(203,-24,o),
(388,-24,cs)
);
}
);
width = 747;
},
{
anchors = (
{
name = bottom;
pos = (442,-574);
},
{
name = center;
pos = (220,369);
},
{
name = top;
pos = (442,206);
}
);
background = {
shapes = (
{
closed = 1;
nodes = (
(656,-21,o),
(830,66,o),
(830,359,cs),
(830,421,ls),
(830,712,o),
(663,801,o),
(508,801,cs),
(319,801,o),
(258,671,o),
(230,421,c),
(317,421,l),
(315,570,o),
(401,607,o),
(469,607,cs),
(534,607,o),
(605,563,o),
(605,421,cs),
(605,359,ls),
(605,218,o),
(534,173,o),
(469,173,cs),
(401,173,o),
(315,211,o),
(317,359,c),
(248,359,l),
(248,114,o),
(315,-21,o),
(503,-21,cs)
);
}
);
};
layerId = m005;
shapes = (
{
closed = 1;
nodes = (
(245,0,l),
(269,79,l),
(285,79,l),
(296,79,l),
(296,1071,l),
(85,1071,l),
(85,0,l)
);
},
{
closed = 1;
nodes = (
(612,-24,o),
(766,58,o),
(766,326,cs),
(766,407,ls),
(766,677,o),
(605,757,o),
(465,757,cs),
(292,757,o),
(230,632,o),
(230,423,c),
(294,423,l),
(292,542,o),
(370,578,o),
(433,578,cs),
(493,578,o),
(559,537,o),
(559,423,cs),
(559,309,ls),
(559,195,o),
(493,154,o),
(433,154,cs),
(370,154,o),
(292,189,o),
(294,309,c),
(218,309,l),
(243,95,o),
(296,-24,o),
(470,-24,cs)
);
}
);
width = 816;
},
{
anchors = (
{
name = bottom;
pos = (385,0);
},
{
name = center;
pos = (174,943);
},
{
name = top;
pos = (385,780);
}
);
layerId = "1B8EDE0E-D46F-48F9-B9C6-2CD34FEA95FD";
shapes = (
{
closed = 1;
nodes = (
(186,-5,l),
(202,58,l),
(218,58,l),
(225,58,l),
(225,1071,l),
(90,1071,l),
(90,-5,l)
);
},
{
closed = 1;
nodes = (
(582,-30,o),
(704,95,o),
(704,296,cs),
(704,433,ls),
(704,638,o),
(578,763,o),
(398,763,cs),
(258,763,o),
(160,652,o),
(172,468,c),
(225,441,l),
(225,577,o),
(286,643,o),
(398,643,cs),
(510,643,o),
(571,577,o),
(571,441,cs),
(571,306,ls),
(571,168,o),
(510,90,o),
(398,90,cs),
(289,90,o),
(225,168,o),
(225,306,c),
(155,283,l),
(172,72,o),
(231,-30,o),
(398,-30,cs)
);
}
);
width = 779;
}
);
metricLeft = n;
metricRight = o;
unicode = 98;
},
{
glyphname = c;
lastChange = "2025-11-28 10:18:34 +0000";
layers = (
{
anchors = (
{
name = bottom;
pos = (358,0);
},
{
name = top;
pos = (358,733);
}
);
layerId = m004;
shapes = (
{
closed = 1;
nodes = (
(492,-19,o),
(637,57,o),
(642,222,c),
(579,222,l),
(574,82,o),
(461,39,o),
(366,39,cs),
(264,39,o),
(135,90,o),
(138,287,cs),
(139,430,ls),
(141,643,o),
(264,693,o),
(366,693,cs),
(461,693,o),
(574,644,o),
(579,495,c),
(642,495,l),
(637,670,o),
(492,752,o),
(366,752,cs),
(232,752,o),
(79,673,o),
(76,432,cs),
(75,285,ls),
(79,60,o),
(232,-19,o),
(366,-19,cs)
);
}
);
width = 707;
},
{
anchors = (
{
name = bottom;
pos = (390,0);
},
{
name = top;
pos = (390,733);
}
);
layerId = m005;
shapes = (
{
closed = 1;
nodes = (
(599,-24,o),
(732,100,o),
(729,283,c),
(522,283,l),
(524,217,o),
(473,172,o),
(398,172,cs),
(312,172,o),
(257,232,o),
(257,325,cs),
(257,406,ls),
(257,500,o),
(312,560,o),
(398,560,cs),
(473,560,o),
(524,512,o),
(522,439,c),
(729,439,l),
(733,624,o),
(596,757,o),
(398,757,cs),
(191,757,o),
(50,614,o),
(50,406,cs),
(50,325,ls),
(50,115,o),
(187,-24,o),
(398,-24,cs)
);
}
);
width = 784;
},
{
anchors = (
{
name = bottom;
pos = (380,0);
},
{
name = top;
pos = (387,733);
}
);
layerId = "1B8EDE0E-D46F-48F9-B9C6-2CD34FEA95FD";
shapes = (
{
closed = 1;
nodes = (
(567,-30,o),
(698,81,o),
(696,240,c),
(563,240,l),
(562,146,o),
(497,91,o),
(389,91,cs),
(274,91,o),
(210,155,o),
(210,276,cs),
(210,454,ls),
(210,575,o),
(274,642,o),
(389,642,cs),
(497,642,o),
(561,587,o),
(563,493,c),
(695,493,l),
(696,633,o),
(575,763,o),
(389,763,cs),
(202,763,o),
(75,632,o),
(75,454,cs),
(75,276,ls),
(75,97,o),
(200,-30,o),
(389,-30,cs)
);
}
);
width = 764;
}
);
metricLeft = o;
unicode = 99;
},
{
glyphname = d;
lastChange = "2025-11-28 10:18:35 +0000";
layers = (
{
anchors = (
{
name = bottom;
pos = (325,0);
},
{
name = center;
pos = (516,943);
},
{
name = top;
pos = (325,806);
},
{
name = topright;
pos = (626,1178);
}
);
background = {
shapes = (
{
closed = 0;
nodes = (
(-18,314,ls),
(-16,116,o),
(99,-21,o),
(276,-21,cs),
(451,-21,o),
(580,120,o),
(584,331,c),
(539,333,l),
(535,158,o),
(429,42,o),
(276,42,cs),
(142,42,o),
(52,151,o),
(51,315,cs)
);
}
);
};
layerId = m004;
shapes = (
{
closed = 1;
nodes = (
(642,0,l),
(643,1070,l),
(580,1070,l),
(581,129,l),
(566,77,l),
(581,77,l),
(596,0,l)
);
},
{
closed = 1;
nodes = (
(536,-24,o),
(614,88,o),
(626,316,c),
(583,285,l),
(583,126,o),
(512,35,o),
(361,35,cs),
(209,35,o),
(139,129,o),
(139,289,cs),
(139,447,ls),
(139,608,o),
(209,699,o),
(361,699,cs),
(516,699,o),
(583,601,o),
(583,455,c),
(612,455,l),
(600,659,o),
(527,757,o),
(359,757,cs),
(190,757,o),
(75,661,o),
(75,444,cs),
(75,289,ls),
(75,72,o),
(190,-24,o),
(359,-24,cs)
);
}
);
width = 743;
},
{
anchors = (
{
name = bottom;
pos = (424,0);
},
{
name = center;
pos = (638,943);
},
{
name = top;
pos = (424,806);
},
{
name = topright;
pos = (766,1178);
}
);
layerId = m005;
shapes = (
{
closed = 1;
nodes = (
(732,0,l),
(732,1071,l),
(521,1071,l),
(521,79,l),
(532,79,l),
(548,79,l),
(572,0,l)
);
},
{
closed = 1;
nodes = (
(519,-24,o),
(572,95,o),
(597,310,c),
(521,310,l),
(522,189,o),
(444,155,o),
(382,155,cs),
(321,155,o),
(256,196,o),
(256,310,cs),
(256,422,ls),
(256,537,o),
(321,578,o),
(382,578,cs),
(444,578,o),
(522,542,o),
(521,422,c),
(585,422,l),
(585,631,o),
(522,757,o),
(349,757,cs),
(210,757,o),
(50,677,o),
(50,406,cs),
(50,326,ls),
(50,58,o),
(203,-24,o),
(346,-24,cs)
);
}
);
width = 817;
},
{
anchors = (
{
name = bottom;
pos = (308,0);
},
{
name = center;
pos = (516,943);
},
{
name = top;
pos = (308,806);
},
{
name = topright;
pos = (656,1179);
}
);
background = {
shapes = (
{
closed = 0;
nodes = (
(601,1179,l),
(448,1179,l)
);
}
);
};
layerId = "1B8EDE0E-D46F-48F9-B9C6-2CD34FEA95FD";
shapes = (
{
closed = 1;
nodes = (
(690,1071,l),
(555,1071,l),
(555,58,l),
(562,58,l),
(578,58,l),
(594,-5,l),
(690,-5,l)
);
},
{
closed = 1;
nodes = (
(549,-30,o),
(608,72,o),
(625,283,c),
(555,306,l),
(555,168,o),
(491,90,o),
(382,90,cs),
(270,90,o),
(209,168,o),
(209,306,cs),
(209,441,ls),
(209,577,o),
(270,643,o),
(382,643,cs),
(494,643,o),
(555,577,o),
(555,441,c),
(608,468,l),
(620,652,o),
(522,763,o),
(382,763,cs),
(202,763,o),
(75,638,o),
(75,433,cs),
(75,296,ls),
(75,95,o),
(198,-30,o),
(382,-30,cs)
);
}
);
width = 780;
}
);
metricLeft = "=|b";
metricRight = "=|b";
unicode = 100;
},
{
glyphname = e;
lastChange = "2025-11-28 10:18:37 +0000";
layers = (
{
anchors = (
{
name = bottom;
pos = (378,0);
},
{
name = ogonek;
pos = (724,10);
},
{
name = top;
pos = (378,733);
}
);
layerId = m004;
shapes = (
{
closed = 1;
nodes = (
(681,330,l),
(681,387,l),
(618,390,l),
(86,390,l),
(86,330,l)
);
},
{
closed = 1;
nodes = (
(551,-24,o),
(677,78,o),
(681,220,c),
(618,220,l),
(614,107,o),
(513,36,o),
(386,36,cs),
(241,36,o),
(137,129,o),
(138,286,cs),
(140,424,ls),
(142,608,o),
(228,698,o),
(386,698,cs),
(540,698,o),
(618,612,o),
(618,424,cs),
(618,380,l),
(681,380,l),
(681,424,ls),
(681,640,o),
(573,757,o),
(386,757,cs),
(196,757,o),
(77,634,o),
(77,425,cs),
(75,285,ls),
(73,101,o),
(203,-24,o),
(386,-24,cs)
);
}
);
width = 756;
},
{
anchors = (
{
name = bottom;
pos = (390,0);
},
{
name = ogonek;
pos = (706,10);
},
{
name = top;
pos = (390,733);
}
);
layerId = m005;
shapes = (
{
closed = 1;
nodes = (
(729,321,l),
(729,388,l),
(659,463,l),
(97,463,l),
(97,321,l)
);
},
{
closed = 1;
nodes = (
(583,-24,o),
(720,94,o),
(725,248,c),
(516,248,l),
(507,196,o),
(469,157,o),
(388,157,cs),
(313,157,o),
(255,224,o),
(255,321,cs),
(255,464,ls),
(255,535,o),
(306,578,o),
(388,578,cs),
(469,578,o),
(522,532,o),
(522,464,c),
(522,345,l),
(729,345,l),
(729,388,l),
(736,609,o),
(595,757,o),
(388,757,cs),
(183,757,o),
(50,614,o),
(50,407,cs),
(50,326,ls),
(50,58,o),
(245,-24,o),
(388,-24,cs)
);
}
);
width = 779;
},
{
anchors = (
{
name = bottom;
pos = (400,0);
},
{
name = ogonek;
pos = (720,10);
},
{
name = top;
pos = (399,733);
}
);
layerId = "1B8EDE0E-D46F-48F9-B9C6-2CD34FEA95FD";
shapes = (
{
closed = 1;
nodes = (
(725,301,l),
(725,402,l),
(669,421,l),
(195,421,l),
(195,301,l)
);
},
{
closed = 1;
nodes = (
(592,-30,o),
(716,88,o),
(725,243,c),
(589,243,l),
(582,160,o),
(511,91,o),
(399,91,cs),
(290,91,o),
(210,170,o),
(210,279,cs),
(210,431,ls),
(210,566,o),
(284,642,o),
(399,642,cs),
(511,642,o),
(589,572,o),
(589,431,cs),
(589,395,l),
(725,395,l),
(725,435,ls),
(725,638,o),
(589,763,o),
(399,763,cs),
(210,763,o),
(75,638,o),
(75,435,cs),
(75,279,ls),
(75,95,o),
(210,-30,o),
(399,-30,cs)
);
}
);
width = 800;
}
);
metricLeft = o;
metricRight = "=o";
unicode = 101;
},
{
glyphname = f;
lastChange = "2025-11-28 10:18:49 +0000";
layers = (
{
anchors = (
{
name = bottom;
pos = (216,0);
},
{
name = top;
pos = (216,1071);
}
);
layerId = m004;
shapes = (
{
closed = 1;
nodes = (
(201,0,l),
(201,676,l),
(373,676,l),
(373,733,l),
(201,733,l),
(201,931,ls),
(201,985,o),
(228,1013,o),
(278,1013,cs),
(388,1013,l),
(388,1071,l),
(280,1071,ls),
(187,1071,o),
(138,1022,o),
(138,930,cs),
(138,733,l),
(35,733,l),
(35,676,l),
(138,676,l),
(138,0,l)
);
}
);
width = 361;
},
{
anchors = (
{
name = bottom;
pos = (274,0);
},
{
name = top;
pos = (274,1071);
}
);
layerId = m005;
shapes = (
{
closed = 1;
nodes = (
(357,0,l),
(357,559,l),
(516,559,l),
(516,733,l),
(357,733,l),
(357,812,ls),
(357,863,o),
(377,885,o),
(421,885,cs),
(516,885,l),
(516,1075,l),
(345,1075,ls),
(236,1075,o),
(149,1005,o),
(149,867,cs),
(149,733,l),
(39,733,l),
(39,559,l),
(149,559,l),
(149,0,l)
);
}
);
width = 524;
},
{
anchors = (
{
name = bottom;
pos = (250,2);
},
{
name = top;
pos = (250,1073);
}
);
background = {
shapes = (
{
closed = 0;
nodes = (
(284,830,l),
(284,876,o),
(310,906,o),
(352,906,cs),
(427,906,l),
(427,1027,l),
(352,1027,ls),
(234,1027,o),
(149,967,o),
(149,812,c)
);
}
);
};
layerId = "1B8EDE0E-D46F-48F9-B9C6-2CD34FEA95FD";
shapes = (
{
closed = 1;
nodes = (
(285,-2,l),
(285,613,l),
(466,613,l),
(466,734,l),
(283,734,l),
(282,826,ls),
(281,873,o),
(310,903,o),
(352,903,cs),
(466,903,l),
(466,1024,l),
(352,1024,ls),
(234,1024,o),
(149,964,o),
(149,812,cs),
(149,734,l),
(45,734,l),
(45,613,l),
(150,613,l),
(150,-2,l)
);
}
);
width = 476;
}
);
unicode = 102;
},
{
glyphname = g;
lastChange = "2025-11-28 10:18:54 +0000";
layers = (
{
anchors = (
{
name = bottom;
pos = (410,-347);
},
{
name = top;
pos = (410,780);
}
);
layerId = m004;
shapes = (
{
closed = 1;
nodes = (
(558,245,o),
(689,317,o),
(689,499,cs),
(690,668,o),
(558,756,o),
(412,756,cs),
(268,756,o),
(137,668,o),
(137,499,cs),
(137,317,o),
(268,245,o),
(412,245,cs)
);
},
{
closed = 1;
nodes = (
(271,299,o),
(198,372,o),
(198,499,cs),
(198,610,o),
(271,700,o),
(412,700,cs),
(554,700,o),
(629,610,o),
(629,499,cs),
(629,372,o),
(554,299,o),
(412,299,cs)
);
},
{
closed = 1;
nodes = (
(469,26,l),
(469,62,l),
(319,62,ls),
(219,62,o),
(161,108,o),
(161,175,cs),
(161,257,o),
(194,279,o),
(257,339,c),
(216,377,l),
(164,316,o),
(99,268,o),
(99,171,cs),
(99,86,o),
(152,26,o),
(309,26,cs)
);
},
{
closed = 1;
nodes = (
(486,-309,ls),
(648,-309,o),
(705,-221,o),
(705,-123,cs),
(705,-26,o),
(648,62,o),
(486,62,cs),
(270,62,ls),
(107,62,o),
(50,-26,o),
(50,-123,cs),
(50,-221,o),
(107,-309,o),
(270,-309,cs)
);
},
{
closed = 1;
nodes = (
(168,-252,o),
(113,-214,o),
(113,-121,cs),
(113,-32,o),
(168,6,o),
(268,6,cs),
(487,6,ls),
(592,6,o),
(642,-34,o),
(642,-121,cs),
(642,-211,o),
(592,-252,o),
(487,-252,cs),
(268,-252,ls)
);
},
{
closed = 1;
nodes = (
(627,667,l),
(627,728,o),
(623,743,o),
(676,743,c),
(717,743,l),
(717,800,l),
(652,800,l),
(588,800,o),
(558,769,o),
(558,667,c)
);
}
);
width = 787;
},
{
anchors = (
{
name = bottom;
pos = (422,-172);
},
{
name = top;
pos = (422,955);
}
);
layerId = m005;
shapes = (
{
closed = 1;
nodes = (
(587,213,o),
(747,274,o),
(747,485,cs),
(747,695,o),
(576,757,o),
(433,757,cs),
(291,757,o),
(122,681,o),
(122,485,cs),
(122,274,o),
(282,213,o),
(433,213,cs)
);
},
{
closed = 1;
nodes = (
(370,375,o),
(322,409,o),
(322,486,cs),
(322,548,o),
(371,596,o),
(433,596,cs),
(495,596,o),
(546,548,o),
(546,486,cs),
(546,407,o),
(499,375,o),
(433,375,cs)
);
},
{
closed = 1;
nodes = (
(531,8,l),
(531,159,l),
(370,159,ls),
(304,159,o),
(226,170,o),
(226,231,cs),
(226,260,o),
(280,293,o),
(321,332,c),
(215,460,l),
(162,422,o),
(68,360,o),
(68,248,cs),
(68,131,o),
(143,57,o),
(321,34,cs)
);
},
{
closed = 1;
nodes = (
(482,-331,ls),
(714,-331,o),
(794,-202,o),
(794,-81,cs),
(794,57,o),
(713,161,o),
(482,161,cs),
(362,161,ls),
(150,161,o),
(50,59,o),
(50,-81,cs),
(50,-202,o),
(130,-331,o),
(362,-331,cs)
);
},
{
closed = 1;
nodes = (
(261,-144,o),
(241,-120,o),
(241,-81,cs),
(241,-42,o),
(261,-19,o),
(306,-19,cs),
(538,-19,ls),
(577,-19,o),
(604,-42,o),
(604,-81,cs),
(604,-120,o),
(577,-144,o),
(538,-144,cs),
(306,-144,ls)
);
},
{
closed = 1;
nodes = (
(676,599,l),
(669,641,o),
(682,677,o),
(785,668,c),
(785,726,l),
(785,810,l),
(785,850,l),
(579,863,o),
(487,708,o),
(500,599,c)
);
}
);
width = 844;
},
{
anchors = (
{
name = bottom;
pos = (285,-365);
},
{
name = top;
pos = (285,657);
}
);
layerId = "1B8EDE0E-D46F-48F9-B9C6-2CD34FEA95FD";
shapes = (
{
closed = 1;
nodes = (
(535,251,o),
(668,312,o),
(668,506,cs),
(668,697,o),
(526,763,o),
(389,763,cs),
(252,763,o),
(111,688,o),
(111,506,cs),
(111,312,o),
(244,251,o),
(389,251,cs)
);
},
{
closed = 1;
nodes = (
(296,358,o),
(237,404,o),
(237,508,cs),
(237,594,o),
(296,656,o),
(389,656,cs),
(484,656,o),
(540,594,o),
(540,508,cs),
(540,404,o),
(484,358,o),
(389,358,cs)
);
},
{
closed = 1;
nodes = (
(484,24,l),
(484,118,l),
(339,118,ls),
(255,118,o),
(194,174,o),
(194,217,cs),
(194,275,o),
(244,310,o),
(280,334,c),
(206,412,l),
(149,373,o),
(71,301,o),
(71,217,cs),
(71,147,o),
(130,42,o),
(295,33,cs)
);
},
{
closed = 1;
nodes = (
(479,-309,ls),
(658,-309,o),
(730,-204,o),
(730,-99,cs),
(730,20,o),
(658,119,o),
(479,119,cs),
(306,119,ls),
(138,119,o),
(55,20,o),
(55,-99,cs),
(55,-204,o),
(126,-309,o),
(306,-309,cs)
);
},
{
closed = 1;
nodes = (
(237,-194,o),
(187,-159,o),
(187,-95,cs),
(187,-20,o),
(237,5,o),
(301,5,cs),
(482,5,ls),
(547,5,o),
(597,-32,o),
(597,-95,cs),
(597,-147,o),
(547,-194,o),
(482,-194,cs),
(301,-194,ls)
);
},
{
closed = 1;
nodes = (
(577,675,l),
(577,720,o),
(589,748,o),
(680,748,c),
(680,773,l),
(680,847,l),
(680,873,l),
(531,873,o),
(471,770,o),
(471,675,c)
);
}
);
width = 770;
}
);
unicode = 103;
},
{
glyphname = h;
lastChange = "2025-11-28 10:12:42 +0000";
layers = (
{
anchors = (
{
name = bottom;
pos = (370,0);
},
{
name = center;
pos = (202,857);
},
{
name = top;
pos = (370,1071);
}
);
layerId = m004;
shapes = (
{
closed = 1;
nodes = (
(163,0,l),
(163,1071,l),
(100,1071,l),
(100,0,l)
);
},
{
closed = 1;
nodes = (
(163,422,l),
(163,596,o),
(248,693,o),
(391,693,cs),
(511,693,o),
(585,610,o),
(585,473,cs),
(585,0,l),
(648,0,l),
(648,484,ls),
(648,666,o),
(541,752,o),
(391,752,cs),
(207,752,o),
(134,632,o),
(134,422,c)
);
}
);
width = 740;
},
{
anchors = (
{
name = bottom;
pos = (416,-521);
},
{
name = center;
pos = (212,336);
},
{
name = top;
pos = (416,550);
}
);
layerId = m005;
shapes = (
{
closed = 1;
nodes = (
(296,0,l),
(296,1071,l),
(85,1071,l),
(85,0,l)
);
},
{
closed = 1;
nodes = (
(296,435,l),
(293,537,o),
(372,575,o),
(435,575,cs),
(493,575,o),
(557,542,o),
(557,406,cs),
(557,0,l),
(762,0,l),
(762,406,ls),
(762,673,o),
(604,752,o),
(463,752,cs),
(286,752,o),
(250,627,o),
(249,435,c)
);
}
);
width = 842;
},
{
anchors = (
{
name = bottom;
pos = (388,-208);
},
{
name = center;
pos = (189,650);
},
{
name = top;
pos = (388,864);
}
);
layerId = "1B8EDE0E-D46F-48F9-B9C6-2CD34FEA95FD";
shapes = (
{
closed = 1;
nodes = (
(229,0,l),
(229,1071,l),
(90,1071,l),
(90,0,l)
);
},
{
closed = 1;
nodes = (
(229,467,l),
(229,595,o),
(304,644,o),
(398,644,cs),
(492,644,o),
(566,595,o),
(566,467,cs),
(566,0,l),
(701,0,l),
(701,449,ls),
(701,686,o),
(561,763,o),
(420,763,cs),
(259,763,o),
(149,652,o),
(169,467,c)
);
}
);
width = 786;
}
);
metricLeft = n;
metricRight = n;
unicode = 104;
},
{
glyphname = i;
lastChange = "2025-11-28 10:19:12 +0000";
layers = (
{
anchors = (
{
name = bottom;
pos = (170,0);
}
);
layerId = m004;
shapes = (
{
closed = 1;
nodes = (
(293,-19,l),
(293,38,l),
(273,38,ls),
(225,38,o),
(195,47,o),
(195,129,c),
(195,733,l),
(132,733,l),
(132,112,l),
(132,13,o),
(183,-19,o),
(273,-19,cs)
);
},
{
closed = 1;
nodes = (
(195,834,o),
(214,854,o),
(214,886,cs),
(214,919,o),
(195,938,o),
(162,938,cs),
(130,938,o),
(110,919,o),
(110,886,cs),
(110,854,o),
(130,834,o),
(162,834,cs)
);
}
);
width = 353;
},
{
anchors = (
{
name = bottom;
pos = (216,0);
}
);
background = {
shapes = (
{
closed = 0;
nodes = (
(212,72,ls),
(181,72,o),
(171,86,o),
(171,109,cs)
);
}
);
};
layerId = m005;
shapes = (
{
closed = 1;
nodes = (
(371,0,l),
(371,194,l),
(344,194,ls),
(309,194,o),
(295,208,o),
(295,249,cs),
(297,733,l),
(86,733,l),
(84,205,ls),
(83,61,o),
(174,0,o),
(281,0,cs)
);
},
{
closed = 1;
nodes = (
(268,794,o),
(309,840,o),
(309,911,cs),
(309,980,o),
(267,1024,o),
(189,1024,cs),
(112,1024,o),
(70,980,o),
(70,911,cs),
(70,840,o),
(111,794,o),
(189,794,cs)
);
}
);
width = 446;
},
{
anchors = (
{
name = bottom;
pos = (167,-420);
}
);
layerId = "1B8EDE0E-D46F-48F9-B9C6-2CD34FEA95FD";
shapes = (
{
closed = 1;
nodes = (
(317,0,l),
(317,124,l),
(295,124,ls),
(247,124,o),
(219,151,o),
(219,203,cs),
(220,733,l),
(85,733,l),
(84,214,ls),
(84,60,o),
(170,0,o),
(287,0,cs)
);
},
{
closed = 1;
nodes = (
(207,851,o),
(240,883,o),
(240,937,cs),
(240,992,o),
(207,1024,o),
(152,1024,cs),
(96,1024,o),
(65,992,o),
(65,937,cs),
(65,883,o),
(96,851,o),
(152,851,cs)
);
}
);
width = 380;
}
);
unicode = 105;
},
{
glyphname = idotless;
lastChange = "2025-11-27 14:55:53 +0000";
layers = (
{
anchors = (
{
name = bottom;
pos = (179,0);
},
{
name = ogonek;
pos = (279,0);
},
{
name = top;
pos = (179,733);
}
);
layerId = m004;
shapes = (
{
closed = 1;
nodes = (
(279,-9,l),
(279,54,l),
(256,54,ls),
(205,54,o),
(172,64,o),
(172,154,c),
(172,789,l),
(102,789,l),
(102,135,l),
(102,26,o),
(158,-9,o),
(256,-9,cs)
);
}
);
width = 358;
},
{
anchors = (
{
name = bottom;
pos = (204,0);
},
{
name = ogonek;
pos = (317,0);
},
{
name = top;
pos = (154,733);
}
);
layerId = "1B8EDE0E-D46F-48F9-B9C6-2CD34FEA95FD";
shapes = (
{
closed = 1;
nodes = (
(317,0,l),
(317,124,l),
(295,124,ls),
(247,124,o),
(219,151,o),
(219,203,cs),
(220,733,l),
(85,733,l),
(84,214,ls),
(84,60,o),
(170,0,o),
(287,0,cs)
);
}
);
width = 380;
},
{
anchors = (
{
name = bottom;
pos = (251,0);
},
{
name = ogonek;
pos = (423,0);
},
{
name = top;
pos = (251,733);
}
);
layerId = m005;
shapes = (
{
closed = 1;
nodes = (
(423,0,l),
(423,198,l),
(324,198,ls),
(286,198,o),
(270,213,o),
(270,258,cs),
(272,780,l),
(40,780,l),
(38,288,ls),
(38,87,o),
(165,0,o),
(314,0,cs)
);
}
);
width = 501;
}
);
metricRight = i;
unicode = 305;
},
{
glyphname = j;
lastChange = "2025-11-27 17:49:18 +0000";
layers = (
{
layerId = m004;
shapes = (
{
closed = 1;
nodes = (
(157,-309,o),
(207,-277,o),
(207,-179,c),
(207,733,l),
(145,733,l),
(145,-162,l),
(145,-243,o),
(115,-252,o),
(68,-252,cs),
(-20,-252,l),
(-20,-309,l),
(68,-309,ls)
);
},
{
closed = 1;
nodes = (
(206,834,o),
(225,853,o),
(225,885,cs),
(225,917,o),
(206,937,o),
(174,937,cs),
(142,937,o),
(122,917,o),
(122,885,cs),
(122,853,o),
(142,834,o),
(174,834,cs)
);
}
);
width = 304;
},
{
background = {
shapes = (
{
closed = 0;
nodes = (
(138,-61,ls),
(138,-140,o),
(88,-173,o),
(29,-173,cs)
);
}
);
};
layerId = m005;
shapes = (
{
closed = 1;
nodes = (
(207,-309,o),
(293,-247,o),
(293,-104,cs),
(291,733,l),
(80,733,l),
(82,-53,ls),
(82,-97,o),
(68,-115,o),
(23,-115,cs),
(-55,-115,l),
(-55,-309,l),
(98,-309,ls)
);
},
{
closed = 1;
nodes = (
(266,794,o),
(306,841,o),
(306,911,cs),
(306,980,o),
(264,1023,o),
(188,1023,cs),
(110,1023,o),
(68,980,o),
(68,911,cs),
(68,841,o),
(110,794,o),
(188,794,cs)
);
}
);
width = 374;
},
{
layerId = "1B8EDE0E-D46F-48F9-B9C6-2CD34FEA95FD";
shapes = (
{
closed = 1;
nodes = (
(168,-309,o),
(253,-249,o),
(253,-94,c),
(253,733,l),
(118,733,l),
(118,-112,l),
(118,-158,o),
(92,-188,o),
(50,-188,cs),
(-25,-188,l),
(-25,-309,l),
(50,-309,ls)
);
},
{
closed = 1;
nodes = (
(237,851,o),
(270,883,o),
(270,937,cs),
(270,992,o),
(237,1024,o),
(182,1024,cs),
(126,1024,o),
(95,992,o),
(95,937,cs),
(95,883,o),
(126,851,o),
(182,851,cs)
);
}
);
width = 358;
}
);
unicode = 106;
},
{
glyphname = k;
lastChange = "2025-11-28 10:19:46 +0000";
layers = (
{
anchors = (
{
name = bottom;
pos = (397,0);
},
{
name = top;
pos = (397,1071);
}
);
layerId = m004;
shapes = (
{
closed = 1;
nodes = (
(100,0,l),
(163,0,l),
(163,1071,l),
(100,1071,l)
);
},
{
closed = 1;
nodes = (
(359,512,l),
(315,469,l),
(588,0,l),
(659,0,l)
);
},
{
closed = 1;
nodes = (
(160,252,l),
(616,733,l),
(532,733,l),
(124,299,l)
);
}
);
width = 729;
},
{
anchors = (
{
name = bottom;
pos = (384,0);
},
{
name = top;
pos = (384,1071);
}
);
layerId = m005;
shapes = (
{
closed = 1;
nodes = (
(85,0,l),
(296,0,l),
(296,1071,l),
(85,1071,l)
);
},
{
closed = 1;
nodes = (
(444,486,l),
(205,486,l),
(532,0,l),
(767,0,l)
);
},
{
closed = 1;
nodes = (
(258,254,l),
(737,733,l),
(482,733,l),
(118,351,l)
);
}
);
width = 846;
},
{
anchors = (
{
name = bottom;
pos = (340,0);
},
{
name = top;
pos = (340,1071);
}
);
layerId = "1B8EDE0E-D46F-48F9-B9C6-2CD34FEA95FD";
shapes = (
{
closed = 1;
nodes = (
(225,0,l),
(225,1071,l),
(90,1071,l),
(90,0,l)
);
},
{
closed = 1;
nodes = (
(685,0,l),
(399,488,l),
(253,479,l),
(536,0,l)
);
},
{
closed = 1;
nodes = (
(646,733,l),
(477,733,l),
(121,348,l),
(207,266,l)
);
}
);
width = 723;
}
);
metricLeft = n;
unicode = 107;
},
{
glyphname = l;
lastChange = "2025-11-28 10:19:50 +0000";
layers = (
{
anchors = (
{
name = bottom;
pos = (151,21);
},
{
name = center;
pos = (151,424);
},
{
name = top;
pos = (151,1199);
},
{
name = topright;
pos = (277,1199);
}
);
background = {
shapes = (
{
closed = 1;
nodes = (
(162,-9,l),
(162,17,l),
(146,17,ls),
(120,17,o),
(103,23,o),
(103,72,cs),
(103,589,l),
(74,589,l),
(74,63,ls),
(74,9,o),
(97,-9,o),
(146,-9,cs)
);
}
);
};
layerId = m004;
shapes = (
{
closed = 1;
nodes = (
(261,0,l),
(261,58,l),
(240,58,ls),
(193,58,o),
(163,66,o),
(163,148,c),
(163,1071,l),
(100,1071,l),
(100,131,l),
(100,32,o),
(150,0,o),
(240,0,cs)
);
}
);
width = 321;
},
{
anchors = (
{
name = bottom;
pos = (242,0);
},
{
name = center;
pos = (242,403);
},
{
name = top;
pos = (242,1178);
},
{
name = topright;
pos = (400,1178);
}
);
background = {
shapes = (
{
closed = 0;
nodes = (
(89,113,ls),
(89,34,o),
(138,0,o),
(197,0,cs)
);
}
);
};
layerId = m005;
shapes = (
{
closed = 1;
nodes = (
(371,0,l),
(371,194,l),
(345,194,ls),
(310,194,o),
(296,208,o),
(296,249,cs),
(296,1071,l),
(85,1071,l),
(85,205,ls),
(85,62,o),
(174,0,o),
(281,0,cs)
);
}
);
width = 446;
},
{
anchors = (
{
name = bottom;
pos = (179,0);
},
{
name = center;
pos = (179,403);
},
{
name = top;
pos = (179,1179);
},
{
name = topright;
pos = (335,1179);
}
);
layerId = "1B8EDE0E-D46F-48F9-B9C6-2CD34FEA95FD";
shapes = (
{
closed = 1;
nodes = (
(324,0,l),
(324,121,l),
(301,121,ls),
(253,121,o),
(225,147,o),
(225,200,c),
(225,1071,l),
(90,1071,l),
(90,218,l),
(90,62,o),
(175,0,o),
(292,0,cs)
);
}
);
width = 387;
}
);
metricLeft = "=n";
metricRight = i;
unicode = 108;
},
{
glyphname = lslash;
lastChange = "2025-11-26 14:44:30 +0000";
layers = (
{
layerId = m004;
shapes = (
{
ref = l;
},
{
closed = 1;
nodes = (
(58,471,l),
(314,561,l),
(314,621,l),
(58,531,l)
);
}
);
width = 219;
},
{
layerId = "1B8EDE0E-D46F-48F9-B9C6-2CD34FEA95FD";
shapes = (
{
ref = l;
},
{
closed = 1;
nodes = (
(37,468,l),
(355,573,l),
(355,715,l),
(37,610,l)
);
}
);
width = 244;
},
{
layerId = m005;
shapes = (
{
ref = l;
},
{
closed = 1;
nodes = (
(9,416,l),
(359,521,l),
(359,711,l),
(9,605,l)
);
}
);
width = 205;
}
);
unicode = 322;
},
{
glyphname = m;
lastChange = "2025-11-28 10:20:07 +0000";
layers = (
{
anchors = (
{
name = bottom;
pos = (633,0);
},
{
name = top;
pos = (633,806);
}
);
layerId = m004;
shapes = (
{
closed = 1;
nodes = (
(163,0,l),
(163,599,l),
(180,653,l),
(163,653,l),
(148,733,l),
(100,733,l),
(100,0,l)
);
},
{
closed = 1;
nodes = (
(620,0,l),
(620,487,ls),
(620,663,o),
(503,757,o),
(360,757,cs),
(204,757,o),
(145,631,o),
(135,476,c),
(163,476,l),
(163,615,o),
(256,698,o),
(360,698,cs),
(465,698,o),
(557,615,o),
(557,476,cs),
(557,0,l)
);
},
{
closed = 1;
nodes = (
(1076,0,l),
(1076,487,ls),
(1076,663,o),
(958,757,o),
(816,757,cs),
(661,757,o),
(590,631,o),
(590,476,c),
(620,476,l),
(620,615,o),
(711,698,o),
(816,698,cs),
(921,698,o),
(1012,615,o),
(1012,476,cs),
(1012,0,l)
);
}
);
width = 1168;
},
{
anchors = (
{
name = bottom;
pos = (695,0);
},
{
name = top;
pos = (695,806);
}
);
background = {
shapes = (
{
closed = 1;
nodes = (
(814,0,l),
(814,421,ls),
(814,714,o),
(658,801,o),
(491,801,cs),
(292,801,o),
(235,664,o),
(233,452,c),
(320,452,l),
(318,570,o),
(381,607,o),
(451,607,cs),
(520,607,o),
(583,567,o),
(583,452,cs),
(583,0,l)
);
}
);
};
layerId = m005;
shapes = (
{
closed = 1;
nodes = (
(297,0,l),
(297,654,l),
(286,654,l),
(270,654,l),
(245,733,l),
(85,733,l),
(85,0,l)
);
},
{
closed = 1;
nodes = (
(758,0,l),
(758,443,ls),
(758,641,o),
(644,757,o),
(480,757,cs),
(311,757,o),
(231,633,o),
(217,440,c),
(297,440,l),
(295,546,o),
(361,581,o),
(423,581,cs),
(487,581,o),
(553,543,o),
(553,440,cs),
(553,0,l)
);
},
{
closed = 1;
nodes = (
(1208,0,l),
(1208,411,ls),
(1208,678,o),
(1075,757,o),
(922,757,cs),
(741,757,o),
(681,633,o),
(679,440,c),
(758,440,l),
(756,546,o),
(814,581,o),
(877,581,cs),
(940,581,o),
(997,543,o),
(997,440,cs),
(997,0,l)
);
}
);
width = 1288;
},
{
anchors = (
{
name = bottom;
pos = (646,0);
},
{
name = top;
pos = (646,806);
}
);
layerId = "1B8EDE0E-D46F-48F9-B9C6-2CD34FEA95FD";
shapes = (
{
closed = 1;
nodes = (
(225,0,l),
(225,669,l),
(218,669,l),
(201,669,l),
(186,733,l),
(90,733,l),
(90,0,l)
);
},
{
closed = 1;
nodes = (
(668,0,l),
(668,469,ls),
(668,642,o),
(563,763,o),
(413,763,cs),
(256,763,o),
(150,636,o),
(168,469,c),
(225,454,l),
(225,595,o),
(309,644,o),
(379,644,cs),
(449,644,o),
(534,595,o),
(534,454,cs),
(534,0,l)
);
},
{
closed = 1;
nodes = (
(1111,0,l),
(1111,456,ls),
(1111,685,o),
(969,763,o),
(844,763,cs),
(712,763,o),
(606,676,o),
(601,469,c),
(668,454,l),
(668,580,o),
(752,644,o),
(822,644,cs),
(892,644,o),
(976,595,o),
(976,454,cs),
(976,0,l)
);
}
);
width = 1196;
}
);
metricLeft = "=n";
metricRight = "=n";
unicode = 109;
},
{
glyphname = n;
lastChange = "2025-11-28 10:12:32 +0000";
layers = (
{
anchors = (
{
name = bottom;
pos = (369,0);
},
{
name = top;
pos = (369,733);
}
);
background = {
shapes = (
{
closed = 0;
nodes = (
(219,404,ls),
(97,404,o),
(54,280,o),
(49,185,c)
);
}
);
};
layerId = m004;
shapes = (
{
closed = 1;
nodes = (
(162,466,l),
(162,607,o),
(239,698,o),
(375,698,cs),
(507,698,o),
(587,615,o),
(587,466,cs),
(587,0,l),
(650,0,l),
(650,464,ls),
(650,668,o),
(546,756,o),
(375,756,cs),
(247,756,o),
(122,658,o),
(134,466,c)
);
},
{
closed = 1;
nodes = (
(163,0,l),
(163,599,l),
(179,653,l),
(163,653,l),
(147,732,l),
(100,732,l),
(100,0,l)
);
}
);
width = 742;
},
{
anchors = (
{
name = bottom;
pos = (459,0);
},
{
name = top;
pos = (459,733);
}
);
background = {
shapes = (
{
closed = 0;
nodes = (
(701,265,ls),
(701,374,o),
(649,404,o),
(558,404,cs)
);
}
);
};
layerId = m005;
shapes = (
{
closed = 1;
nodes = (
(296,430,l),
(296,543,o),
(363,581,o),
(426,581,cs),
(489,581,o),
(560,543,o),
(560,430,cs),
(560,0,l),
(768,0,l),
(768,410,ls),
(768,631,o),
(675,757,o),
(480,757,cs),
(328,757,o),
(261,677,o),
(249,430,c)
);
},
{
closed = 1;
nodes = (
(296,0,l),
(296,654,l),
(285,654,l),
(269,654,l),
(245,733,l),
(85,733,l),
(85,0,l)
);
}
);
width = 848;
},
{
anchors = (
{
name = bottom;
pos = (391,0);
},
{
name = top;
pos = (412,733);
}
);
layerId = "1B8EDE0E-D46F-48F9-B9C6-2CD34FEA95FD";
shapes = (
{
closed = 1;
nodes = (
(225,457,l),
(225,595,o),
(300,644,o),
(394,644,cs),
(488,644,o),
(562,595,o),
(562,457,cs),
(562,0,l),
(697,0,l),
(697,449,ls),
(697,686,o),
(557,763,o),
(416,763,cs),
(255,763,o),
(145,652,o),
(165,457,c)
);
},
{
closed = 1;
nodes = (
(90,733,l),
(90,0,l),
(225,0,l),
(225,672,l),
(217,672,l),
(202,672,l),
(187,733,l)
);
}
);
width = 782;
}
);
unicode = 110;
},
{
glyphname = o;
lastChange = "2025-11-27 18:09:02 +0000";
layers = (
{
anchors = (
{
name = bottom;
pos = (368,0);
},
{
name = center;
pos = (368,390);
},
{
name = ogonek;
pos = (668,9);
},
{
name = top;
pos = (368,780);
},
{
name = topright;
pos = (725,780);
}
);
layerId = m004;
shapes = (
{
closed = 1;
nodes = (
(264,40,o),
(139,90,o),
(139,276,cs),
(139,440,ls),
(139,643,o),
(264,692,o),
(368,692,cs),
(464,692,o),
(597,643,o),
(597,440,cs),
(597,276,ls),
(597,90,o),
(464,40,o),
(368,40,cs)
);
},
{
closed = 1;
nodes = (
(497,-18,o),
(661,65,o),
(661,274,cs),
(661,442,ls),
(661,668,o),
(497,751,o),
(368,751,cs),
(232,751,o),
(75,671,o),
(75,442,cs),
(75,274,ls),
(75,62,o),
(232,-18,o),
(368,-18,cs)
);
}
);
width = 736;
},
{
anchors = (
{
name = bottom;
pos = (436,10);
},
{
name = center;
pos = (436,400);
},
{
name = ogonek;
pos = (779,28);
},
{
name = top;
pos = (436,790);
},
{
name = topright;
pos = (831,790);
}
);
layerId = m005;
shapes = (
{
closed = 1;
nodes = (
(340,156,o),
(259,199,o),
(259,299,cs),
(259,444,ls),
(259,542,o),
(340,577,o),
(401,577,cs),
(463,577,o),
(544,542,o),
(544,444,cs),
(544,299,ls),
(544,199,o),
(463,156,o),
(401,156,cs)
);
},
{
closed = 1;
nodes = (
(554,-34,o),
(753,52,o),
(753,309,cs),
(753,433,ls),
(753,690,o),
(539,767,o),
(401,767,cs),
(249,767,o),
(50,693,o),
(50,433,cs),
(50,309,ls),
(50,52,o),
(249,-34,o),
(401,-34,cs)
);
}
);
width = 803;
},
{
anchors = (
{
name = bottom;
pos = (393,10);
},
{
name = center;
pos = (393,400);
},
{
name = ogonek;
pos = (722,28);
},
{
name = top;
pos = (395,733);
},
{
name = topright;
pos = (770,790);
}
);
layerId = "1B8EDE0E-D46F-48F9-B9C6-2CD34FEA95FD";
shapes = (
{
closed = 1;
nodes = (
(293,91,o),
(208,161,o),
(208,280,cs),
(208,451,ls),
(208,570,o),
(293,642,o),
(395,642,cs),
(497,642,o),
(579,570,o),
(579,451,cs),
(579,280,ls),
(579,161,o),
(497,91,o),
(395,91,cs)
);
},
{
closed = 1;
nodes = (
(577,-30,o),
(712,100,o),
(712,280,cs),
(712,451,ls),
(712,631,o),
(577,763,o),
(395,763,cs),
(213,763,o),
(75,631,o),
(75,451,cs),
(75,280,ls),
(75,97,o),
(213,-30,o),
(395,-30,cs)
);
}
);
width = 787;
}
);
metricRight = "=|";
unicode = 111;
},
{
glyphname = oslash;
lastChange = "2025-11-27 15:24:51 +0000";
layers = (
{
anchors = (
{
name = top;
pos = (218,709);
}
);
layerId = m004;
shapes = (
{
ref = o;
},
{
closed = 1;
nodes = (
(154,9,l),
(655,718,l),
(573,717,l),
(72,9,l)
);
}
);
width = 787;
},
{
anchors = (
{
name = top;
pos = (377,718);
}
);
layerId = "1B8EDE0E-D46F-48F9-B9C6-2CD34FEA95FD";
shapes = (
{
ref = o;
},
{
closed = 1;
nodes = (
(225,9,l),
(689,718,l),
(526,718,l),
(63,9,l)
);
}
);
width = 775;
},
{
anchors = (
{
name = top;
pos = (377,718);
}
);
layerId = m005;
shapes = (
{
ref = o;
},
{
closed = 1;
nodes = (
(214,9,l),
(755,718,l),
(555,718,l),
(14,9,l)
);
}
);
width = 773;
}
);
metricRight = "=|";
unicode = 248;
},
{
glyphname = p;
lastChange = "2025-11-28 10:20:11 +0000";
layers = (
{
anchors = (
{
name = bottom;
pos = (373,6);
},
{
name = top;
pos = (373,738);
}
);
layerId = m004;
shapes = (
{
closed = 1;
nodes = (
(162,-309,l),
(162,605,l),
(179,659,l),
(162,659,l),
(147,738,l),
(100,738,l),
(100,-309,l)
);
},
{
closed = 1;
nodes = (
(198,757,o),
(121,644,o),
(116,417,c),
(159,447,l),
(159,608,o),
(223,698,o),
(381,698,cs),
(524,698,o),
(603,604,o),
(603,444,cs),
(603,286,ls),
(603,125,o),
(524,35,o),
(381,35,cs),
(218,35,o),
(159,133,o),
(159,279,c),
(130,279,l),
(143,75,o),
(207,-24,o),
(383,-24,cs),
(544,-24,o),
(666,72,o),
(666,290,cs),
(666,444,ls),
(666,662,o),
(544,757,o),
(383,757,cs)
);
}
);
width = 741;
},
{
anchors = (
{
name = bottom;
pos = (426,0);
},
{
name = top;
pos = (426,806);
}
);
background = {
shapes = (
{
closed = 1;
nodes = (
(371,-10,o),
(457,33,o),
(457,179,cs),
(457,211,ls),
(457,356,o),
(370,400,o),
(287,400,cs),
(196,400,o),
(157,335,o),
(157,226,c),
(201,226,l),
(200,285,o),
(235,303,o),
(268,303,cs),
(301,303,o),
(345,286,o),
(345,211,cs),
(345,179,ls),
(345,105,o),
(301,87,o),
(268,87,cs),
(235,87,o),
(200,106,o),
(201,164,c),
(166,164,l),
(166,57,o),
(209,-10,o),
(287,-10,cs)
);
}
);
};
layerId = m005;
shapes = (
{
closed = 1;
nodes = (
(296,-309,l),
(296,654,l),
(285,654,l),
(269,654,l),
(245,733,l),
(85,733,l),
(85,-309,l)
);
},
{
closed = 1;
nodes = (
(298,757,o),
(246,637,o),
(220,423,c),
(296,423,l),
(294,544,o),
(373,578,o),
(436,578,cs),
(496,578,o),
(562,537,o),
(562,423,cs),
(562,309,ls),
(562,196,o),
(496,154,o),
(436,154,cs),
(373,154,o),
(294,189,o),
(296,309,c),
(233,309,l),
(233,99,o),
(294,-24,o),
(468,-24,cs),
(609,-24,o),
(770,56,o),
(770,325,cs),
(770,406,ls),
(770,675,o),
(616,757,o),
(473,757,cs)
);
}
);
width = 820;
},
{
anchors = (
{
name = bottom;
pos = (413,0);
},
{
name = top;
pos = (413,806);
}
);
layerId = "1B8EDE0E-D46F-48F9-B9C6-2CD34FEA95FD";
shapes = (
{
closed = 1;
nodes = (
(225,670,l),
(217,670,l),
(201,670,l),
(186,733,l),
(90,733,l),
(90,-309,l),
(225,-309,l)
);
},
{
closed = 1;
nodes = (
(242,763,o),
(164,658,o),
(155,437,c),
(225,437,l),
(225,576,o),
(293,643,o),
(392,643,cs),
(503,643,o),
(571,566,o),
(571,437,cs),
(571,291,ls),
(571,165,o),
(503,89,o),
(392,89,cs),
(290,89,o),
(225,165,o),
(225,291,c),
(170,291,l),
(176,75,o),
(260,-30,o),
(419,-30,cs),
(598,-30,o),
(704,94,o),
(704,298,cs),
(704,437,ls),
(704,638,o),
(593,763,o),
(411,763,cs)
);
}
);
width = 779;
}
);
metricLeft = "=n";
metricRight = o;
unicode = 112;
},
{
glyphname = q;
lastChange = "2025-11-28 10:20:13 +0000";
layers = (
{
anchors = (
{
name = bottom;
pos = (372,6);
},
{
name = top;
pos = (372,738);
}
);
layerId = m004;
shapes = (
{
closed = 1;
nodes = (
(646,-309,l),
(646,733,l),
(597,733,l),
(582,654,l),
(566,654,l),
(582,600,l),
(582,-309,l)
);
},
{
closed = 1;
nodes = (
(197,757,o),
(75,662,o),
(75,444,cs),
(75,290,ls),
(75,72,o),
(197,-23,o),
(358,-23,cs),
(534,-23,o),
(598,75,o),
(610,279,c),
(582,279,l),
(582,133,o),
(523,36,o),
(360,36,cs),
(217,36,o),
(138,126,o),
(138,286,cs),
(138,444,ls),
(138,604,o),
(217,698,o),
(360,698,cs),
(519,698,o),
(582,608,o),
(582,447,c),
(626,418,l),
(621,645,o),
(544,757,o),
(358,757,cs)
);
}
);
width = 738;
},
{
anchors = (
{
name = bottom;
pos = (1112,0);
},
{
name = top;
pos = (1112,806);
}
);
layerId = m005;
shapes = (
{
closed = 1;
nodes = (
(735,733,l),
(575,733,l),
(551,654,l),
(535,654,l),
(524,654,l),
(524,-309,l),
(735,-309,l)
);
},
{
closed = 1;
nodes = (
(204,757,o),
(50,675,o),
(50,406,cs),
(50,325,ls),
(50,56,o),
(211,-24,o),
(352,-24,cs),
(526,-24,o),
(587,99,o),
(587,309,c),
(524,309,l),
(526,189,o),
(447,154,o),
(384,154,cs),
(324,154,o),
(258,196,o),
(258,309,cs),
(258,423,ls),
(258,537,o),
(324,578,o),
(384,578,cs),
(447,578,o),
(526,544,o),
(524,423,c),
(600,423,l),
(574,637,o),
(522,757,o),
(347,757,cs)
);
}
);
width = 815;
},
{
anchors = (
{
name = bottom;
pos = (391,0);
},
{
name = top;
pos = (391,806);
}
);
layerId = "1B8EDE0E-D46F-48F9-B9C6-2CD34FEA95FD";
shapes = (
{
closed = 1;
nodes = (
(689,-309,l),
(689,733,l),
(593,733,l),
(578,670,l),
(562,670,l),
(554,670,l),
(554,-309,l)
);
},
{
closed = 1;
nodes = (
(186,763,o),
(75,638,o),
(75,437,cs),
(75,298,ls),
(75,94,o),
(181,-30,o),
(360,-30,cs),
(519,-30,o),
(603,75,o),
(609,291,c),
(554,291,l),
(554,165,o),
(489,89,o),
(387,89,cs),
(276,89,o),
(208,165,o),
(208,291,cs),
(208,437,ls),
(208,566,o),
(276,643,o),
(387,643,cs),
(486,643,o),
(554,576,o),
(554,437,c),
(624,437,l),
(615,658,o),
(537,763,o),
(368,763,cs)
);
}
);
width = 774;
}
);
metricLeft = "=o";
metricRight = "=n";
unicode = 113;
},
{
glyphname = r;
lastChange = "2025-11-28 10:20:15 +0000";
layers = (
{
anchors = (
{
name = bottom;
pos = (206,0);
},
{
name = top;
pos = (206,711);
}
);
layerId = m004;
shapes = (
{
closed = 1;
nodes = (
(162,426,l),
(162,597,o),
(236,674,o),
(342,674,c),
(369,674,l),
(369,733,l),
(342,733,l),
(187,733,o),
(126,605,o),
(126,426,c)
);
},
{
closed = 1;
nodes = (
(163,0,l),
(163,600,l),
(179,654,l),
(163,654,l),
(147,733,l),
(100,733,l),
(100,0,l)
);
}
);
width = 391;
},
{
anchors = (
{
name = bottom;
pos = (300,0);
},
{
name = top;
pos = (300,780);
}
);
background = {
shapes = (
{
closed = 1;
nodes = (
(444,0,l),
(444,221,ls),
(444,360,o),
(356,400,o),
(280,400,cs),
(207,400,o),
(148,358,o),
(144,247,c),
(188,247,l),
(191,303,o),
(231,324,o),
(268,324,cs),
(306,324,o),
(358,303,o),
(358,221,cs),
(358,0,l)
);
}
);
};
layerId = m005;
shapes = (
{
closed = 1;
nodes = (
(297,346,l),
(297,525,o),
(346,544,o),
(462,544,cs),
(513,544,l),
(513,733,l),
(462,733,ls),
(247,733,o),
(237,569,o),
(231,346,c)
);
},
{
closed = 1;
nodes = (
(296,0,l),
(296,654,l),
(285,654,l),
(269,654,l),
(245,733,l),
(85,733,l),
(85,0,l)
);
}
);
width = 643;
},
{
anchors = (
{
name = bottom;
pos = (237,0);
},
{
name = top;
pos = (237,709);
}
);
layerId = "1B8EDE0E-D46F-48F9-B9C6-2CD34FEA95FD";
shapes = (
{
closed = 1;
nodes = (
(225,396,l),
(225,564,o),
(296,612,o),
(410,612,c),
(445,612,l),
(445,733,l),
(401,733,l),
(218,733,o),
(108,601,o),
(155,396,c)
);
},
{
closed = 1;
nodes = (
(225,0,l),
(225,669,l),
(217,669,l),
(201,669,l),
(185,733,l),
(90,733,l),
(90,0,l)
);
}
);
width = 511;
}
);
metricLeft = "=n";
unicode = 114;
},
{
glyphname = s;
lastChange = "2025-11-28 10:20:27 +0000";
layers = (
{
anchors = (
{
name = bottom;
pos = (315,0);
},
{
name = top;
pos = (315,709);
}
);
layerId = m004;
shapes = (
{
closed = 1;
nodes = (
(475,-19,o),
(569,41,o),
(569,170,cs),
(569,299,o),
(455,340,o),
(327,397,cs),
(223,443,o),
(163,492,o),
(163,578,cs),
(163,655,o),
(221,695,o),
(316,695,cs),
(410,695,o),
(484,660,o),
(484,555,c),
(547,555,l),
(547,704,o),
(427,752,o),
(316,752,cs),
(196,752,o),
(100,684,o),
(100,572,cs),
(100,466,o),
(162,401,o),
(301,342,cs),
(417,292,o),
(506,258,o),
(506,167,cs),
(506,49,o),
(401,38,o),
(331,38,cs),
(236,38,o),
(144,91,o),
(138,214,c),
(75,214,l),
(79,60,o),
(206,-19,o),
(331,-19,cs)
);
}
);
width = 654;
},
{
anchors = (
{
name = bottom;
pos = (320,9);
},
{
name = top;
pos = (320,718);
}
);
layerId = m005;
shapes = (
{
closed = 1;
nodes = (
(516,-24,o),
(610,78,o),
(610,181,cs),
(610,317,o),
(552,356,o),
(406,424,cs),
(305,472,o),
(252,488,o),
(252,545,cs),
(252,592,o),
(280,608,o),
(327,608,cs),
(383,608,o),
(414,570,o),
(406,498,c),
(611,498,l),
(622,712,o),
(435,757,o),
(327,757,cs),
(222,757,o),
(53,714,o),
(53,550,cs),
(53,437,o),
(105,366,o),
(248,305,cs),
(351,262,o),
(399,239,o),
(399,203,cs),
(399,178,o),
(383,147,o),
(331,147,cs),
(261,147,o),
(228,179,o),
(233,272,c),
(30,272,l),
(23,87,o),
(108,-24,o),
(336,-24,cs)
);
}
);
width = 643;
},
{
anchors = (
{
name = bottom;
pos = (332,0);
},
{
name = top;
pos = (332,701);
}
);
layerId = "1B8EDE0E-D46F-48F9-B9C6-2CD34FEA95FD";
shapes = (
{
closed = 1;
nodes = (
(500,-30,o),
(594,59,o),
(594,181,cs),
(594,269,o),
(546,337,o),
(408,405,cs),
(311,453,o),
(212,478,o),
(212,545,cs),
(212,598,o),
(265,641,o),
(333,641,cs),
(410,641,o),
(458,601,o),
(458,537,c),
(592,537,l),
(592,664,o),
(491,764,o),
(333,764,cs),
(175,764,o),
(81,660,o),
(81,546,cs),
(81,395,o),
(240,341,o),
(316,306,cs),
(376,278,o),
(470,226,o),
(470,171,cs),
(470,110,o),
(413,82,o),
(342,82,cs),
(253,82,o),
(192,124,o),
(184,219,c),
(63,219,l),
(72,51,o),
(171,-30,o),
(345,-30,cs)
);
}
);
width = 665;
}
);
unicode = 115;
},
{
glyphname = t;
lastChange = "2025-11-27 17:51:27 +0000";
layers = (
{
anchors = (
{
name = bottom;
pos = (236,0);
},
{
name = center;
pos = (236,354);
},
{
name = top;
pos = (236,862);
},
{
name = topright;
pos = (419,1071);
}
);
layerId = m004;
shapes = (
{
closed = 1;
nodes = (
(369,0,l),
(369,57,l),
(290,57,ls),
(243,57,o),
(213,66,o),
(213,148,c),
(213,885,l),
(150,885,l),
(150,131,l),
(150,32,o),
(200,0,o),
(290,0,cs)
);
},
{
closed = 1;
nodes = (
(369,676,l),
(369,733,l),
(63,733,l),
(63,676,l)
);
}
);
width = 430;
},
{
anchors = (
{
name = bottom;
pos = (288,0);
},
{
name = center;
pos = (288,354);
},
{
name = top;
pos = (288,885);
},
{
name = topright;
pos = (561,1071);
}
);
layerId = m005;
shapes = (
{
closed = 1;
nodes = (
(515,0,l),
(515,194,l),
(392,194,ls),
(358,194,o),
(343,208,o),
(343,249,cs),
(345,909,l),
(134,909,l),
(132,208,ls),
(132,61,o),
(222,0,o),
(329,0,cs)
);
},
{
closed = 1;
nodes = (
(515,559,l),
(515,733,l),
(16,733,l),
(16,558,l)
);
}
);
width = 594;
},
{
anchors = (
{
name = bottom;
pos = (287,0);
},
{
name = center;
pos = (287,354);
},
{
name = top;
pos = (241,901);
},
{
name = topright;
pos = (537,1071);
}
);
layerId = "1B8EDE0E-D46F-48F9-B9C6-2CD34FEA95FD";
shapes = (
{
closed = 1;
nodes = (
(471,0,l),
(471,124,l),
(377,124,ls),
(329,124,o),
(303,151,o),
(303,203,c),
(304,901,l),
(169,901,l),
(168,214,l),
(168,60,o),
(254,0,o),
(369,0,cs)
);
},
{
closed = 1;
nodes = (
(471,612,l),
(471,733,l),
(55,733,l),
(55,612,l)
);
}
);
width = 542;
}
);
unicode = 116;
},
{
glyphname = u;
lastChange = "2025-11-28 10:20:30 +0000";
layers = (
{
anchors = (
{
name = bottom;
pos = (375,0);
},
{
name = ogonek;
pos = (736,10);
},
{
name = top;
pos = (375,733);
},
{
name = topright;
pos = (806,733);
}
);
layerId = m004;
shapes = (
{
closed = 1;
nodes = (
(581,276,l),
(581,100,o),
(495,34,o),
(351,34,cs),
(205,34,o),
(156,144,o),
(156,273,cs),
(156,733,l),
(92,733,l),
(92,279,ls),
(92,129,o),
(149,-24,o),
(351,-24,cs),
(536,-24,o),
(593,65,o),
(610,276,c)
);
},
{
closed = 1;
nodes = (
(644,0,l),
(644,733,l),
(580,733,l),
(580,134,l),
(565,80,l),
(580,80,l),
(596,0,l)
);
}
);
width = 744;
},
{
anchors = (
{
name = bottom;
pos = (389,0);
},
{
name = ogonek;
pos = (758,10);
},
{
name = top;
pos = (389,733);
},
{
name = topright;
pos = (830,733);
}
);
layerId = m005;
shapes = (
{
closed = 1;
nodes = (
(552,304,l),
(552,188,o),
(485,153,o),
(422,153,cs),
(359,153,o),
(288,188,o),
(288,304,cs),
(288,733,l),
(80,733,l),
(80,324,ls),
(80,56,o),
(236,-24,o),
(384,-24,cs),
(570,-24,o),
(590,102,o),
(600,304,c)
);
},
{
closed = 1;
nodes = (
(763,0,l),
(763,733,l),
(553,733,l),
(553,79,l),
(564,79,l),
(580,79,l),
(603,0,l)
);
}
);
width = 848;
},
{
anchors = (
{
name = bottom;
pos = (391,0);
},
{
name = ogonek;
pos = (704,10);
},
{
name = top;
pos = (376,733);
},
{
name = topright;
pos = (762,733);
}
);
layerId = "1B8EDE0E-D46F-48F9-B9C6-2CD34FEA95FD";
shapes = (
{
closed = 1;
nodes = (
(557,276,l),
(557,138,o),
(482,89,o),
(388,89,cs),
(294,89,o),
(220,138,o),
(220,276,cs),
(220,733,l),
(85,733,l),
(85,284,ls),
(85,47,o),
(225,-30,o),
(366,-30,cs),
(527,-30,o),
(637,81,o),
(617,276,c)
);
},
{
closed = 1;
nodes = (
(692,0,l),
(692,733,l),
(557,733,l),
(557,61,l),
(565,61,l),
(580,61,l),
(595,0,l)
);
}
);
width = 782;
}
);
metricLeft = "=|n";
metricRight = "=|n";
unicode = 117;
},
{
glyphname = v;
lastChange = "2025-11-27 17:51:36 +0000";
layers = (
{
anchors = (
{
name = bottom;
pos = (304,0);
},
{
name = top;
pos = (304,711);
}
);
layerId = m004;
shapes = (
{
closed = 1;
nodes = (
(276,0,l),
(330,0,l),
(577,733,l),
(512,733,l),
(287,52,l),
(321,52,l),
(93,733,l),
(30,733,l)
);
}
);
width = 607;
},
{
anchors = (
{
name = bottom;
pos = (422,0);
},
{
name = top;
pos = (422,780);
}
);
layerId = m005;
shapes = (
{
closed = 1;
nodes = (
(294,0,l),
(474,0,l),
(764,733,l),
(552,733,l),
(315,92,l),
(451,92,l),
(228,733,l),
(4,733,l)
);
}
);
width = 768;
},
{
anchors = (
{
name = bottom;
pos = (393,-1);
},
{
name = top;
pos = (393,779);
}
);
layerId = "1B8EDE0E-D46F-48F9-B9C6-2CD34FEA95FD";
shapes = (
{
closed = 1;
nodes = (
(309,0,l),
(412,0,l),
(691,733,l),
(546,733,l),
(332,95,l),
(388,95,l),
(175,733,l),
(30,733,l)
);
}
);
width = 721;
}
);
metricRight = "=|";
unicode = 118;
},
{
glyphname = w;
lastChange = "2025-11-27 17:51:39 +0000";
layers = (
{
anchors = (
{
name = bottom;
pos = (517,0);
},
{
name = top;
pos = (517,711);
}
);
layerId = m004;
shapes = (
{
closed = 1;
nodes = (
(314,0,l),
(526,681,l),
(507,681,l),
(719,0,l),
(773,0,l),
(1004,733,l),
(940,733,l),
(727,49,l),
(765,47,l),
(554,733,l),
(479,733,l),
(270,52,l),
(306,52,l),
(93,733,l),
(30,733,l),
(261,0,l)
);
}
);
width = 1034;
},
{
anchors = (
{
name = bottom;
pos = (614,0);
},
{
name = top;
pos = (614,780);
}
);
layerId = m005;
shapes = (
{
closed = 1;
nodes = (
(430,0,l),
(610,594,l),
(505,594,l),
(706,0,l),
(901,0,l),
(1114,733,l),
(911,733,l),
(758,137,l),
(842,137,l),
(655,733,l),
(463,733,l),
(291,137,l),
(381,137,l),
(210,733,l),
(4,733,l),
(233,0,l)
);
}
);
width = 1118;
},
{
anchors = (
{
name = bottom;
pos = (597,-1);
},
{
name = top;
pos = (597,779);
}
);
layerId = "1B8EDE0E-D46F-48F9-B9C6-2CD34FEA95FD";
shapes = (
{
closed = 1;
nodes = (
(375,0,l),
(564,602,l),
(528,602,l),
(731,0,l),
(843,0,l),
(1064,733,l),
(921,733,l),
(769,128,l),
(803,128,l),
(608,733,l),
(487,733,l),
(302,128,l),
(335,128,l),
(173,733,l),
(30,733,l),
(262,0,l)
);
}
);
width = 1094;
}
);
metricLeft = "=v";
metricRight = "=|";
unicode = 119;
},
{
glyphname = x;
lastChange = "2025-11-27 17:51:49 +0000";
layers = (
{
anchors = (
{
name = bottom;
pos = (387,-1);
},
{
name = top;
pos = (387,779);
}
);
layerId = m004;
shapes = (
{
closed = 1;
nodes = (
(650,0,l),
(149,733,l),
(76,733,l),
(577,0,l)
);
},
{
closed = 1;
nodes = (
(380,344,l),
(632,733,l),
(559,733,l),
(342,394,l)
);
},
{
closed = 1;
nodes = (
(141,0,l),
(373,344,l),
(335,394,l),
(68,0,l)
);
}
);
width = 710;
},
{
anchors = (
{
name = bottom;
pos = (440,-1);
},
{
name = top;
pos = (440,779);
}
);
layerId = m005;
shapes = (
{
closed = 1;
nodes = (
(794,1,l),
(257,732,l),
(9,732,l),
(545,1,l)
);
},
{
closed = 1;
nodes = (
(466,281,l),
(784,732,l),
(545,732,l),
(335,433,l)
);
},
{
closed = 1;
nodes = (
(250,1,l),
(483,319,l),
(352,469,l),
(9,1,l)
);
}
);
width = 803;
},
{
anchors = (
{
name = bottom;
pos = (374,0);
},
{
name = top;
pos = (374,709);
}
);
layerId = "1B8EDE0E-D46F-48F9-B9C6-2CD34FEA95FD";
shapes = (
{
closed = 1;
nodes = (
(704,0,l),
(197,733,l),
(42,733,l),
(548,0,l)
);
},
{
closed = 1;
nodes = (
(418,311,l),
(709,733,l),
(554,733,l),
(336,418,l)
);
},
{
closed = 1;
nodes = (
(326,418,l),
(37,0,l),
(193,0,l),
(408,311,l)
);
}
);
width = 746;
}
);
metricRight = "=|";
unicode = 120;
},
{
glyphname = y;
lastChange = "2025-11-28 10:20:59 +0000";
layers = (
{
anchors = (
{
name = bottom;
pos = (341,0);
},
{
name = top;
pos = (341,780);
}
);
background = {
shapes = (
{
closed = 1;
nodes = (
(277,0,l),
(336,0,l),
(607,806,l),
(536,806,l),
(289,57,l),
(326,57,l),
(76,806,l),
(7,806,l)
);
}
);
};
layerId = m004;
shapes = (
{
closed = 1;
nodes = (
(65,-309,l),
(192,-309,o),
(240,-270,o),
(277,-160,cs),
(577,731,l),
(513,733,l),
(286,56,l),
(319,56,l),
(94,731,l),
(33,731,l),
(276,4,l),
(278,32,l),
(220,-141,ls),
(199,-204,o),
(167,-250,o),
(89,-250,c),
(10,-250,l),
(10,-309,l)
);
}
);
width = 607;
},
{
anchors = (
{
name = bottom;
pos = (436,173);
},
{
name = top;
pos = (436,953);
}
);
layerId = m005;
shapes = (
{
closed = 1;
nodes = (
(171,-309,l),
(296,-309,o),
(366,-239,o),
(402,-147,cs),
(747,733,l),
(528,733,l),
(308,96,l),
(437,96,l),
(217,733,l),
(-5,733,l),
(327,-128,l),
(334,169,l),
(247,-35,ls),
(223,-89,o),
(197,-125,o),
(154,-125,cs),
(10,-125,l),
(10,-309,l)
);
}
);
width = 751;
},
{
anchors = (
{
name = bottom;
pos = (413,172);
},
{
name = top;
pos = (344,733);
}
);
background = {
shapes = (
{
closed = 1;
nodes = (
(309,0,l),
(412,0,l),
(691,733,l),
(546,733,l),
(332,95,l),
(388,95,l),
(175,733,l),
(30,733,l)
);
}
);
};
layerId = "1B8EDE0E-D46F-48F9-B9C6-2CD34FEA95FD";
shapes = (
{
closed = 1;
nodes = (
(155,-309,l),
(263,-309,o),
(314,-256,o),
(351,-159,cs),
(692,733,l),
(548,733,l),
(332,100,l),
(387,100,l),
(175,733,l),
(30,733,l),
(321,-30,l),
(303,64,l),
(254,-80,ls),
(233,-143,o),
(197,-188,o),
(135,-188,c),
(36,-188,l),
(36,-309,l)
);
}
);
width = 722;
}
);
metricRight = "=v";
unicode = 121;
},
{
glyphname = z;
lastChange = "2025-11-28 10:21:14 +0000";
layers = (
{
anchors = (
{
name = bottom;
pos = (340,0);
},
{
name = center;
pos = (340,367);
},
{
name = top;
pos = (340,733);
}
);
layerId = m004;
shapes = (
{
closed = 1;
nodes = (
(95,47,l),
(95,0,l),
(584,0,l),
(584,57,l),
(179,57,l),
(584,685,l),
(584,733,l),
(95,733,l),
(95,675,l),
(501,675,l)
);
}
);
width = 679;
},
{
anchors = (
{
name = bottom;
pos = (323,0);
},
{
name = center;
pos = (323,367);
},
{
name = top;
pos = (323,733);
}
);
layerId = m005;
shapes = (
{
closed = 1;
nodes = (
(30,150,l),
(30,0,l),
(615,0,l),
(615,189,l),
(321,189,l),
(615,583,l),
(615,733,l),
(30,733,l),
(30,544,l),
(323,544,l)
);
}
);
width = 645;
},
{
anchors = (
{
name = bottom;
pos = (332,0);
},
{
name = center;
pos = (332,367);
},
{
name = top;
pos = (332,733);
}
);
layerId = "1B8EDE0E-D46F-48F9-B9C6-2CD34FEA95FD";
shapes = (
{
closed = 1;
nodes = (
(63,86,l),
(63,0,l),
(600,0,l),
(600,117,l),
(239,117,l),
(600,647,l),
(600,733,l),
(63,733,l),
(63,616,l),
(426,616,l)
);
}
);
width = 663;
}
);
metricRight = "=|";
unicode = 122;
},
{
glyphname = zero;
lastChange = "2025-11-28 10:07:11 +0000";
layers = (
{
layerId = m004;
shapes = (
{
closed = 1;
nodes = (
(473,-24,o),
(611,53,o),
(611,247,cs),
(611,777,ls),
(611,971,o),
(473,1048,o),
(358,1048,cs),
(229,1048,o),
(106,971,o),
(106,777,cs),
(106,247,ls),
(106,53,o),
(229,-24,o),
(358,-24,cs)
);
},
{
closed = 1;
nodes = (
(239,32,o),
(173,114,o),
(173,253,cs),
(173,771,ls),
(173,910,o),
(239,992,o),
(358,992,cs),
(462,992,o),
(544,910,o),
(544,771,cs),
(544,253,ls),
(544,114,o),
(462,32,o),
(358,32,cs)
);
}
);
width = 717;
},
{
layerId = m005;
shapes = (
{
closed = 1;
nodes = (
(586,-34,o),
(847,61,o),
(847,377,cs),
(847,629,ls),
(847,962,o),
(586,1058,o),
(446,1058,cs),
(274,1058,o),
(45,962,o),
(45,629,cs),
(45,377,ls),
(45,61,o),
(274,-34,o),
(446,-34,cs)
);
},
{
closed = 1;
nodes = (
(350,164,o),
(266,203,o),
(266,370,cs),
(266,638,ls),
(266,821,o),
(350,858,o),
(446,858,cs),
(541,858,o),
(626,821,o),
(626,638,cs),
(626,370,ls),
(626,197,o),
(541,164,o),
(446,164,cs)
);
}
);
width = 892;
},
{
layerId = "1B8EDE0E-D46F-48F9-B9C6-2CD34FEA95FD";
shapes = (
{
closed = 1;
nodes = (
(623,-30,o),
(744,96,o),
(744,313,cs),
(744,711,ls),
(744,929,o),
(623,1054,o),
(416,1054,cs),
(209,1054,o),
(88,929,o),
(88,711,cs),
(88,313,ls),
(88,96,o),
(209,-30,o),
(416,-30,cs)
);
},
{
closed = 1;
nodes = (
(282,93,o),
(229,162,o),
(229,336,cs),
(229,689,ls),
(229,863,o),
(282,932,o),
(416,932,cs),
(550,932,o),
(603,863,o),
(603,689,cs),
(603,336,ls),
(603,162,o),
(550,93,o),
(416,93,cs)
);
}
);
width = 832;
}
);
metricRight = "=|";
unicode = 48;
},
{
glyphname = one;
lastChange = "2025-11-28 10:07:16 +0000";
layers = (
{
background = {
shapes = (
{
closed = 0;
nodes = (
(126,581,l),
(126,536,o),
(109,530,o),
(83,530,cs),
(35,530,l),
(35,499,l),
(83,499,ls),
(133,499,o),
(160,516,o),
(160,571,c)
);
}
);
};
layerId = m004;
shapes = (
{
closed = 1;
nodes = (
(340,1024,l),
(275,1024,l),
(275,1006,ls),
(275,918,o),
(224,908,o),
(135,908,cs),
(60,908,l),
(60,851,l),
(275,851,l),
(275,0,l),
(340,0,l)
);
}
);
width = 434;
},
{
layerId = m005;
shapes = (
{
closed = 1;
nodes = (
(511,1024,l),
(299,1024,l),
(299,1006,l),
(299,907,o),
(234,886,o),
(169,886,c),
(69,886,l),
(69,697,l),
(299,697,l),
(299,0,l),
(511,0,l)
);
}
);
width = 650;
},
{
layerId = "1B8EDE0E-D46F-48F9-B9C6-2CD34FEA95FD";
shapes = (
{
closed = 1;
nodes = (
(400,1024,l),
(261,1024,l),
(261,1001,l),
(261,909,o),
(200,892,o),
(125,892,c),
(77,892,l),
(77,785,l),
(261,785,l),
(261,0,l),
(400,0,l)
);
}
);
width = 521;
}
);
metricRight = "=H";
unicode = 49;
},
{
glyphname = two;
lastChange = "2025-11-28 10:07:28 +0000";
layers = (
{
background = {
shapes = (
{
closed = 0;
nodes = (
(46,354,l)
);
}
);
};
layerId = m004;
shapes = (
{
closed = 1;
nodes = (
(582,0,l),
(582,57,l),
(127,57,l),
(142,13,l),
(419,369,ls),
(541,526,o),
(593,601,o),
(593,759,cs),
(593,932,o),
(473,1048,o),
(324,1048,cs),
(170,1048,o),
(45,932,o),
(45,712,c),
(112,712,l),
(112,932,o),
(226,990,o),
(324,990,cs),
(412,990,o),
(528,932,o),
(528,759,cs),
(528,618,o),
(476,545,o),
(343,379,cs),
(64,27,l),
(64,0,l)
);
}
);
width = 655;
},
{
layerId = m005;
shapes = (
{
closed = 1;
nodes = (
(780,0,l),
(780,192,l),
(258,192,l),
(322,78,l),
(595,344,ls),
(733,478,o),
(775,577,o),
(775,733,cs),
(775,967,o),
(599,1058,o),
(422,1058,cs),
(235,1058,o),
(96,945,o),
(94,713,c),
(308,713,l),
(308,827,o),
(369,867,o),
(430,869,cs),
(493,870,o),
(561,819,o),
(561,726,cs),
(561,631,o),
(535,567,o),
(446,488,cs),
(58,131,l),
(58,0,l)
);
}
);
width = 838;
},
{
layerId = "1B8EDE0E-D46F-48F9-B9C6-2CD34FEA95FD";
shapes = (
{
closed = 1;
nodes = (
(703,0,l),
(703,117,l),
(195,117,l),
(227,66,l),
(579,453,ls),
(671,553,o),
(703,651,o),
(703,763,cs),
(703,921,o),
(596,1053,o),
(392,1053,cs),
(197,1053,o),
(85,945,o),
(85,716,c),
(223,716,l),
(223,869,o),
(286,932,o),
(397,932,cs),
(495,932,o),
(566,877,o),
(566,765,cs),
(566,687,o),
(529,609,o),
(450,520,cs),
(60,88,l),
(60,0,l)
);
}
);
width = 763;
}
);
unicode = 50;
},
{
glyphname = three;
lastChange = "2025-11-28 10:07:42 +0000";
layers = (
{
background = {
shapes = (
{
closed = 0;
nodes = (
(146,14,ls),
(83,14,o),
(17,49,o),
(17,170,c),
(-16,170,l),
(-16,49,o),
(49,-14,o),
(146,-14,cs)
);
}
);
};
layerId = m004;
shapes = (
{
closed = 1;
nodes = (
(556,-24,o),
(669,92,o),
(669,271,cs),
(669,449,o),
(548,580,o),
(367,580,c),
(367,522,l),
(498,522,o),
(602,415,o),
(602,269,cs),
(602,127,o),
(508,34,o),
(359,34,cs),
(218,34,o),
(133,110,o),
(131,249,c),
(131,256,l),
(64,256,l),
(64,249,l),
(64,81,o),
(183,-24,o),
(359,-24,cs)
);
},
{
closed = 1;
nodes = (
(367,522,l),
(493,522,o),
(621,599,o),
(621,786,cs),
(621,972,o),
(475,1048,o),
(350,1048,cs),
(220,1048,o),
(97,970,o),
(97,811,cs),
(97,799,l),
(163,799,l),
(163,811,l),
(163,925,o),
(235,991,o),
(350,991,cs),
(477,991,o),
(554,912,o),
(554,785,cs),
(554,663,o),
(479,580,o),
(367,580,c)
);
},
{
closed = 1;
nodes = (
(306,522,l),
(367,522,l),
(367,580,l),
(306,580,l)
);
}
);
width = 761;
},
{
background = {
shapes = (
{
closed = 0;
nodes = (
(216,72,ls),
(165,73,o),
(132,99,o),
(132,173,c),
(42,173,l),
(42,27,o),
(127,-10,o),
(216,-10,cs)
);
}
);
};
layerId = m005;
shapes = (
{
closed = 1;
nodes = (
(607,-34,o),
(806,47,o),
(806,305,cs),
(806,541,o),
(592,630,o),
(428,630,c),
(428,441,l),
(494,441,o),
(588,405,o),
(588,304,cs),
(588,193,o),
(509,159,o),
(437,159,cs),
(361,159,o),
(289,196,o),
(289,294,cs),
(289,324,l),
(70,324,l),
(70,292,l),
(70,50,o),
(269,-34,o),
(437,-34,cs)
);
},
{
closed = 1;
nodes = (
(428,441,l),
(591,444,o),
(773,534,o),
(773,746,cs),
(773,968,o),
(585,1058,o),
(437,1058,cs),
(283,1058,o),
(98,972,o),
(98,758,c),
(98,725,l),
(315,725,l),
(315,758,ls),
(315,821,o),
(369,865,o),
(437,865,cs),
(496,865,o),
(556,834,o),
(556,747,cs),
(556,660,o),
(486,630,o),
(428,630,c)
);
},
{
closed = 1;
nodes = (
(357,441,l),
(428,441,l),
(428,630,l),
(357,630,l)
);
}
);
width = 925;
},
{
layerId = "1B8EDE0E-D46F-48F9-B9C6-2CD34FEA95FD";
shapes = (
{
closed = 1;
nodes = (
(615,-30,o),
(757,89,o),
(757,275,cs),
(757,435,o),
(655,588,o),
(421,588,c),
(421,481,l),
(533,481,o),
(614,407,o),
(614,275,cs),
(614,126,o),
(505,93,o),
(421,93,cs),
(320,93,o),
(237,126,o),
(237,275,cs),
(237,287,l),
(95,287,l),
(95,274,l),
(95,41,o),
(246,-30,o),
(421,-30,cs)
);
},
{
closed = 1;
nodes = (
(421,498,l),
(595,498,o),
(718,603,o),
(718,770,cs),
(718,943,o),
(586,1054,o),
(421,1054,cs),
(244,1054,o),
(127,944,o),
(127,776,c),
(127,764,l),
(268,764,l),
(268,776,ls),
(268,898,o),
(334,933,o),
(420,933,cs),
(495,933,o),
(575,876,o),
(575,770,cs),
(575,649,o),
(502,604,o),
(421,604,c)
);
},
{
closed = 1;
nodes = (
(359,481,l),
(421,481,l),
(421,604,l),
(359,604,l)
);
}
);
width = 840;
}
);
unicode = 51;
},
{
glyphname = four;
lastChange = "2025-11-26 14:44:30 +0000";
layers = (
{
layerId = m004;
shapes = (
{
closed = 1;
nodes = (
(414,488,l),
(414,0,l),
(480,0,l),
(480,488,l)
);
},
{
closed = 1;
nodes = (
(35,216,l),
(598,216,l),
(598,273,l),
(105,273,l),
(484,1024,l),
(417,1024,l),
(35,273,l)
);
}
);
width = 638;
},
{
layerId = m005;
shapes = (
{
closed = 1;
nodes = (
(470,536,l),
(470,0,l),
(681,0,l),
(681,536,l)
);
},
{
closed = 1;
nodes = (
(63,178,l),
(783,178,l),
(783,367,l),
(332,367,l),
(690,1024,l),
(454,1024,l),
(63,329,l)
);
}
);
width = 846;
},
{
layerId = "1B8EDE0E-D46F-48F9-B9C6-2CD34FEA95FD";
shapes = (
{
closed = 1;
nodes = (
(438,515,l),
(438,0,l),
(578,0,l),
(578,515,l)
);
},
{
closed = 1;
nodes = (
(47,178,l),
(695,178,l),
(695,298,l),
(214,298,l),
(572,1024,l),
(430,1024,l),
(47,268,l)
);
}
);
width = 742;
}
);
unicode = 52;
},
{
glyphname = five;
lastChange = "2025-11-28 10:07:57 +0000";
layers = (
{
background = {
shapes = (
{
closed = 1;
nodes = (
(263,-10,o),
(339,32,o),
(339,139,cs),
(339,251,ls),
(339,358,o),
(263,400,o),
(200,400,cs),
(129,400,o),
(62,358,o),
(62,251,cs),
(62,139,ls),
(62,32,o),
(129,-10,o),
(200,-10,cs)
);
},
{
closed = 1;
nodes = (
(134,21,o),
(98,66,o),
(98,142,cs),
(98,248,ls),
(98,324,o),
(134,369,o),
(200,369,cs),
(257,369,o),
(302,324,o),
(302,248,cs),
(302,142,ls),
(302,66,o),
(257,21,o),
(200,21,cs)
);
}
);
};
layerId = m004;
shapes = (
{
closed = 1;
nodes = (
(481,-24,o),
(619,54,o),
(619,249,cs),
(619,470,l),
(619,664,o),
(481,741,o),
(366,741,cs),
(236,741,o),
(112,664,o),
(112,470,c),
(179,470,l),
(179,602,o),
(245,686,o),
(366,686,cs),
(470,686,o),
(552,602,o),
(552,463,cs),
(552,255,ls),
(552,115,o),
(470,33,o),
(366,33,cs),
(245,33,o),
(179,115,o),
(179,255,cs),
(179,306,l),
(112,306,l),
(112,249,l),
(112,54,o),
(236,-24,o),
(366,-24,cs)
);
},
{
closed = 1;
nodes = (
(179,470,l),
(179,967,l),
(574,967,l),
(574,1024,l),
(111,1024,l),
(112,470,l)
);
}
);
width = 760;
},
{
background = {
shapes = (
{
closed = 0;
nodes = (
(255,296,ls),
(216,296,o),
(181,270,o),
(181,214,cs)
);
}
);
};
layerId = m005;
shapes = (
{
closed = 1;
nodes = (
(577,-34,o),
(791,32,o),
(791,271,cs),
(791,402,ls),
(791,656,o),
(580,723,o),
(440,723,cs),
(276,723,o),
(132,511,o),
(98,427,c),
(309,427,l),
(331,505,o),
(386,531,o),
(440,531,cs),
(512,531,o),
(577,483,o),
(577,379,cs),
(577,274,ls),
(577,170,o),
(512,126,o),
(440,126,cs),
(368,126,o),
(309,156,o),
(309,274,cs),
(309,289,l),
(98,289,l),
(98,272,l),
(98,32,o),
(305,-34,o),
(440,-34,cs)
);
},
{
closed = 1;
nodes = (
(316,482,l),
(316,832,l),
(733,832,l),
(733,1024,l),
(104,1024,l),
(98,427,l)
);
}
);
width = 889;
},
{
layerId = "1B8EDE0E-D46F-48F9-B9C6-2CD34FEA95FD";
shapes = (
{
closed = 1;
nodes = (
(507,-30,o),
(686,63,o),
(686,271,cs),
(686,439,ls),
(686,646,o),
(511,723,o),
(380,723,cs),
(166,723,o),
(105,545,o),
(80,482,c),
(213,482,l),
(213,567,o),
(287,602,o),
(380,602,cs),
(455,602,o),
(548,550,o),
(548,418,cs),
(548,290,ls),
(548,141,o),
(450,91,o),
(380,91,cs),
(283,91,o),
(212,126,o),
(212,290,cs),
(212,301,l),
(78,301,l),
(78,288,l),
(78,65,o),
(225,-30,o),
(380,-30,cs)
);
},
{
closed = 1;
nodes = (
(222,530,l),
(222,904,l),
(647,904,l),
(647,1024,l),
(83,1024,l),
(80,482,l)
);
}
);
width = 763;
}
);
unicode = 53;
},
{
glyphname = six;
lastChange = "2025-11-28 10:08:10 +0000";
layers = (
{
background = {
shapes = (
{
closed = 1;
nodes = (
(312,179,ls),
(312,286,o),
(237,328,o),
(172,328,cs),
(102,328,o),
(35,286,o),
(35,179,cs),
(35,179,o),
(35,170,o),
(35,160,c),
(71,160,l),
(71,176,ls),
(71,252,o),
(107,297,o),
(172,297,cs),
(230,297,o),
(276,252,o),
(276,176,cs),
(276,160,l),
(312,160,l)
);
}
);
};
layerId = m004;
shapes = (
{
closed = 1;
nodes = (
(528,72,o),
(432,34,o),
(334,34,cs),
(211,34,o),
(146,109,o),
(146,292,c),
(146,477,o),
(211,551,o),
(334,551,cs),
(435,551,o),
(528,511,o),
(528,296,c)
);
},
{
closed = 1;
nodes = (
(481,-24,o),
(597,43,o),
(597,291,c),
(597,541,o),
(480,609,o),
(334,609,cs),
(205,609,o),
(171,520,o),
(110,494,c),
(145,490,l),
(536,1049,l),
(458,1049,l),
(273,788,ls),
(175,650,o),
(79,565,o),
(79,292,c),
(79,104,o),
(153,-24,o),
(334,-24,cs)
);
}
);
width = 650;
},
{
layerId = m005;
shapes = (
{
closed = 1;
nodes = (
(627,218,o),
(558,156,o),
(471,156,cs),
(383,156,o),
(315,218,o),
(315,305,cs),
(315,444,o),
(374,492,o),
(471,492,cs),
(567,492,o),
(625,460,o),
(627,305,cs)
);
},
{
closed = 1;
nodes = (
(620,-34,o),
(841,52,o),
(841,303,cs),
(841,568,o),
(662,680,o),
(471,680,cs),
(330,680,o),
(254,553,o),
(172,455,c),
(396,528,l),
(734,1024,l),
(485,1024,l),
(257,715,ls),
(174,604,o),
(100,478,o),
(100,303,c),
(100,32,o),
(309,-34,o),
(471,-34,cs)
);
}
);
width = 942;
},
{
background = {
shapes = (
{
closed = 0;
nodes = (
(619,340,ls),
(619,208,o),
(538,123,o),
(412,123,cs),
(283,123,o),
(205,205,o),
(205,340,cs)
);
}
);
};
layerId = "1B8EDE0E-D46F-48F9-B9C6-2CD34FEA95FD";
shapes = (
{
closed = 1;
nodes = (
(603,171,o),
(528,93,o),
(412,93,cs),
(294,93,o),
(221,166,o),
(221,292,cs),
(221,416,o),
(293,491,o),
(412,491,cs),
(528,491,o),
(603,413,o),
(603,292,cs)
);
},
{
closed = 1;
nodes = (
(600,-30,o),
(742,88,o),
(742,290,cs),
(742,509,o),
(571,612,o),
(412,612,cs),
(298,612,o),
(244,565,o),
(174,478,c),
(301,542,l),
(615,1024,l),
(457,1024,l),
(227,671,ls),
(114,496,o),
(81,393,o),
(81,291,cs),
(81,51,o),
(231,-30,o),
(412,-30,cs)
);
}
);
width = 824;
}
);
unicode = 54;
},
{
glyphname = seven;
lastChange = "2025-11-26 14:44:30 +0000";
layers = (
{
layerId = m004;
shapes = (
{
closed = 1;
nodes = (
(224,0,l),
(561,999,l),
(561,1024,l),
(32,1024,l),
(32,967,l),
(517,967,l),
(493,993,l),
(159,0,l)
);
}
);
width = 593;
},
{
layerId = m005;
shapes = (
{
closed = 1;
nodes = (
(356,0,l),
(709,920,l),
(709,1024,l),
(63,1024,l),
(63,835,l),
(608,835,l),
(490,953,l),
(126,0,l)
);
}
);
width = 835;
},
{
layerId = "1B8EDE0E-D46F-48F9-B9C6-2CD34FEA95FD";
shapes = (
{
closed = 1;
nodes = (
(321,0,l),
(684,941,l),
(684,1024,l),
(47,1024,l),
(47,904,l),
(607,904,l),
(555,975,l),
(178,0,l)
);
}
);
width = 731;
}
);
unicode = 55;
},
{
glyphname = eight;
lastChange = "2025-11-28 10:08:30 +0000";
layers = (
{
layerId = m004;
shapes = (
{
closed = 1;
nodes = (
(465,-24,o),
(606,55,o),
(606,222,cs),
(606,319,ls),
(606,518,o),
(449,581,o),
(347,581,cs),
(230,581,o),
(87,518,o),
(87,319,c),
(87,222,l),
(87,55,o),
(214,-24,o),
(347,-24,cs)
);
},
{
closed = 1;
nodes = (
(224,34,o),
(155,118,o),
(155,228,cs),
(155,312,ls),
(155,455,o),
(240,523,o),
(347,523,cs),
(438,523,o),
(538,455,o),
(538,312,cs),
(538,228,ls),
(538,118,o),
(453,34,o),
(347,34,cs)
);
},
{
closed = 1;
nodes = (
(449,523,o),
(590,602,o),
(590,765,cs),
(590,807,ls),
(590,968,o),
(449,1048,o),
(347,1048,cs),
(230,1048,o),
(104,968,o),
(104,807,cs),
(104,765,ls),
(104,602,o),
(230,523,o),
(347,523,cs)
);
},
{
closed = 1;
nodes = (
(240,581,o),
(171,650,o),
(171,771,cs),
(171,800,ls),
(171,922,o),
(240,990,o),
(347,990,cs),
(438,990,o),
(522,922,o),
(522,800,cs),
(522,771,ls),
(522,650,o),
(438,581,o),
(347,581,cs)
);
}
);
width = 693;
},
{
layerId = m005;
shapes = (
{
closed = 1;
nodes = (
(614,-33,o),
(816,42,o),
(816,274,c),
(816,297,ls),
(816,537,o),
(615,619,o),
(456,619,cs),
(277,619,o),
(94,537,o),
(94,297,c),
(94,274,l),
(94,71,o),
(241,-33,o),
(456,-33,cs)
);
},
{
closed = 1;
nodes = (
(361,159,o),
(313,211,o),
(313,274,cs),
(313,295,ls),
(313,394,o),
(361,435,o),
(456,435,cs),
(533,435,o),
(597,392,o),
(597,295,cs),
(597,274,ls),
(597,213,o),
(535,159,o),
(456,159,cs)
);
},
{
closed = 1;
nodes = (
(584,451,o),
(783,532,o),
(783,743,cs),
(783,768,ls),
(783,973,o),
(599,1058,o),
(456,1058,cs),
(294,1058,o),
(127,972,o),
(127,768,c),
(127,743,l),
(127,532,o),
(311,451,o),
(456,451,cs)
);
},
{
closed = 1;
nodes = (
(393,619,o),
(345,661,o),
(345,726,cs),
(345,761,ls),
(345,822,o),
(393,865,o),
(456,865,cs),
(517,865,o),
(565,822,o),
(565,761,cs),
(565,726,ls),
(565,661,o),
(517,619,o),
(456,619,cs)
);
}
);
width = 910;
},
{
layerId = "1B8EDE0E-D46F-48F9-B9C6-2CD34FEA95FD";
shapes = (
{
closed = 1;
nodes = (
(544,-30,o),
(712,41,o),
(712,258,cs),
(712,313,ls),
(712,491,o),
(529,598,o),
(395,598,cs),
(244,598,o),
(77,491,o),
(77,313,c),
(77,258,l),
(77,56,o),
(244,-30,o),
(395,-30,cs)
);
},
{
closed = 1;
nodes = (
(302,92,o),
(219,151,o),
(219,260,cs),
(219,312,ls),
(219,434,o),
(302,486,o),
(395,486,cs),
(471,486,o),
(570,434,o),
(570,312,cs),
(570,260,ls),
(570,135,o),
(471,92,o),
(395,92,cs)
);
},
{
closed = 1;
nodes = (
(513,486,o),
(680,560,o),
(680,753,cs),
(680,777,ls),
(680,975,o),
(529,1054,o),
(395,1054,cs),
(244,1054,o),
(109,975,o),
(109,777,c),
(109,753,l),
(109,560,o),
(260,486,o),
(395,486,cs)
);
},
{
closed = 1;
nodes = (
(302,598,o),
(250,650,o),
(250,754,cs),
(250,775,ls),
(250,880,o),
(302,931,o),
(395,931,cs),
(471,931,o),
(538,880,o),
(538,775,cs),
(538,754,ls),
(538,650,o),
(471,598,o),
(395,598,cs)
);
}
);
width = 789;
}
);
unicode = 56;
},
{
glyphname = nine;
lastChange = "2025-11-28 10:08:39 +0000";
layers = (
{
layerId = m004;
shapes = (
{
closed = 1;
nodes = (
(149,907,o),
(233,991,o),
(341,991,cs),
(460,991,o),
(526,907,o),
(526,767,cs),
(526,704,ls),
(526,564,o),
(460,481,o),
(341,481,cs),
(233,481,o),
(149,564,o),
(149,698,cs),
(149,767,ls)
);
},
{
closed = 1;
nodes = (
(221,1048,o),
(82,970,o),
(82,773,cs),
(82,701,ls),
(82,501,o),
(221,423,o),
(341,423,cs),
(469,423,o),
(502,511,o),
(563,536,c),
(528,542,l),
(143,-10,l),
(220,-10,l),
(461,330,ls),
(560,470,o),
(594,583,o),
(594,698,c),
(594,698,o),
(594,773,o),
(594,773,cs),
(594,970,o),
(469,1048,o),
(341,1048,cs)
);
}
);
width = 650;
},
{
layerId = m005;
shapes = (
{
closed = 1;
nodes = (
(315,805,o),
(383,868,o),
(470,868,cs),
(558,868,o),
(627,805,o),
(627,719,cs),
(627,697,ls),
(627,573,o),
(552,532,o),
(470,532,cs),
(387,532,o),
(316,587,o),
(315,695,cs),
(315,719,ls)
);
},
{
closed = 1;
nodes = (
(320,1058,o),
(100,972,o),
(100,721,cs),
(100,698,ls),
(100,421,o),
(336,344,o),
(470,344,cs),
(611,344,o),
(687,470,o),
(770,569,c),
(544,495,l),
(208,0,l),
(456,0,l),
(684,308,ls),
(748,395,o),
(841,542,o),
(841,698,c),
(841,698,o),
(841,721,o),
(841,721,cs),
(841,992,o),
(631,1058,o),
(470,1058,cs)
);
}
);
width = 942;
},
{
layerId = "1B8EDE0E-D46F-48F9-B9C6-2CD34FEA95FD";
shapes = (
{
closed = 1;
nodes = (
(222,868,o),
(320,933,o),
(411,933,cs),
(519,933,o),
(602,868,o),
(602,752,c),
(602,714,l),
(602,594,o),
(507,534,o),
(411,534,cs),
(325,534,o),
(223,594,o),
(222,712,c),
(222,752,l)
);
},
{
closed = 1;
nodes = (
(263,1054,o),
(82,960,o),
(82,753,c),
(82,716,l),
(82,501,o),
(273,414,o),
(411,414,cs),
(526,414,o),
(579,460,o),
(650,547,c),
(522,483,l),
(209,0,l),
(366,0,l),
(595,354,ls),
(698,518,o),
(741,628,o),
(741,725,cs),
(741,725,o),
(741,753,o),
(741,753,cs),
(741,976,o),
(576,1054,o),
(411,1054,cs)
);
}
);
width = 824;
}
);
unicode = 57;
},
{
glyphname = period;
lastChange = "2025-11-27 11:56:40 +0000";
layers = (
{
layerId = m004;
shapes = (
{
closed = 1;
nodes = (
(152,-21,o),
(178,5,o),
(178,48,cs),
(178,89,o),
(152,115,o),
(109,115,cs),
(67,115,o),
(41,89,o),
(41,48,cs),
(41,5,o),
(67,-21,o),
(109,-21,cs)
);
}
);
width = 219;
},
{
layerId = m005;
shapes = (
{
closed = 1;
nodes = (
(213,-21,o),
(258,29,o),
(258,104,cs),
(258,175,o),
(213,224,o),
(137,224,cs),
(61,224,o),
(16,175,o),
(16,104,cs),
(16,29,o),
(61,-21,o),
(137,-21,cs)
);
}
);
width = 274;
},
{
layerId = "1B8EDE0E-D46F-48F9-B9C6-2CD34FEA95FD";
shapes = (
{
closed = 1;
nodes = (
(183,-21,o),
(216,16,o),
(216,78,cs),
(216,137,o),
(183,172,o),
(119,172,cs),
(55,172,o),
(22,137,o),
(22,78,cs),
(22,16,o),
(55,-21,o),
(119,-21,cs)
);
}
);
width = 238;
}
);
metricRight = "=|";
unicode = 46;
},
{
glyphname = comma;
lastChange = "2025-11-26 14:44:30 +0000";
layers = (
{
layerId = m004;
shapes = (
{
closed = 1;
nodes = (
(84,-158,l),
(160,158,l),
(71,158,l),
(24,-158,l)
);
}
);
width = 188;
},
{
layerId = m005;
shapes = (
{
closed = 1;
nodes = (
(155,-205,l),
(286,189,l),
(71,189,l),
(16,-205,l)
);
}
);
width = 142;
},
{
layerId = "1B8EDE0E-D46F-48F9-B9C6-2CD34FEA95FD";
shapes = (
{
closed = 1;
nodes = (
(147,-181,l),
(247,173,l),
(71,173,l),
(16,-181,l)
);
}
);
width = 263;
}
);
unicode = 44;
},
{
glyphname = colon;
lastChange = "2025-11-27 11:56:40 +0000";
layers = (
{
layerId = m004;
shapes = (
{
closed = 1;
nodes = (
(152,-21,o),
(178,5,o),
(178,48,cs),
(178,89,o),
(152,115,o),
(109,115,cs),
(67,115,o),
(41,89,o),
(41,48,cs),
(41,5,o),
(67,-21,o),
(109,-21,cs)
);
},
{
closed = 1;
nodes = (
(152,534,o),
(178,560,o),
(178,602,cs),
(178,644,o),
(152,670,o),
(109,670,cs),
(67,670,o),
(41,644,o),
(41,602,cs),
(41,560,o),
(67,534,o),
(109,534,cs)
);
}
);
width = 219;
},
{
layerId = m005;
shapes = (
{
closed = 1;
nodes = (
(207,482,o),
(252,532,o),
(252,607,cs),
(252,678,o),
(207,726,o),
(131,726,cs),
(55,726,o),
(10,678,o),
(10,607,cs),
(10,532,o),
(55,482,o),
(131,482,cs)
);
},
{
closed = 1;
nodes = (
(209,-21,o),
(254,29,o),
(254,104,cs),
(254,175,o),
(209,224,o),
(133,224,cs),
(56,224,o),
(11,175,o),
(11,104,cs),
(11,29,o),
(56,-21,o),
(133,-21,cs)
);
}
);
width = 264;
},
{
layerId = "1B8EDE0E-D46F-48F9-B9C6-2CD34FEA95FD";
shapes = (
{
closed = 1;
nodes = (
(183,-21,o),
(216,16,o),
(216,78,cs),
(216,137,o),
(183,172,o),
(119,172,cs),
(55,172,o),
(22,137,o),
(22,78,cs),
(22,16,o),
(55,-21,o),
(119,-21,cs)
);
},
{
closed = 1;
nodes = (
(183,509,o),
(216,545,o),
(216,607,cs),
(216,666,o),
(183,701,o),
(119,701,cs),
(55,701,o),
(22,666,o),
(22,607,cs),
(22,545,o),
(55,509,o),
(119,509,cs)
);
}
);
width = 238;
}
);
metricRight = "=|";
unicode = 58;
},
{
glyphname = semicolon;
lastChange = "2025-11-27 11:56:36 +0000";
layers = (
{
layerId = m004;
shapes = (
{
closed = 1;
nodes = (
(138,483,o),
(161,507,o),
(161,545,cs),
(161,583,o),
(138,607,o),
(99,607,cs),
(61,607,o),
(37,583,o),
(37,545,cs),
(37,507,o),
(61,483,o),
(99,483,cs)
);
},
{
closed = 1;
nodes = (
(84,-165,l),
(160,150,l),
(71,150,l),
(24,-165,l)
);
}
);
width = 185;
},
{
layerId = m005;
shapes = (
{
closed = 1;
nodes = (
(249,436,o),
(290,482,o),
(290,550,cs),
(290,614,o),
(249,659,o),
(180,659,cs),
(110,659,o),
(69,614,o),
(69,550,cs),
(69,482,o),
(110,436,o),
(180,436,cs)
);
},
{
closed = 1;
nodes = (
(155,-205,l),
(286,189,l),
(71,189,l),
(16,-205,l)
);
}
);
width = 306;
},
{
layerId = "1B8EDE0E-D46F-48F9-B9C6-2CD34FEA95FD";
shapes = (
{
closed = 1;
nodes = (
(166,462,o),
(196,495,o),
(196,551,cs),
(196,605,o),
(166,637,o),
(108,637,cs),
(50,637,o),
(20,605,o),
(20,551,cs),
(20,495,o),
(50,462,o),
(108,462,cs)
);
},
{
closed = 1;
nodes = (
(147,-181,l),
(247,173,l),
(71,173,l),
(16,-181,l)
);
}
);
width = 263;
}
);
metricRight = "=|";
unicode = 59;
},
{
glyphname = exclam;
lastChange = "2025-11-27 15:24:51 +0000";
layers = (
{
layerId = m004;
shapes = (
{
closed = 1;
nodes = (
(147,249,l),
(159,791,l),
(159,1137,l),
(95,1137,l),
(95,791,l),
(107,249,l)
);
},
{
closed = 1;
nodes = (
(167,-10,o),
(180,0,o),
(180,40,cs),
(180,78,o),
(167,90,o),
(130,90,cs),
(92,90,o),
(80,78,o),
(80,40,cs),
(80,0,o),
(92,-10,o),
(130,-10,cs)
);
}
);
width = 260;
},
{
layerId = m005;
shapes = (
{
closed = 1;
nodes = (
(272,295,l),
(293,677,l),
(293,1138,l),
(98,1138,l),
(98,677,l),
(119,295,l)
);
},
{
closed = 1;
nodes = (
(273,-11,o),
(296,13,o),
(296,89,cs),
(296,166,o),
(273,188,o),
(196,188,cs),
(118,188,o),
(95,166,o),
(95,89,cs),
(95,13,o),
(118,-11,o),
(196,-11,cs)
);
}
);
width = 391;
},
{
layerId = "1B8EDE0E-D46F-48F9-B9C6-2CD34FEA95FD";
shapes = (
{
closed = 1;
nodes = (
(255,283,l),
(273,706,l),
(273,1138,l),
(112,1138,l),
(112,706,l),
(131,283,l)
);
},
{
closed = 1;
nodes = (
(261,-11,o),
(281,10,o),
(281,77,cs),
(281,145,o),
(261,164,o),
(193,164,cs),
(125,164,o),
(105,145,o),
(105,77,cs),
(105,10,o),
(125,-11,o),
(193,-11,cs)
);
}
);
width = 386;
}
);
metricLeft = "=H";
metricRight = "=|";
unicode = 33;
},
{
glyphname = exclamdown;
lastChange = "2025-11-27 15:24:51 +0000";
layers = (
{
layerId = m004;
shapes = (
{
closed = 1;
nodes = (
(113,714,l),
(101,173,l),
(101,-173,l),
(164,-173,l),
(164,173,l),
(152,714,l)
);
},
{
closed = 1;
nodes = (
(92,974,o),
(80,964,o),
(80,924,cs),
(80,886,o),
(92,874,o),
(130,874,cs),
(167,874,o),
(180,886,o),
(180,924,cs),
(180,964,o),
(167,974,o),
(130,974,cs)
);
}
);
width = 260;
},
{
layerId = m005;
shapes = (
{
closed = 1;
nodes = (
(119,669,l),
(98,288,l),
(98,-173,l),
(293,-173,l),
(293,288,l),
(272,669,l)
);
},
{
closed = 1;
nodes = (
(118,976,o),
(95,951,o),
(95,875,cs),
(95,799,o),
(118,776,o),
(196,776,cs),
(273,776,o),
(296,799,o),
(296,875,cs),
(296,951,o),
(273,976,o),
(196,976,cs)
);
}
);
width = 391;
},
{
layerId = "1B8EDE0E-D46F-48F9-B9C6-2CD34FEA95FD";
shapes = (
{
closed = 1;
nodes = (
(131,681,l),
(113,258,l),
(113,-173,l),
(274,-173,l),
(274,258,l),
(255,681,l)
);
},
{
closed = 1;
nodes = (
(125,976,o),
(105,955,o),
(105,887,cs),
(105,821,o),
(125,801,o),
(193,801,cs),
(261,801,o),
(281,821,o),
(281,887,cs),
(281,955,o),
(261,976,o),
(193,976,cs)
);
}
);
width = 386;
}
);
metricLeft = "=H";
metricRight = "=H";
unicode = 161;
},
{
glyphname = question;
lastChange = "2025-11-26 14:44:30 +0000";
layers = (
{
layerId = m004;
shapes = (
{
closed = 1;
nodes = (
(352,-9,o),
(363,0,o),
(363,36,cs),
(363,71,o),
(352,82,o),
(317,82,cs),
(283,82,o),
(272,71,o),
(272,36,cs),
(272,0,o),
(283,-9,o),
(317,-9,cs)
);
},
{
closed = 1;
nodes = (
(346,227,l),
(346,290,ls),
(346,383,o),
(420,443,o),
(455,473,cs),
(499,510,o),
(609,603,o),
(609,734,cs),
(609,937,o),
(503,1052,o),
(332,1052,cs),
(155,1052,o),
(39,937,o),
(39,718,c),
(98,718,l),
(98,937,o),
(218,1002,o),
(332,1002,cs),
(436,1002,o),
(551,937,o),
(551,734,cs),
(551,627,o),
(451,544,o),
(412,507,cs),
(374,473,o),
(292,411,o),
(292,320,cs),
(292,227,l)
);
}
);
width = 362;
},
{
layerId = m005;
shapes = (
{
closed = 1;
nodes = (
(352,-9,o),
(373,11,o),
(373,87,cs),
(373,162,o),
(352,183,o),
(277,183,cs),
(201,183,o),
(180,162,o),
(180,87,cs),
(180,11,o),
(201,-9,o),
(277,-9,cs)
);
},
{
closed = 1;
nodes = (
(354,243,l),
(354,290,ls),
(354,353,o),
(481,447,o),
(516,477,cs),
(560,515,o),
(655,569,o),
(655,739,cs),
(655,974,o),
(502,1052,o),
(330,1052,cs),
(154,1052,o),
(15,974,o),
(15,718,c),
(177,718,l),
(177,835,o),
(221,908,o),
(330,909,cs),
(434,911,o),
(480,835,o),
(480,733,cs),
(480,665,o),
(406,591,o),
(371,559,cs),
(333,525,o),
(190,424,o),
(190,320,cs),
(190,243,l)
);
}
);
width = 350;
},
{
layerId = "1B8EDE0E-D46F-48F9-B9C6-2CD34FEA95FD";
shapes = (
{
closed = 1;
nodes = (
(347,-9,o),
(366,8,o),
(366,74,cs),
(366,140,o),
(347,158,o),
(282,158,cs),
(216,158,o),
(199,140,o),
(199,74,cs),
(199,8,o),
(216,-9,o),
(282,-9,cs)
);
},
{
closed = 1;
nodes = (
(347,239,l),
(347,290,ls),
(347,361,o),
(462,446,o),
(496,476,cs),
(540,514,o),
(638,578,o),
(638,737,cs),
(638,964,o),
(498,1052,o),
(326,1052,cs),
(150,1052,o),
(16,964,o),
(16,718,c),
(153,718,l),
(153,860,o),
(216,931,o),
(326,933,cs),
(427,933,o),
(493,860,o),
(493,733,cs),
(493,655,o),
(413,580,o),
(377,547,cs),
(339,512,o),
(211,421,o),
(211,320,cs),
(211,239,l)
);
}
);
width = 654;
}
);
unicode = 63;
},
{
glyphname = questiondown;
lastChange = "2025-11-26 14:44:30 +0000";
layers = (
{
layerId = m004;
shapes = (
{
closed = 1;
nodes = (
(295,895,o),
(284,885,o),
(284,849,cs),
(284,815,o),
(295,804,o),
(330,804,cs),
(365,804,o),
(376,815,o),
(376,849,cs),
(376,885,o),
(365,895,o),
(330,895,cs)
);
},
{
closed = 1;
nodes = (
(302,659,l),
(302,596,ls),
(302,503,o),
(228,443,o),
(193,413,cs),
(149,375,o),
(39,282,o),
(39,151,cs),
(39,-52,o),
(144,-167,o),
(316,-167,cs),
(492,-167,o),
(609,-52,o),
(609,167,c),
(549,167,l),
(549,-52,o),
(429,-117,o),
(316,-117,cs),
(212,-117,o),
(97,-52,o),
(97,151,cs),
(97,258,o),
(196,342,o),
(236,378,cs),
(273,413,o),
(355,474,o),
(355,566,cs),
(355,659,l)
);
}
);
width = 362;
},
{
layerId = m005;
shapes = (
{
closed = 1;
nodes = (
(317,896,o),
(297,875,o),
(297,800,cs),
(297,724,o),
(317,703,o),
(393,703,cs),
(469,703,o),
(489,724,o),
(489,800,cs),
(489,875,o),
(469,896,o),
(393,896,cs)
);
},
{
closed = 1;
nodes = (
(319,644,l),
(319,596,ls),
(319,533,o),
(184,439,o),
(154,409,cs),
(113,368,o),
(15,284,o),
(15,147,cs),
(15,-87,o),
(168,-166,o),
(340,-166,cs),
(516,-166,o),
(655,-87,o),
(655,168,c),
(492,168,l),
(492,35,o),
(432,-21,o),
(340,-23,cs),
(236,-24,o),
(190,35,o),
(190,154,cs),
(190,221,o),
(264,295,o),
(299,327,cs),
(336,362,o),
(480,462,o),
(480,566,cs),
(480,644,l)
);
}
);
width = 350;
},
{
layerId = "1B8EDE0E-D46F-48F9-B9C6-2CD34FEA95FD";
shapes = (
{
closed = 1;
nodes = (
(306,896,o),
(288,878,o),
(288,812,cs),
(288,746,o),
(306,729,o),
(371,729,cs),
(437,729,o),
(455,746,o),
(455,812,cs),
(455,878,o),
(437,896,o),
(371,896,cs)
);
},
{
closed = 1;
nodes = (
(308,647,l),
(308,596,ls),
(308,525,o),
(188,439,o),
(158,410,cs),
(116,369,o),
(15,283,o),
(15,149,cs),
(15,-78,o),
(157,-166,o),
(328,-166,cs),
(505,-166,o),
(637,-78,o),
(637,168,c),
(500,168,l),
(500,13,o),
(426,-45,o),
(328,-46,cs),
(223,-48,o),
(161,13,o),
(161,152,cs),
(161,231,o),
(240,306,o),
(277,340,cs),
(314,374,o),
(444,466,o),
(444,566,cs),
(444,647,l)
);
}
);
width = 341;
}
);
unicode = 191;
},
{
glyphname = periodcentered;
lastChange = "2025-11-26 14:44:30 +0000";
layers = (
{
layerId = m004;
shapes = (
{
closed = 1;
nodes = (
(128,236,o),
(139,245,o),
(139,281,cs),
(139,316,o),
(128,327,o),
(93,327,cs),
(58,327,o),
(47,316,o),
(47,281,cs),
(47,245,o),
(58,236,o),
(93,236,cs)
);
}
);
width = 186;
},
{
layerId = m005;
shapes = (
{
closed = 1;
nodes = (
(201,217,o),
(223,242,o),
(223,321,cs),
(223,396,o),
(201,420,o),
(121,420,cs),
(40,420,o),
(18,396,o),
(18,321,cs),
(18,242,o),
(40,217,o),
(121,217,cs)
);
}
);
width = 241;
},
{
layerId = "1B8EDE0E-D46F-48F9-B9C6-2CD34FEA95FD";
shapes = (
{
closed = 1;
nodes = (
(161,221,o),
(196,258,o),
(196,311,cs),
(196,360,o),
(161,396,o),
(108,396,cs),
(54,396,o),
(20,360,o),
(20,311,cs),
(20,258,o),
(54,221,o),
(108,221,cs)
);
}
);
width = 216;
}
);
metricRight = "=|";
unicode = 183;
},
{
glyphname = bullet;
lastChange = "2025-11-27 11:56:28 +0000";
layers = (
{
layerId = m004;
shapes = (
{
closed = 1;
nodes = (
(230,232,o),
(260,263,o),
(260,329,cs),
(260,390,o),
(230,421,o),
(165,421,cs),
(97,421,o),
(69,390,o),
(69,329,cs),
(69,263,o),
(97,232,o),
(165,232,cs)
);
}
);
width = 329;
},
{
layerId = m005;
shapes = (
{
closed = 1;
nodes = (
(406,174,o),
(468,243,o),
(468,389,cs),
(468,529,o),
(406,595,o),
(256,595,cs),
(106,595,o),
(43,529,o),
(43,389,cs),
(43,243,o),
(106,174,o),
(256,174,cs)
);
}
);
width = 511;
},
{
layerId = "1B8EDE0E-D46F-48F9-B9C6-2CD34FEA95FD";
shapes = (
{
closed = 1;
nodes = (
(338,189,o),
(409,265,o),
(409,374,cs),
(409,484,o),
(338,560,o),
(227,560,cs),
(114,560,o),
(43,484,o),
(43,374,cs),
(43,265,o),
(114,189,o),
(227,189,cs)
);
}
);
width = 452;
}
);
metricRight = "=|";
unicode = 8226;
},
{
glyphname = asterisk;
lastChange = "2025-11-27 11:56:28 +0000";
layers = (
{
layerId = m004;
shapes = (
{
closed = 1;
nodes = (
(339,791,l),
(261,791,l),
(280,580,l),
(82,665,l),
(60,592,l),
(266,543,l),
(126,382,l),
(186,335,l),
(297,519,l),
(406,335,l),
(469,380,l),
(330,540,l),
(538,588,l),
(516,661,l),
(320,578,l)
);
}
);
width = 598;
},
{
layerId = m005;
shapes = (
{
closed = 1;
nodes = (
(332,807,l),
(212,807,l),
(230,618,l),
(55,692,l),
(16,576,l),
(204,536,l),
(77,391,l),
(176,321,l),
(273,484,l),
(370,320,l),
(469,391,l),
(342,535,l),
(528,576,l),
(491,692,l),
(316,616,l)
);
}
);
width = 544;
},
{
layerId = "1B8EDE0E-D46F-48F9-B9C6-2CD34FEA95FD";
shapes = (
{
closed = 1;
nodes = (
(328,803,l),
(218,803,l),
(236,609,l),
(55,685,l),
(21,580,l),
(213,538,l),
(83,389,l),
(172,325,l),
(272,493,l),
(373,323,l),
(463,389,l),
(333,536,l),
(523,580,l),
(490,685,l),
(310,607,l)
);
}
);
width = 544;
}
);
metricRight = "=|";
unicode = 42;
},
{
glyphname = numbersign;
lastChange = "2025-11-27 11:56:28 +0000";
layers = (
{
layerId = m004;
shapes = (
{
closed = 1;
nodes = (
(110,0,l),
(170,0,l),
(375,1126,l),
(314,1126,l)
);
},
{
closed = 1;
nodes = (
(526,0,l),
(586,0,l),
(790,1126,l),
(730,1126,l)
);
},
{
closed = 1;
nodes = (
(92,750,l),
(870,750,l),
(870,809,l),
(92,809,l)
);
},
{
closed = 1;
nodes = (
(40,352,l),
(819,352,l),
(819,409,l),
(40,409,l)
);
}
);
width = 910;
},
{
layerId = m005;
shapes = (
{
closed = 1;
nodes = (
(110,0,l),
(269,0,l),
(473,1126,l),
(314,1126,l)
);
},
{
closed = 1;
nodes = (
(526,0,l),
(685,0,l),
(890,1126,l),
(730,1126,l)
);
},
{
closed = 1;
nodes = (
(92,714,l),
(957,714,l),
(957,845,l),
(92,845,l)
);
},
{
closed = 1;
nodes = (
(40,315,l),
(905,315,l),
(905,447,l),
(40,447,l)
);
}
);
width = 997;
},
{
layerId = "1B8EDE0E-D46F-48F9-B9C6-2CD34FEA95FD";
shapes = (
{
closed = 1;
nodes = (
(110,0,l),
(244,0,l),
(449,1126,l),
(314,1126,l)
);
},
{
closed = 1;
nodes = (
(526,0,l),
(661,0,l),
(865,1126,l),
(730,1126,l)
);
},
{
closed = 1;
nodes = (
(92,723,l),
(936,723,l),
(936,837,l),
(92,837,l)
);
},
{
closed = 1;
nodes = (
(40,324,l),
(884,324,l),
(884,436,l),
(40,436,l)
);
}
);
width = 976;
}
);
metricLeft = "=40";
metricRight = "=|";
unicode = 35;
},
{
glyphname = slash;
lastChange = "2025-11-26 14:44:30 +0000";
layers = (
{
layerId = m004;
shapes = (
{
closed = 1;
nodes = (
(39,2,l),
(91,2,l),
(498,1101,l),
(446,1101,l)
);
}
);
width = 538;
},
{
layerId = m005;
shapes = (
{
closed = 1;
nodes = (
(16,-22,l),
(145,-22,l),
(551,1093,l),
(422,1093,l)
);
}
);
width = 567;
},
{
layerId = "1B8EDE0E-D46F-48F9-B9C6-2CD34FEA95FD";
shapes = (
{
closed = 1;
nodes = (
(8,-315,l),
(158,-315,l),
(666,1071,l),
(516,1071,l)
);
}
);
width = 697;
}
);
unicode = 47;
},
{
glyphname = backslash;
lastChange = "2025-11-27 11:56:40 +0000";
layers = (
{
layerId = m004;
shapes = (
{
closed = 1;
nodes = (
(43,1211,l),
(490,2,l),
(548,2,l),
(101,1211,l)
);
}
);
width = 591;
},
{
layerId = m005;
shapes = (
{
closed = 1;
nodes = (
(17,1203,l),
(464,-24,l),
(607,-24,l),
(159,1203,l)
);
}
);
width = 624;
},
{
layerId = "1B8EDE0E-D46F-48F9-B9C6-2CD34FEA95FD";
shapes = (
{
closed = 1;
nodes = (
(17,1204,l),
(464,-17,l),
(586,-17,l),
(139,1204,l)
);
}
);
width = 603;
}
);
metricRight = "=|";
unicode = 92;
},
{
glyphname = hyphen;
lastChange = "2025-11-27 11:56:28 +0000";
layers = (
{
layerId = m004;
shapes = (
{
closed = 1;
nodes = (
(43,355,l),
(582,355,l),
(582,418,l),
(43,418,l)
);
}
);
width = 625;
},
{
layerId = m005;
shapes = (
{
closed = 1;
nodes = (
(29,211,l),
(568,211,l),
(568,360,l),
(29,360,l)
);
}
);
width = 597;
},
{
layerId = "1B8EDE0E-D46F-48F9-B9C6-2CD34FEA95FD";
shapes = (
{
closed = 1;
nodes = (
(27,331,l),
(566,331,l),
(566,456,l),
(27,456,l)
);
}
);
width = 593;
}
);
metricRight = "=|";
unicode = 45;
},
{
glyphname = endash;
lastChange = "2025-11-27 11:56:28 +0000";
layers = (
{
layerId = m004;
shapes = (
{
closed = 1;
nodes = (
(43,236,l),
(669,236,l),
(669,288,l),
(43,288,l)
);
}
);
width = 712;
},
{
layerId = m005;
shapes = (
{
closed = 1;
nodes = (
(29,211,l),
(804,211,l),
(804,360,l),
(29,360,l)
);
}
);
width = 833;
},
{
layerId = "1B8EDE0E-D46F-48F9-B9C6-2CD34FEA95FD";
shapes = (
{
closed = 1;
nodes = (
(27,217,l),
(763,217,l),
(763,341,l),
(27,341,l)
);
}
);
width = 790;
}
);
metricRight = "=|";
unicode = 8211;
},
{
glyphname = emdash;
lastChange = "2025-11-27 11:56:28 +0000";
layers = (
{
layerId = m004;
shapes = (
{
closed = 1;
nodes = (
(43,236,l),
(1187,236,l),
(1187,288,l),
(43,288,l)
);
}
);
width = 1230;
},
{
layerId = m005;
shapes = (
{
closed = 1;
nodes = (
(29,211,l),
(1269,211,l),
(1269,360,l),
(29,360,l)
);
}
);
width = 1298;
},
{
layerId = "1B8EDE0E-D46F-48F9-B9C6-2CD34FEA95FD";
shapes = (
{
closed = 1;
nodes = (
(43,433,l),
(1258,433,l),
(1258,558,l),
(43,558,l)
);
}
);
width = 1301;
}
);
metricRight = "=|";
unicode = 8212;
},
{
glyphname = underscore;
lastChange = "2025-11-27 11:56:40 +0000";
layers = (
{
layerId = m004;
shapes = (
{
closed = 1;
nodes = (
(43,-173,l),
(669,-173,l),
(669,-121,l),
(43,-121,l)
);
}
);
width = 712;
},
{
layerId = m005;
shapes = (
{
closed = 1;
nodes = (
(-2,-173,l),
(773,-173,l),
(773,-24,l),
(-2,-24,l)
);
}
);
width = 771;
},
{
layerId = "1B8EDE0E-D46F-48F9-B9C6-2CD34FEA95FD";
shapes = (
{
closed = 1;
nodes = (
(3,-173,l),
(740,-173,l),
(740,-49,l),
(3,-49,l)
);
}
);
width = 743;
}
);
metricRight = "=|";
unicode = 95;
},
{
glyphname = parenleft;
lastChange = "2025-11-26 14:44:30 +0000";
layers = (
{
layerId = m004;
shapes = (
{
closed = 1;
nodes = (
(158,247,o),
(298,16,o),
(395,-140,c),
(436,-106,l),
(345,27,o),
(214,276,o),
(214,573,cs),
(214,871,o),
(345,1120,o),
(436,1253,c),
(395,1287,l),
(298,1131,o),
(158,900,o),
(158,573,cs)
);
}
);
width = 364;
},
{
layerId = m005;
shapes = (
{
closed = 1;
nodes = (
(55,247,o),
(195,16,o),
(293,-140,c),
(433,-50,l),
(339,95,o),
(222,276,o),
(222,573,cs),
(222,871,o),
(339,1052,o),
(433,1197,c),
(293,1287,l),
(195,1131,o),
(55,900,o),
(55,573,cs)
);
}
);
width = 488;
},
{
layerId = "1B8EDE0E-D46F-48F9-B9C6-2CD34FEA95FD";
shapes = (
{
closed = 1;
nodes = (
(142,72,o),
(274,-159,o),
(380,-315,c),
(496,-239,l),
(403,-99,o),
(288,101,o),
(288,399,cs),
(288,696,o),
(403,896,o),
(496,1037,c),
(380,1112,l),
(274,956,o),
(142,725,o),
(142,399,cs)
);
}
);
width = 575;
}
);
unicode = 40;
},
{
glyphname = parenright;
lastChange = "2025-11-26 14:44:30 +0000";
layers = (
{
layerId = m004;
shapes = (
{
closed = 1;
nodes = (
(356,900,o),
(216,1131,o),
(118,1287,c),
(77,1253,l),
(169,1120,o),
(299,871,o),
(299,573,cs),
(299,276,o),
(169,27,o),
(77,-106,c),
(118,-140,l),
(216,16,o),
(356,247,o),
(356,573,cs)
);
}
);
width = 513;
},
{
layerId = m005;
shapes = (
{
closed = 1;
nodes = (
(433,900,o),
(293,1131,o),
(195,1287,c),
(55,1197,l),
(150,1052,o),
(266,871,o),
(266,573,cs),
(266,276,o),
(150,95,o),
(55,-50,c),
(195,-140,l),
(293,16,o),
(433,247,o),
(433,573,cs)
);
}
);
width = 488;
},
{
layerId = "1B8EDE0E-D46F-48F9-B9C6-2CD34FEA95FD";
shapes = (
{
closed = 1;
nodes = (
(463,725,o),
(331,956,o),
(225,1112,c),
(109,1037,l),
(202,896,o),
(317,696,o),
(317,399,cs),
(317,101,o),
(202,-99,o),
(109,-239,c),
(225,-315,l),
(331,-159,o),
(463,72,o),
(463,399,cs)
);
}
);
width = 605;
}
);
unicode = 41;
},
{
glyphname = braceleft;
lastChange = "2025-11-26 14:44:30 +0000";
layers = (
{
layerId = m004;
shapes = (
{
closed = 1;
nodes = (
(384,-109,l),
(384,-61,l),
(361,-61,ls),
(314,-61,o),
(284,-52,o),
(284,38,cs),
(284,432,ls),
(284,531,o),
(243,562,o),
(153,562,cs),
(129,562,l),
(129,515,l),
(153,515,ls),
(200,515,o),
(230,506,o),
(230,416,cs),
(230,22,ls),
(230,-77,o),
(271,-109,o),
(361,-109,cs)
);
},
{
closed = 1;
nodes = (
(271,1229,o),
(230,1197,o),
(230,1098,cs),
(230,662,ls),
(230,572,o),
(200,562,o),
(153,562,cs),
(129,562,l),
(129,515,l),
(153,515,ls),
(241,515,o),
(284,547,o),
(284,646,cs),
(284,1082,ls),
(284,1172,o),
(314,1182,o),
(361,1182,cs),
(384,1182,l),
(384,1229,l),
(361,1229,ls)
);
}
);
width = 520;
},
{
layerId = m005;
shapes = (
{
closed = 1;
nodes = (
(548,-117,l),
(548,22,l),
(433,22,ls),
(381,22,o),
(366,46,o),
(366,87,cs),
(366,425,ls),
(366,562,o),
(241,602,o),
(178,602,cs),
(16,602,l),
(16,485,l),
(131,485,ls),
(183,485,o),
(199,451,o),
(199,410,cs),
(199,71,ls),
(199,-66,o),
(271,-117,o),
(386,-117,cs)
);
},
{
closed = 1;
nodes = (
(271,1221,o),
(199,1171,o),
(199,1034,cs),
(199,693,ls),
(199,652,o),
(183,618,o),
(131,618,cs),
(16,618,l),
(16,501,l),
(178,501,ls),
(241,501,o),
(366,540,o),
(366,677,cs),
(366,1018,ls),
(366,1059,o),
(381,1082,o),
(433,1082,cs),
(548,1082,l),
(548,1221,l),
(386,1221,ls)
);
}
);
width = 306;
},
{
layerId = "1B8EDE0E-D46F-48F9-B9C6-2CD34FEA95FD";
shapes = (
{
closed = 1;
nodes = (
(501,-114,l),
(501,1,l),
(410,1,ls),
(359,1,o),
(340,21,o),
(340,73,cs),
(340,426,ls),
(340,554,o),
(236,592,o),
(167,592,cs),
(38,592,l),
(38,492,l),
(131,492,ls),
(181,492,o),
(202,464,o),
(202,410,cs),
(202,58,ls),
(202,-70,o),
(266,-114,o),
(375,-114,cs)
);
},
{
closed = 1;
nodes = (
(266,1223,o),
(202,1178,o),
(202,1050,cs),
(202,685,ls),
(202,631,o),
(181,604,o),
(131,604,cs),
(38,604,l),
(38,503,l),
(167,503,ls),
(236,503,o),
(340,541,o),
(340,669,cs),
(340,1034,ls),
(340,1086,o),
(359,1107,o),
(410,1107,cs),
(501,1107,l),
(501,1223,l),
(375,1223,ls)
);
}
);
width = 348;
}
);
unicode = 123;
},
{
glyphname = braceright;
lastChange = "2025-11-26 14:44:30 +0000";
layers = (
{
layerId = m004;
shapes = (
{
closed = 1;
nodes = (
(243,-117,o),
(284,-85,o),
(284,14,cs),
(284,424,ls),
(284,514,o),
(314,523,o),
(361,523,cs),
(384,523,l),
(384,570,l),
(361,570,ls),
(271,570,o),
(230,539,o),
(230,440,cs),
(230,30,ls),
(230,-60,o),
(200,-69,o),
(153,-69,cs),
(129,-69,l),
(129,-117,l),
(153,-117,ls)
);
},
{
closed = 1;
nodes = (
(129,1237,l),
(129,1190,l),
(153,1190,ls),
(200,1190,o),
(230,1180,o),
(230,1090,cs),
(230,654,ls),
(230,555,o),
(273,523,o),
(361,523,cs),
(384,523,l),
(384,570,l),
(361,570,ls),
(314,570,o),
(284,580,o),
(284,670,cs),
(284,1106,ls),
(284,1205,o),
(243,1237,o),
(153,1237,cs)
);
}
);
width = 520;
},
{
layerId = m005;
shapes = (
{
closed = 1;
nodes = (
(301,-117,o),
(373,-66,o),
(373,71,cs),
(373,410,ls),
(373,451,o),
(389,485,o),
(441,485,cs),
(556,485,l),
(556,602,l),
(394,602,ls),
(331,602,o),
(206,562,o),
(206,425,cs),
(206,87,ls),
(206,46,o),
(191,22,o),
(139,22,cs),
(24,22,l),
(24,-117,l),
(186,-117,ls)
);
},
{
closed = 1;
nodes = (
(24,1221,l),
(24,1082,l),
(139,1082,ls),
(191,1082,o),
(206,1059,o),
(206,1018,cs),
(206,677,ls),
(206,540,o),
(331,501,o),
(394,501,cs),
(556,501,l),
(556,618,l),
(441,618,ls),
(389,618,o),
(373,652,o),
(373,693,cs),
(373,1034,ls),
(373,1171,o),
(301,1221,o),
(186,1221,cs)
);
}
);
width = 306;
},
{
layerId = "1B8EDE0E-D46F-48F9-B9C6-2CD34FEA95FD";
shapes = (
{
closed = 1;
nodes = (
(280,-117,o),
(345,-71,o),
(345,57,cs),
(345,413,ls),
(345,466,o),
(364,495,o),
(416,495,cs),
(507,495,l),
(507,594,l),
(380,594,ls),
(310,594,o),
(206,556,o),
(206,429,cs),
(206,72,ls),
(206,19,o),
(187,0,o),
(137,0,cs),
(44,0,l),
(44,-117,l),
(172,-117,ls)
);
},
{
closed = 1;
nodes = (
(44,1226,l),
(44,1109,l),
(137,1109,ls),
(187,1109,o),
(206,1089,o),
(206,1037,cs),
(206,671,ls),
(206,544,o),
(310,506,o),
(380,506,cs),
(507,506,l),
(507,607,l),
(416,607,ls),
(364,607,o),
(345,633,o),
(345,687,cs),
(345,1052,ls),
(345,1180,o),
(280,1226,o),
(172,1226,cs)
);
}
);
width = 348;
}
);
unicode = 125;
},
{
glyphname = bracketleft;
lastChange = "2025-11-27 15:24:51 +0000";
layers = (
{
background = {
shapes = (
{
closed = 1;
nodes = (
(133,-117,l),
(133,-47,l),
(83,-47,ls),
(58,-47,o),
(50,-35,o),
(50,-15,cs),
(50,450,ls),
(50,471,o),
(58,483,o),
(83,483,cs),
(133,483,l),
(133,552,l),
(60,552,ls),
(3,552,o),
(-34,527,o),
(-34,458,cs),
(-34,-23,ls),
(-34,-92,o),
(3,-117,o),
(60,-117,cs)
);
}
);
};
layerId = m004;
shapes = (
{
closed = 1;
nodes = (
(234,-117,l),
(234,-70,l),
(210,-70,ls),
(163,-70,o),
(133,-60,o),
(133,30,cs),
(133,1074,ls),
(133,1165,o),
(163,1174,o),
(210,1174,cs),
(234,1174,l),
(234,1221,l),
(210,1221,ls),
(121,1221,o),
(80,1189,o),
(80,1090,cs),
(80,14,ls),
(80,-85,o),
(121,-117,o),
(210,-117,cs)
);
}
);
width = 188;
},
{
layerId = m005;
shapes = (
{
closed = 1;
nodes = (
(429,-117,l),
(429,22,l),
(329,22,ls),
(277,22,o),
(262,46,o),
(262,87,cs),
(262,1018,ls),
(262,1059,o),
(277,1082,o),
(329,1082,cs),
(429,1082,l),
(429,1221,l),
(282,1221,ls),
(167,1221,o),
(95,1171,o),
(95,1034,cs),
(95,71,ls),
(95,-66,o),
(167,-117,o),
(282,-117,cs)
);
}
);
width = 269;
},
{
layerId = "1B8EDE0E-D46F-48F9-B9C6-2CD34FEA95FD";
shapes = (
{
closed = 1;
nodes = (
(395,-148,l),
(395,-32,l),
(315,-32,ls),
(264,-32,o),
(244,-13,o),
(244,41,cs),
(244,1032,ls),
(244,1086,o),
(264,1104,o),
(315,1104,cs),
(395,1104,l),
(395,1221,l),
(278,1221,ls),
(170,1221,o),
(105,1175,o),
(105,1048,cs),
(105,25,ls),
(105,-102,o),
(170,-148,o),
(278,-148,cs)
);
}
);
width = 474;
}
);
metricLeft = "=H";
unicode = 91;
},
{
glyphname = bracketright;
lastChange = "2025-11-27 15:24:51 +0000";
layers = (
{
layerId = m004;
shapes = (
{
closed = 1;
nodes = (
(145,-117,o),
(186,-85,o),
(186,14,cs),
(186,1090,ls),
(186,1190,o),
(145,1221,o),
(55,1221,cs),
(32,1221,l),
(32,1174,l),
(55,1174,ls),
(102,1174,o),
(132,1164,o),
(132,1075,cs),
(132,30,ls),
(132,-60,o),
(102,-69,o),
(55,-69,cs),
(32,-69,l),
(32,-117,l),
(55,-117,ls)
);
}
);
width = 266;
},
{
layerId = m005;
shapes = (
{
closed = 1;
nodes = (
(269,-117,o),
(342,-66,o),
(342,71,cs),
(342,1034,ls),
(342,1171,o),
(269,1221,o),
(154,1221,cs),
(8,1221,l),
(8,1082,l),
(107,1082,ls),
(159,1082,o),
(175,1059,o),
(175,1018,cs),
(175,87,ls),
(175,46,o),
(159,22,o),
(107,22,cs),
(8,22,l),
(8,-117,l),
(154,-117,ls)
);
}
);
width = 437;
},
{
layerId = "1B8EDE0E-D46F-48F9-B9C6-2CD34FEA95FD";
shapes = (
{
closed = 1;
nodes = (
(304,-148,o),
(369,-102,o),
(369,25,cs),
(369,1048,ls),
(369,1175,o),
(304,1221,o),
(195,1221,cs),
(79,1221,l),
(79,1104,l),
(159,1104,ls),
(210,1104,o),
(228,1086,o),
(228,1032,cs),
(228,41,ls),
(228,-13,o),
(210,-32,o),
(159,-32,cs),
(79,-32,l),
(79,-148,l),
(195,-148,ls)
);
}
);
width = 474;
}
);
metricRight = "=H";
unicode = 93;
},
{
glyphname = quotesinglbase;
lastChange = "2025-11-26 14:44:30 +0000";
layers = (
{
layerId = m004;
shapes = (
{
closed = 1;
nodes = (
(123,-24,o),
(139,-3,o),
(139,57,cs),
(139,102,o),
(128,113,o),
(93,113,cs),
(58,113,o),
(47,102,o),
(47,68,cs),
(47,27,o),
(65,24,o),
(82,24,cs),
(88,24,o),
(93,25,o),
(98,27,c),
(98,11,o),
(93,-16,o),
(79,-38,c),
(113,-38,l)
);
}
);
width = 140;
},
{
layerId = m005;
shapes = (
{
closed = 1;
nodes = (
(188,-20,o),
(229,43,o),
(229,152,cs),
(229,261,o),
(206,284,o),
(124,284,cs),
(42,284,o),
(18,261,o),
(18,179,cs),
(18,81,o),
(58,73,o),
(98,73,cs),
(109,73,o),
(124,76,o),
(136,81,c),
(128,28,o),
(102,-4,o),
(70,-37,c),
(117,-92,l)
);
}
);
width = 147;
},
{
layerId = "1B8EDE0E-D46F-48F9-B9C6-2CD34FEA95FD";
shapes = (
{
closed = 1;
nodes = (
(168,-19,o),
(201,32,o),
(201,128,cs),
(201,221,o),
(180,243,o),
(109,243,cs),
(40,243,o),
(20,221,o),
(20,151,cs),
(20,68,o),
(53,61,o),
(87,61,cs),
(98,61,o),
(113,65,o),
(121,68,c),
(114,22,o),
(94,-6,o),
(65,-38,c),
(111,-79,l)
);
}
);
width = 134;
}
);
unicode = 8218;
},
{
glyphname = quoteleft;
lastChange = "2025-11-27 11:56:28 +0000";
layers = (
{
layerId = m004;
shapes = (
{
closed = 1;
nodes = (
(128,1126,l),
(55,841,l),
(159,841,l),
(199,1126,l)
);
}
);
width = 279;
},
{
layerId = m005;
shapes = (
{
closed = 1;
nodes = (
(180,1126,l),
(55,841,l),
(263,841,l),
(330,1126,l)
);
}
);
width = 410;
},
{
layerId = "1B8EDE0E-D46F-48F9-B9C6-2CD34FEA95FD";
shapes = (
{
closed = 1;
nodes = (
(238,1126,l),
(55,1126,l),
(180,841,l),
(304,841,l)
);
}
);
width = 384;
}
);
metricLeft = "=55";
metricRight = "=80";
unicode = 8216;
},
{
glyphname = quoteright;
lastChange = "2025-11-28 10:21:35 +0000";
layers = (
{
layerId = m004;
shapes = (
{
closed = 1;
nodes = (
(151,841,l),
(223,1126,l),
(119,1126,l),
(80,841,l)
);
}
);
width = 278;
},
{
layerId = m005;
shapes = (
{
closed = 1;
nodes = (
(169,841,l),
(293,1126,l),
(86,1126,l),
(20,841,l)
);
}
);
width = 348;
},
{
layerId = "1B8EDE0E-D46F-48F9-B9C6-2CD34FEA95FD";
shapes = (
{
closed = 1;
nodes = (
(202,841,l),
(327,1126,l),
(146,1126,l),
(80,841,l)
);
}
);
width = 382;
}
);
metricLeft = "=+20";
metricRight = "=55";
unicode = 8217;
},
{
glyphname = guillemetleft;
lastChange = "2025-11-26 14:44:30 +0000";
layers = (
{
layerId = m004;
shapes = (
{
closed = 1;
nodes = (
(186,529,l),
(55,295,l),
(186,61,l),
(252,61,l),
(126,292,l),
(251,529,l)
);
},
{
closed = 1;
nodes = (
(350,529,l),
(219,295,l),
(350,61,l),
(416,61,l),
(290,292,l),
(414,529,l)
);
}
);
width = 290;
},
{
layerId = m005;
shapes = (
{
closed = 1;
nodes = (
(162,529,l),
(32,295,l),
(162,61,l),
(299,61,l),
(173,292,l),
(298,529,l)
);
},
{
closed = 1;
nodes = (
(430,529,l),
(299,295,l),
(430,61,l),
(567,61,l),
(441,292,l),
(566,529,l)
);
}
);
width = 331;
},
{
layerId = "1B8EDE0E-D46F-48F9-B9C6-2CD34FEA95FD";
shapes = (
{
closed = 1;
nodes = (
(162,529,l),
(32,295,l),
(162,61,l),
(282,61,l),
(156,292,l),
(280,529,l)
);
},
{
closed = 1;
nodes = (
(403,529,l),
(273,295,l),
(403,61,l),
(523,61,l),
(397,292,l),
(521,529,l)
);
}
);
width = 309;
}
);
unicode = 171;
},
{
glyphname = guillemetright;
lastChange = "2025-11-26 14:44:30 +0000";
layers = (
{
layerId = m004;
shapes = (
{
closed = 1;
nodes = (
(345,292,l),
(219,61,l),
(285,61,l),
(416,295,l),
(285,529,l),
(221,529,l)
);
},
{
closed = 1;
nodes = (
(181,292,l),
(55,61,l),
(121,61,l),
(252,295,l),
(121,529,l),
(57,529,l)
);
}
);
width = 290;
},
{
layerId = m005;
shapes = (
{
closed = 1;
nodes = (
(425,292,l),
(299,61,l),
(436,61,l),
(567,295,l),
(436,529,l),
(301,529,l)
);
},
{
closed = 1;
nodes = (
(158,292,l),
(32,61,l),
(169,61,l),
(299,295,l),
(169,529,l),
(33,529,l)
);
}
);
width = 331;
},
{
layerId = "1B8EDE0E-D46F-48F9-B9C6-2CD34FEA95FD";
shapes = (
{
closed = 1;
nodes = (
(399,292,l),
(273,61,l),
(392,61,l),
(523,295,l),
(392,529,l),
(274,529,l)
);
},
{
closed = 1;
nodes = (
(158,292,l),
(32,61,l),
(151,61,l),
(282,295,l),
(151,529,l),
(33,529,l)
);
}
);
width = 309;
}
);
unicode = 187;
},
{
glyphname = guilsinglleft;
lastChange = "2025-11-26 14:44:30 +0000";
layers = (
{
layerId = m004;
shapes = (
{
closed = 1;
nodes = (
(186,529,l),
(55,295,l),
(186,61,l),
(252,61,l),
(126,292,l),
(251,529,l)
);
}
);
width = 209;
},
{
layerId = m005;
shapes = (
{
closed = 1;
nodes = (
(162,529,l),
(32,295,l),
(162,61,l),
(299,61,l),
(173,292,l),
(298,529,l)
);
}
);
width = 197;
},
{
layerId = "1B8EDE0E-D46F-48F9-B9C6-2CD34FEA95FD";
shapes = (
{
closed = 1;
nodes = (
(162,529,l),
(32,295,l),
(162,61,l),
(282,61,l),
(156,292,l),
(280,529,l)
);
}
);
width = 188;
}
);
unicode = 8249;
},
{
glyphname = guilsinglright;
lastChange = "2025-11-26 14:44:30 +0000";
layers = (
{
layerId = m004;
shapes = (
{
closed = 1;
nodes = (
(181,292,l),
(55,61,l),
(121,61,l),
(252,295,l),
(121,529,l),
(57,529,l)
);
}
);
width = 209;
},
{
layerId = m005;
shapes = (
{
closed = 1;
nodes = (
(158,292,l),
(32,61,l),
(169,61,l),
(299,295,l),
(169,529,l),
(33,529,l)
);
}
);
width = 197;
},
{
layerId = "1B8EDE0E-D46F-48F9-B9C6-2CD34FEA95FD";
shapes = (
{
closed = 1;
nodes = (
(158,292,l),
(32,61,l),
(151,61,l),
(282,295,l),
(151,529,l),
(33,529,l)
);
}
);
width = 188;
}
);
unicode = 8250;
},
{
glyphname = quotedbl;
lastChange = "2025-11-27 11:56:36 +0000";
layers = (
{
layerId = m004;
shapes = (
{
closed = 1;
nodes = (
(143,410,l),
(162,662,l),
(80,662,l),
(99,410,l)
);
},
{
closed = 1;
nodes = (
(323,410,l),
(342,662,l),
(260,662,l),
(279,410,l)
);
}
);
width = 422;
},
{
layerId = m005;
shapes = (
{
closed = 1;
nodes = (
(199,362,l),
(217,709,l),
(57,709,l),
(76,362,l)
);
},
{
closed = 1;
nodes = (
(425,362,l),
(444,709,l),
(284,709,l),
(303,362,l)
);
}
);
width = 501;
},
{
layerId = "1B8EDE0E-D46F-48F9-B9C6-2CD34FEA95FD";
shapes = (
{
closed = 1;
nodes = (
(180,374,l),
(199,697,l),
(57,697,l),
(76,374,l)
);
},
{
closed = 1;
nodes = (
(394,374,l),
(413,697,l),
(273,697,l),
(291,374,l)
);
}
);
width = 470;
}
);
metricRight = "=|";
unicode = 34;
},
{
glyphname = quotesingle;
lastChange = "2025-11-26 14:44:30 +0000";
layers = (
{
layerId = m004;
shapes = (
{
closed = 1;
nodes = (
(127,764,l),
(143,1024,l),
(65,1024,l),
(81,764,l)
);
}
);
width = 208;
},
{
layerId = m005;
shapes = (
{
closed = 1;
nodes = (
(251,670,l),
(277,1024,l),
(57,1024,l),
(84,670,l)
);
}
);
width = 334;
},
{
layerId = "1B8EDE0E-D46F-48F9-B9C6-2CD34FEA95FD";
shapes = (
{
closed = 1;
nodes = (
(180,764,l),
(206,1024,l),
(57,1024,l),
(84,764,l)
);
}
);
width = 263;
}
);
metricRight = "=|";
unicode = 39;
},
{
glyphname = at;
lastChange = "2025-11-26 14:44:30 +0000";
layers = (
{
layerId = m004;
shapes = (
{
closed = 1;
nodes = (
(960,195,o),
(902,147,o),
(848,147,cs),
(773,147,o),
(708,195,o),
(722,305,cs),
(779,754,l),
(730,754,l),
(721,685,l),
(675,757,o),
(625,768,o),
(573,768,cs),
(445,768,o),
(330,718,o),
(302,483,cs),
(275,259,o),
(362,202,o),
(502,202,cs),
(570,202,o),
(626,221,o),
(669,299,c),
(669,299,l),
(658,185,o),
(735,97,o),
(841,97,cs),
(916,97,o),
(1023,155,o),
(1069,273,cs),
(1094,336,o),
(1108,407,o),
(1108,486,cs),
(1108,811,o),
(919,1015,o),
(579,1015,cs),
(237,1015,o),
(48,811,o),
(48,486,cs),
(48,160,o),
(237,-45,o),
(644,-45,c),
(644,4,l),
(284,4,o),
(102,191,o),
(102,486,cs),
(102,779,o),
(284,967,o),
(579,967,cs),
(872,967,o),
(1055,763,o),
(1055,486,cs),
(1055,406,o),
(1037,322,o),
(1001,262,cs)
);
},
{
closed = 1;
nodes = (
(393,256,o),
(325,288,o),
(351,483,cs),
(377,689,o),
(451,724,o),
(547,724,cs),
(636,724,o),
(708,705,o),
(680,483,cs),
(655,288,o),
(577,256,o),
(489,256,cs)
);
}
);
width = 1156;
},
{
layerId = m005;
shapes = (
{
closed = 1;
nodes = (
(918,202,o),
(867,171,o),
(826,171,cs),
(782,171,o),
(733,207,o),
(741,267,cs),
(803,754,l),
(707,754,l),
(688,724,l),
(651,757,o),
(601,768,o),
(549,768,cs),
(421,768,o),
(306,718,o),
(278,483,cs),
(251,259,o),
(338,202,o),
(478,202,cs),
(546,202,o),
(603,221,o),
(645,267,c),
(647,267,l),
(636,154,o),
(711,97,o),
(817,97,cs),
(893,97,o),
(1000,155,o),
(1045,273,cs),
(1071,336,o),
(1085,407,o),
(1085,486,cs),
(1085,811,o),
(880,1015,o),
(555,1015,cs),
(229,1015,o),
(24,811,o),
(24,486,cs),
(24,160,o),
(229,-45,o),
(620,-45,c),
(620,24,l),
(277,24,o),
(109,207,o),
(109,486,cs),
(109,763,o),
(277,930,o),
(555,930,cs),
(833,930,o),
(1000,763,o),
(1000,486,cs),
(1000,406,o),
(982,333,o),
(952,273,cs)
);
},
{
closed = 1;
nodes = (
(437,305,o),
(384,330,o),
(404,483,cs),
(425,645,o),
(483,666,o),
(559,666,cs),
(628,666,o),
(685,645,o),
(663,483,cs),
(645,355,o),
(582,305,o),
(513,305,cs)
);
}
);
width = 1109;
},
{
layerId = "1B8EDE0E-D46F-48F9-B9C6-2CD34FEA95FD";
shapes = (
{
closed = 1;
nodes = (
(922,201,o),
(870,165,o),
(826,165,cs),
(774,165,o),
(721,206,o),
(730,277,cs),
(792,754,l),
(707,754,l),
(691,714,l),
(651,757,o),
(601,768,o),
(549,768,cs),
(421,768,o),
(306,718,o),
(278,483,cs),
(251,259,o),
(338,202,o),
(478,202,cs),
(546,202,o),
(603,221,o),
(645,275,c),
(647,275,l),
(636,161,o),
(711,97,o),
(817,97,cs),
(893,97,o),
(1000,155,o),
(1045,273,cs),
(1071,336,o),
(1085,407,o),
(1085,486,cs),
(1085,811,o),
(885,1015,o),
(555,1015,cs),
(226,1015,o),
(24,811,o),
(24,486,cs),
(24,160,o),
(226,-45,o),
(620,-45,c),
(620,20,l),
(273,20,o),
(102,204,o),
(102,486,cs),
(102,768,o),
(273,940,o),
(555,940,cs),
(837,940,o),
(1008,763,o),
(1008,486,cs),
(1008,406,o),
(990,330,o),
(959,270,cs)
);
},
{
closed = 1;
nodes = (
(420,292,o),
(363,319,o),
(385,483,cs),
(407,655,o),
(469,680,o),
(549,680,cs),
(625,680,o),
(685,661,o),
(661,483,cs),
(642,340,o),
(576,292,o),
(502,292,cs)
);
}
);
width = 1109;
}
);
metricRight = "=|";
unicode = 64;
},
{
glyphname = ampersand;
lastChange = "2025-11-27 14:51:50 +0000";
layers = (
{
layerId = m004;
shapes = (
{
closed = 1;
nodes = (
(674,-14,o),
(827,85,o),
(828,329,cs),
(828,605,l),
(875,605,l),
(875,660,l),
(451,660,ls),
(265,660,o),
(203,749,o),
(203,879,cs),
(203,1007,o),
(263,1113,o),
(451,1113,cs),
(638,1113,o),
(698,1007,o),
(698,879,c),
(761,879,l),
(761,1057,o),
(640,1168,o),
(451,1168,cs),
(262,1168,o),
(140,1057,o),
(140,882,cs),
(140,766,o),
(182,676,o),
(286,633,c),
(168,586,o),
(104,480,o),
(104,315,cs),
(104,87,o),
(246,-14,o),
(451,-14,cs)
);
},
{
closed = 1;
nodes = (
(256,42,o),
(166,132,o),
(166,312,cs),
(166,492,o),
(239,603,o),
(449,605,cs),
(766,605,l),
(766,329,ls),
(766,132,o),
(655,42,o),
(451,42,cs)
);
}
);
width = 979;
},
{
layerId = m005;
shapes = (
{
closed = 1;
nodes = (
(723,-10,o),
(868,109,o),
(868,354,cs),
(868,555,l),
(939,555,l),
(939,712,l),
(438,712,ls),
(343,712,o),
(288,773,o),
(288,851,cs),
(288,936,o),
(326,1005,o),
(438,1005,cs),
(551,1005,o),
(589,936,o),
(589,851,cs),
(782,849,l),
(782,1057,o),
(643,1163,o),
(438,1163,cs),
(234,1163,o),
(95,1052,o),
(95,860,cs),
(95,768,o),
(130,695,o),
(187,643,c),
(99,582,o),
(43,482,o),
(43,345,cs),
(43,101,o),
(199,-10,o),
(438,-10,cs)
);
},
{
closed = 1;
nodes = (
(308,147,o),
(236,225,o),
(236,354,cs),
(236,478,o),
(291,555,o),
(438,555,cs),
(676,555,l),
(676,354,ls),
(676,225,o),
(614,147,o),
(438,147,cs)
);
}
);
width = 982;
},
{
layerId = "1B8EDE0E-D46F-48F9-B9C6-2CD34FEA95FD";
shapes = (
{
closed = 1;
nodes = (
(657,-24,o),
(769,82,o),
(769,305,cs),
(769,502,l),
(883,502,l),
(883,621,l),
(442,621,ls),
(332,621,o),
(273,684,o),
(273,767,cs),
(273,856,o),
(321,929,o),
(442,929,cs),
(561,929,o),
(608,856,o),
(608,767,c),
(748,767,l),
(748,950,o),
(625,1048,o),
(442,1048,cs),
(257,1048,o),
(133,946,o),
(133,774,cs),
(133,684,o),
(167,614,o),
(230,568,c),
(143,516,o),
(96,428,o),
(96,296,cs),
(96,76,o),
(230,-24,o),
(442,-24,cs)
);
},
{
closed = 1;
nodes = (
(306,95,o),
(236,171,o),
(236,301,cs),
(236,429,o),
(292,502,o),
(440,502,cs),
(629,502,l),
(629,305,ls),
(629,171,o),
(561,95,o),
(442,95,cs)
);
}
);
width = 963;
}
);
unicode = 38;
},
{
glyphname = copyright;
lastChange = "2025-11-26 14:44:30 +0000";
layers = (
{
layerId = m004;
shapes = (
{
closed = 1;
nodes = (
(872,-9,o),
(1108,228,o),
(1108,522,cs),
(1108,815,o),
(872,1052,o),
(579,1052,cs),
(284,1052,o),
(48,815,o),
(48,522,cs),
(48,228,o),
(284,-9,o),
(579,-9,cs)
);
},
{
closed = 1;
nodes = (
(313,45,o),
(102,256,o),
(102,522,cs),
(102,787,o),
(313,998,o),
(579,998,cs),
(844,998,o),
(1055,787,o),
(1055,522,cs),
(1055,256,o),
(844,45,o),
(579,45,cs)
);
},
{
closed = 1;
nodes = (
(707,234,o),
(798,297,o),
(801,414,c),
(754,414,l),
(749,325,o),
(685,281,o),
(577,281,cs),
(486,281,o),
(392,352,o),
(392,521,cs),
(392,694,o),
(486,760,o),
(577,760,cs),
(685,760,o),
(749,716,o),
(754,628,c),
(801,628,l),
(798,744,o),
(707,807,o),
(577,807,cs),
(455,807,o),
(340,726,o),
(340,521,cs),
(340,321,o),
(453,234,o),
(577,234,cs)
);
}
);
width = 1156;
},
{
layerId = m005;
shapes = (
{
closed = 1;
nodes = (
(848,-9,o),
(1085,228,o),
(1085,522,cs),
(1085,815,o),
(848,1052,o),
(555,1052,cs),
(261,1052,o),
(24,815,o),
(24,522,cs),
(24,228,o),
(261,-9,o),
(555,-9,cs)
);
},
{
closed = 1;
nodes = (
(319,95,o),
(128,286,o),
(128,522,cs),
(128,757,o),
(319,948,o),
(555,948,cs),
(790,948,o),
(981,757,o),
(981,522,cs),
(981,286,o),
(790,95,o),
(555,95,cs)
);
},
{
closed = 1;
nodes = (
(659,213,o),
(800,251,o),
(800,423,c),
(675,423,l),
(675,343,o),
(623,327,o),
(555,327,cs),
(467,327,o),
(421,385,o),
(421,521,cs),
(421,658,o),
(467,713,o),
(555,713,cs),
(623,713,o),
(675,686,o),
(675,620,c),
(800,620,l),
(800,778,o),
(659,830,o),
(555,830,cs),
(396,825,o),
(283,740,o),
(283,521,cs),
(283,302,o),
(396,213,o),
(555,213,cs)
);
}
);
width = 1109;
},
{
layerId = "1B8EDE0E-D46F-48F9-B9C6-2CD34FEA95FD";
shapes = (
{
closed = 1;
nodes = (
(848,-9,o),
(1085,228,o),
(1085,522,cs),
(1085,815,o),
(848,1052,o),
(555,1052,cs),
(261,1052,o),
(24,815,o),
(24,522,cs),
(24,228,o),
(261,-9,o),
(555,-9,cs)
);
},
{
closed = 1;
nodes = (
(311,83,o),
(116,278,o),
(116,522,cs),
(116,765,o),
(311,960,o),
(555,960,cs),
(798,960,o),
(993,765,o),
(993,522,cs),
(993,278,o),
(798,83,o),
(555,83,cs)
);
},
{
closed = 1;
nodes = (
(666,218,o),
(793,261,o),
(795,420,c),
(689,420,l),
(688,338,o),
(633,316,o),
(555,316,cs),
(466,316,o),
(409,377,o),
(409,521,cs),
(409,667,o),
(466,726,o),
(555,726,cs),
(633,726,o),
(688,692,o),
(689,622,c),
(795,622,l),
(793,771,o),
(666,825,o),
(555,825,cs),
(403,820,o),
(291,737,o),
(291,521,cs),
(291,306,o),
(404,218,o),
(555,218,cs)
);
}
);
width = 1109;
}
);
metricRight = "=|";
unicode = 169;
},
{
glyphname = registered;
lastChange = "2025-11-27 11:56:28 +0000";
layers = (
{
layerId = m004;
shapes = (
{
closed = 1;
nodes = (
(587,230,o),
(739,383,o),
(739,574,cs),
(739,764,o),
(587,917,o),
(396,917,cs),
(205,917,o),
(53,764,o),
(53,574,cs),
(53,383,o),
(205,230,o),
(396,230,cs)
);
},
{
closed = 1;
nodes = (
(230,274,o),
(94,407,o),
(94,574,cs),
(94,740,o),
(230,875,o),
(396,875,cs),
(562,875,o),
(696,740,o),
(696,574,cs),
(696,407,o),
(562,274,o),
(396,274,cs)
);
},
{
closed = 1;
nodes = (
(328,428,l),
(328,562,l),
(406,562,l),
(469,428,l),
(509,428,l),
(445,565,l),
(481,572,o),
(502,598,o),
(502,650,cs),
(502,723,o),
(467,740,o),
(417,740,cs),
(292,740,l),
(292,428,l)
);
},
{
closed = 1;
nodes = (
(328,707,l),
(420,707,ls),
(448,707,o),
(469,695,o),
(469,650,cs),
(469,607,o),
(448,594,o),
(420,594,cs),
(328,594,l)
);
}
);
width = 792;
},
{
layerId = m005;
shapes = (
{
closed = 1;
nodes = (
(561,230,o),
(713,383,o),
(713,574,cs),
(713,764,o),
(561,917,o),
(370,917,cs),
(179,917,o),
(27,764,o),
(27,574,cs),
(27,383,o),
(179,230,o),
(370,230,cs)
);
},
{
closed = 1;
nodes = (
(216,296,o),
(91,419,o),
(91,574,cs),
(91,728,o),
(216,853,o),
(370,853,cs),
(524,853,o),
(647,728,o),
(647,574,cs),
(647,419,o),
(524,296,o),
(370,296,cs)
);
},
{
closed = 1;
nodes = (
(321,428,l),
(321,553,l),
(370,553,l),
(431,428,l),
(497,428,l),
(434,558,l),
(467,568,o),
(493,594,o),
(493,650,cs),
(493,735,o),
(438,750,o),
(387,750,cs),
(263,750,l),
(263,428,l)
);
},
{
closed = 1;
nodes = (
(321,700,l),
(387,700,ls),
(412,700,o),
(431,691,o),
(431,650,cs),
(431,610,o),
(412,601,o),
(387,601,cs),
(321,601,l)
);
}
);
width = 740;
},
{
layerId = "1B8EDE0E-D46F-48F9-B9C6-2CD34FEA95FD";
shapes = (
{
closed = 1;
nodes = (
(561,230,o),
(713,383,o),
(713,574,cs),
(713,764,o),
(561,917,o),
(370,917,cs),
(179,917,o),
(27,764,o),
(27,574,cs),
(27,383,o),
(179,230,o),
(370,230,cs)
);
},
{
closed = 1;
nodes = (
(212,291,o),
(86,416,o),
(86,574,cs),
(86,731,o),
(212,858,o),
(370,858,cs),
(528,858,o),
(653,731,o),
(653,574,cs),
(653,416,o),
(528,291,o),
(370,291,cs)
);
},
{
closed = 1;
nodes = (
(316,428,l),
(316,555,l),
(373,555,l),
(434,428,l),
(493,428,l),
(431,560,l),
(464,568,o),
(490,596,o),
(490,650,cs),
(490,731,o),
(439,747,o),
(389,747,cs),
(264,747,l),
(264,428,l)
);
},
{
closed = 1;
nodes = (
(316,702,l),
(389,702,ls),
(415,702,o),
(434,693,o),
(434,650,cs),
(434,608,o),
(415,600,o),
(389,600,cs),
(316,600,l)
);
}
);
width = 740;
}
);
metricRight = "=|";
unicode = 174;
},
{
glyphname = trademark;
lastChange = "2025-11-26 14:44:30 +0000";
layers = (
{
layerId = m004;
shapes = (
{
closed = 1;
nodes = (
(223,265,l),
(223,720,l),
(366,720,l),
(366,761,l),
(32,761,l),
(32,720,l),
(179,720,l),
(179,265,l)
);
},
{
closed = 1;
nodes = (
(472,263,l),
(472,740,l),
(440,739,l),
(653,263,l),
(663,263,l),
(875,739,l),
(844,740,l),
(844,263,l),
(886,263,l),
(886,761,l),
(844,761,l),
(634,293,l),
(681,293,l),
(472,761,l),
(431,761,l),
(431,263,l)
);
}
);
width = 649;
},
{
layerId = m005;
shapes = (
{
closed = 1;
nodes = (
(265,270,l),
(265,661,l),
(394,661,l),
(394,755,l),
(24,755,l),
(24,661,l),
(153,661,l),
(153,270,l)
);
},
{
closed = 1;
nodes = (
(566,269,l),
(566,648,l),
(521,595,l),
(682,269,l),
(763,269,l),
(922,595,l),
(878,648,l),
(878,269,l),
(974,269,l),
(974,755,l),
(887,755,l),
(681,317,l),
(767,317,l),
(556,755,l),
(470,755,l),
(470,269,l)
);
}
);
width = 638;
},
{
layerId = "1B8EDE0E-D46F-48F9-B9C6-2CD34FEA95FD";
shapes = (
{
closed = 1;
nodes = (
(248,269,l),
(248,675,l),
(380,675,l),
(380,757,l),
(20,757,l),
(20,675,l),
(154,675,l),
(154,269,l)
);
},
{
closed = 1;
nodes = (
(536,267,l),
(536,672,l),
(496,631,l),
(669,267,l),
(732,267,l),
(905,631,l),
(863,672,l),
(863,267,l),
(946,267,l),
(946,757,l),
(870,757,l),
(664,311,l),
(740,311,l),
(530,757,l),
(455,757,l),
(455,267,l)
);
}
);
width = 628;
}
);
unicode = 8482;
},
{
glyphname = second;
lastChange = "2025-11-27 11:56:28 +0000";
layers = (
{
layerId = m004;
shapes = (
{
closed = 1;
nodes = (
(182,399,l),
(289,780,l),
(165,780,l),
(99,399,l)
);
},
{
closed = 1;
nodes = (
(380,399,l),
(487,780,l),
(362,780,l),
(296,399,l)
);
}
);
width = 586;
},
{
layerId = m005;
shapes = (
{
closed = 1;
nodes = (
(208,399,l),
(315,780,l),
(139,780,l),
(73,399,l)
);
},
{
closed = 1;
nodes = (
(458,399,l),
(565,780,l),
(388,780,l),
(322,399,l)
);
}
);
width = 638;
},
{
layerId = "1B8EDE0E-D46F-48F9-B9C6-2CD34FEA95FD";
shapes = (
{
closed = 1;
nodes = (
(196,399,l),
(303,780,l),
(139,780,l),
(73,399,l)
);
},
{
closed = 1;
nodes = (
(432,399,l),
(539,780,l),
(376,780,l),
(310,399,l)
);
}
);
width = 612;
}
);
metricRight = "=|";
unicode = 8243;
},
{
glyphname = bar;
lastChange = "2025-11-27 11:56:28 +0000";
layers = (
{
layerId = m004;
shapes = (
{
closed = 1;
nodes = (
(99,1282,l),
(99,-104,l),
(161,-104,l),
(161,1282,l)
);
}
);
width = 260;
},
{
layerId = m005;
shapes = (
{
closed = 1;
nodes = (
(17,1281,l),
(17,-102,l),
(159,-102,l),
(159,1281,l)
);
}
);
width = 176;
},
{
layerId = "1B8EDE0E-D46F-48F9-B9C6-2CD34FEA95FD";
shapes = (
{
closed = 1;
nodes = (
(31,1282,l),
(31,-103,l),
(153,-103,l),
(153,1282,l)
);
}
);
width = 184;
}
);
metricRight = "=|";
unicode = 124;
},
{
glyphname = dollar;
lastChange = "2025-11-27 14:52:53 +0000";
layers = (
{
layerId = m004;
shapes = (
{
closed = 1;
nodes = (
(480,-71,l),
(480,1340,l),
(416,1340,l),
(416,-71,l)
);
},
{
ref = S;
}
);
width = 788;
},
{
background = {
shapes = (
{
closed = 1;
nodes = (
(348,-10,o),
(415,42,o),
(415,143,cs),
(415,232,o),
(368,269,o),
(252,330,cs),
(169,373,o),
(151,373,o),
(151,429,cs),
(151,478,o),
(172,491,o),
(226,491,cs),
(259,491,o),
(322,486,o),
(366,477,c),
(366,560,l),
(322,568,o),
(267,574,o),
(227,574,cs),
(143,574,o),
(64,541,o),
(64,430,cs),
(64,338,o),
(122,302,o),
(211,252,cs),
(315,195,o),
(328,191,o),
(328,143,cs),
(328,85,o),
(308,72,o),
(223,72,cs),
(191,72,o),
(127,74,o),
(84,82,c),
(84,0,l),
(127,-8,o),
(183,-10,o),
(223,-10,cs)
);
}
);
};
layerId = m005;
shapes = (
{
closed = 1;
nodes = (
(468,-71,l),
(468,1340,l),
(367,1340,l),
(367,-71,l)
);
},
{
ref = S;
}
);
width = 847;
},
{
layerId = "1B8EDE0E-D46F-48F9-B9C6-2CD34FEA95FD";
shapes = (
{
closed = 1;
nodes = (
(464,-71,l),
(464,1340,l),
(373,1340,l),
(373,-71,l)
);
},
{
ref = S;
}
);
width = 832;
}
);
metricLeft = "=S";
metricRight = "=S";
unicode = 36;
},
{
glyphname = euro;
lastChange = "2025-11-26 14:44:30 +0000";
layers = (
{
layerId = m004;
shapes = (
{
closed = 1;
nodes = (
(662,-9,o),
(808,124,o),
(808,325,c),
(752,325,l),
(752,165,o),
(643,41,o),
(471,41,cs),
(296,41,o),
(156,206,o),
(156,521,cs),
(156,837,o),
(296,1002,o),
(471,1002,cs),
(641,1002,o),
(752,878,o),
(752,718,c),
(808,718,l),
(808,919,o),
(662,1052,o),
(471,1052,cs),
(276,1052,o),
(95,903,o),
(95,521,cs),
(95,140,o),
(276,-9,o),
(471,-9,cs)
);
},
{
closed = 1;
nodes = (
(47,569,l),
(591,569,l),
(591,619,l),
(47,619,l)
);
},
{
closed = 1;
nodes = (
(47,429,l),
(591,429,l),
(591,479,l),
(47,479,l)
);
}
);
width = 520;
},
{
layerId = m005;
shapes = (
{
closed = 1;
nodes = (
(707,-8,o),
(923,77,o),
(923,328,c),
(761,328,l),
(761,180,o),
(662,131,o),
(550,131,cs),
(369,131,o),
(282,265,o),
(282,521,cs),
(282,778,o),
(369,912,o),
(550,912,cs),
(659,912,o),
(761,865,o),
(761,715,c),
(923,715,l),
(923,975,o),
(704,1051,o),
(534,1051,cs),
(290,1051,o),
(124,895,o),
(124,521,cs),
(124,156,o),
(290,-8,o),
(534,-8,cs)
);
},
{
closed = 1;
nodes = (
(16,573,l),
(638,573,l),
(638,676,l),
(16,676,l)
);
},
{
closed = 1;
nodes = (
(16,369,l),
(638,369,l),
(638,471,l),
(16,471,l)
);
}
);
width = 516;
},
{
layerId = "1B8EDE0E-D46F-48F9-B9C6-2CD34FEA95FD";
shapes = (
{
closed = 1;
nodes = (
(689,-9,o),
(888,89,o),
(888,327,c),
(752,327,l),
(752,177,o),
(650,109,o),
(524,109,cs),
(344,109,o),
(245,251,o),
(245,522,cs),
(245,793,o),
(344,935,o),
(524,935,cs),
(648,935,o),
(752,869,o),
(752,716,c),
(888,716,l),
(888,962,o),
(688,1052,o),
(513,1052,cs),
(280,1052,o),
(111,897,o),
(111,522,cs),
(111,152,o),
(280,-9,o),
(513,-9,cs)
);
},
{
closed = 1;
nodes = (
(18,573,l),
(620,573,l),
(620,663,l),
(18,663,l)
);
},
{
closed = 1;
nodes = (
(18,384,l),
(620,384,l),
(620,473,l),
(18,473,l)
);
}
);
width = 505;
}
);
unicode = 8364;
},
{
glyphname = sterling;
lastChange = "2025-11-26 14:44:30 +0000";
layers = (
{
layerId = m004;
shapes = (
{
closed = 1;
nodes = (
(622,0,l),
(622,50,l),
(138,50,l),
(204,142,o),
(265,205,o),
(218,336,cs),
(182,436,o),
(125,569,o),
(125,725,cs),
(125,944,o),
(245,993,o),
(333,993,cs),
(431,993,o),
(551,944,o),
(551,709,c),
(611,709,l),
(611,944,o),
(494,1043,o),
(333,1043,cs),
(177,1043,o),
(72,944,o),
(72,725,cs),
(72,545,o),
(155,350,o),
(171,304,cs),
(202,221,o),
(128,131,o),
(43,27,c),
(43,0,l)
);
},
{
closed = 1;
nodes = (
(43,488,l),
(570,488,l),
(570,539,l),
(43,539,l)
);
}
);
width = 388;
},
{
layerId = m005;
shapes = (
{
closed = 1;
nodes = (
(728,0,l),
(728,150,l),
(336,150,l),
(403,214,o),
(550,301,o),
(367,487,cs),
(291,564,o),
(258,630,o),
(258,703,cs),
(258,829,o),
(304,895,o),
(408,893,cs),
(501,892,o),
(561,829,o),
(561,709,c),
(723,709,l),
(723,959,o),
(585,1043,o),
(408,1043,cs),
(236,1043,o),
(84,959,o),
(84,709,cs),
(84,564,o),
(140,487,o),
(222,400,cs),
(362,251,o),
(153,200,o),
(55,104,c),
(55,0,l)
);
},
{
closed = 1;
nodes = (
(16,449,l),
(614,449,l),
(614,580,l),
(16,580,l)
);
}
);
width = 388;
},
{
layerId = "1B8EDE0E-D46F-48F9-B9C6-2CD34FEA95FD";
shapes = (
{
closed = 1;
nodes = (
(696,0,l),
(696,124,l),
(281,124,l),
(349,197,o),
(473,276,o),
(324,449,cs),
(258,533,o),
(220,614,o),
(220,707,cs),
(220,857,o),
(283,920,o),
(384,919,cs),
(478,917,o),
(552,857,o),
(552,709,c),
(689,709,l),
(689,956,o),
(557,1043,o),
(384,1043,cs),
(217,1043,o),
(75,956,o),
(75,714,cs),
(75,559,o),
(138,454,o),
(204,377,cs),
(316,244,o),
(141,183,o),
(46,85,c),
(46,0,l)
);
},
{
closed = 1;
nodes = (
(17,458,l),
(598,458,l),
(598,569,l),
(17,569,l)
);
}
);
width = 375;
}
);
unicode = 163;
},
{
glyphname = plus;
lastChange = "2025-11-27 11:56:28 +0000";
layers = (
{
layerId = m004;
shapes = (
{
closed = 1;
nodes = (
(108,423,l),
(750,423,l),
(750,485,l),
(108,485,l)
);
},
{
closed = 1;
nodes = (
(398,775,l),
(398,133,l),
(460,133,l),
(460,775,l)
);
}
);
width = 858;
},
{
layerId = m005;
shapes = (
{
closed = 1;
nodes = (
(56,397,l),
(767,397,l),
(767,546,l),
(56,546,l)
);
},
{
closed = 1;
nodes = (
(337,827,l),
(337,116,l),
(486,116,l),
(486,827,l)
);
}
);
width = 823;
},
{
layerId = "1B8EDE0E-D46F-48F9-B9C6-2CD34FEA95FD";
shapes = (
{
closed = 1;
nodes = (
(63,403,l),
(756,403,l),
(756,531,l),
(63,531,l)
);
},
{
closed = 1;
nodes = (
(346,814,l),
(346,120,l),
(472,120,l),
(472,814,l)
);
}
);
width = 819;
}
);
metricRight = "=|";
unicode = 43;
},
{
glyphname = minus;
lastChange = "2025-11-27 11:56:28 +0000";
layers = (
{
layerId = m004;
shapes = (
{
closed = 1;
nodes = (
(108,278,l),
(750,278,l),
(750,341,l),
(108,341,l)
);
}
);
width = 858;
},
{
layerId = m005;
shapes = (
{
closed = 1;
nodes = (
(56,256,l),
(767,256,l),
(767,406,l),
(56,406,l)
);
}
);
width = 823;
},
{
layerId = "1B8EDE0E-D46F-48F9-B9C6-2CD34FEA95FD";
shapes = (
{
closed = 1;
nodes = (
(63,262,l),
(756,262,l),
(756,390,l),
(63,390,l)
);
}
);
width = 819;
}
);
metricRight = "=|";
unicode = 8722;
},
{
glyphname = multiply;
lastChange = "2025-11-27 11:56:28 +0000";
layers = (
{
layerId = m004;
shapes = (
{
closed = 1;
nodes = (
(643,214,l),
(189,668,l),
(144,623,l),
(598,169,l)
);
},
{
closed = 1;
nodes = (
(643,623,l),
(598,668,l),
(144,214,l),
(189,169,l)
);
}
);
width = 787;
},
{
layerId = m005;
shapes = (
{
closed = 1;
nodes = (
(686,243,l),
(184,746,l),
(83,646,l),
(586,143,l)
);
},
{
closed = 1;
nodes = (
(686,646,l),
(586,746,l),
(83,243,l),
(184,143,l)
);
}
);
width = 769;
},
{
layerId = "1B8EDE0E-D46F-48F9-B9C6-2CD34FEA95FD";
shapes = (
{
closed = 1;
nodes = (
(669,235,l),
(179,727,l),
(92,640,l),
(582,150,l)
);
},
{
closed = 1;
nodes = (
(669,640,l),
(582,727,l),
(92,235,l),
(179,150,l)
);
}
);
width = 761;
}
);
metricRight = "=|";
unicode = 215;
},
{
glyphname = divide;
lastChange = "2025-11-27 11:56:28 +0000";
layers = (
{
layerId = m004;
shapes = (
{
closed = 1;
nodes = (
(750,404,l),
(750,466,l),
(108,466,l),
(108,404,l)
);
},
{
closed = 1;
nodes = (
(451,641,l),
(451,717,l),
(372,717,l),
(372,641,l)
);
},
{
closed = 1;
nodes = (
(451,153,l),
(451,229,l),
(372,229,l),
(372,153,l)
);
}
);
width = 858;
},
{
layerId = m005;
shapes = (
{
closed = 1;
nodes = (
(767,397,l),
(767,546,l),
(56,546,l),
(56,397,l)
);
},
{
closed = 1;
nodes = (
(486,678,l),
(486,827,l),
(337,827,l),
(337,678,l)
);
},
{
closed = 1;
nodes = (
(486,116,l),
(486,265,l),
(337,265,l),
(337,116,l)
);
}
);
width = 823;
},
{
layerId = "1B8EDE0E-D46F-48F9-B9C6-2CD34FEA95FD";
shapes = (
{
closed = 1;
nodes = (
(756,398,l),
(756,526,l),
(63,526,l),
(63,398,l)
);
},
{
closed = 1;
nodes = (
(471,668,l),
(471,798,l),
(339,798,l),
(339,668,l)
);
},
{
closed = 1;
nodes = (
(471,126,l),
(471,256,l),
(339,256,l),
(339,126,l)
);
}
);
width = 819;
}
);
metricRight = "=|";
unicode = 247;
},
{
glyphname = equal;
lastChange = "2025-11-27 11:56:40 +0000";
layers = (
{
layerId = m004;
shapes = (
{
closed = 1;
nodes = (
(98,466,l),
(681,466,l),
(681,522,l),
(98,522,l)
);
},
{
closed = 1;
nodes = (
(98,182,l),
(681,182,l),
(681,239,l),
(98,239,l)
);
}
);
width = 779;
},
{
layerId = m005;
shapes = (
{
closed = 1;
nodes = (
(75,446,l),
(658,446,l),
(658,581,l),
(75,581,l)
);
},
{
closed = 1;
nodes = (
(75,162,l),
(658,162,l),
(658,298,l),
(75,298,l)
);
}
);
width = 733;
},
{
layerId = "1B8EDE0E-D46F-48F9-B9C6-2CD34FEA95FD";
shapes = (
{
closed = 1;
nodes = (
(75,451,l),
(658,451,l),
(658,567,l),
(75,567,l)
);
},
{
closed = 1;
nodes = (
(75,167,l),
(658,167,l),
(658,284,l),
(75,284,l)
);
}
);
width = 733;
}
);
metricRight = "=|";
unicode = 61;
},
{
glyphname = greater;
lastChange = "2025-11-26 14:44:30 +0000";
layers = (
{
layerId = m004;
shapes = (
{
closed = 1;
nodes = (
(134,794,l),
(764,425,l),
(764,482,l),
(134,852,l)
);
},
{
closed = 1;
nodes = (
(134,87,l),
(764,425,l),
(764,482,l),
(134,145,l)
);
}
);
width = 496;
},
{
layerId = m005;
shapes = (
{
closed = 1;
nodes = (
(55,690,l),
(733,391,l),
(733,526,l),
(55,841,l)
);
},
{
closed = 1;
nodes = (
(55,76,l),
(733,391,l),
(733,526,l),
(55,227,l)
);
}
);
width = 417;
},
{
layerId = "1B8EDE0E-D46F-48F9-B9C6-2CD34FEA95FD";
shapes = (
{
closed = 1;
nodes = (
(69,716,l),
(734,399,l),
(734,516,l),
(69,844,l)
);
},
{
closed = 1;
nodes = (
(69,78,l),
(734,399,l),
(734,516,l),
(69,207,l)
);
}
);
width = 425;
}
);
unicode = 62;
},
{
glyphname = less;
lastChange = "2025-11-26 14:44:30 +0000";
layers = (
{
layerId = m004;
shapes = (
{
closed = 1;
nodes = (
(47,490,l),
(47,433,l),
(677,802,l),
(677,860,l)
);
},
{
closed = 1;
nodes = (
(47,490,l),
(47,433,l),
(677,95,l),
(677,153,l)
);
}
);
width = 496;
},
{
layerId = m005;
shapes = (
{
closed = 1;
nodes = (
(24,526,l),
(24,391,l),
(701,690,l),
(701,841,l)
);
},
{
closed = 1;
nodes = (
(24,526,l),
(24,391,l),
(701,76,l),
(701,227,l)
);
}
);
width = 417;
},
{
layerId = "1B8EDE0E-D46F-48F9-B9C6-2CD34FEA95FD";
shapes = (
{
closed = 1;
nodes = (
(24,517,l),
(24,402,l),
(690,718,l),
(690,846,l)
);
},
{
closed = 1;
nodes = (
(24,517,l),
(24,402,l),
(690,80,l),
(690,208,l)
);
}
);
width = 425;
}
);
unicode = 60;
},
{
glyphname = percent;
lastChange = "2025-11-27 11:56:36 +0000";
layers = (
{
layerId = m004;
shapes = (
{
closed = 1;
nodes = (
(55,10,l),
(131,10,l),
(954,1133,l),
(878,1133,l)
);
},
{
closed = 1;
nodes = (
(656,414,o),
(708,447,o),
(772,447,cs),
(826,447,o),
(878,414,o),
(878,253,cs),
(878,90,o),
(826,57,o),
(772,57,cs),
(708,57,o),
(656,90,o),
(656,253,cs)
);
},
{
closed = 1;
nodes = (
(141,1036,o),
(193,1069,o),
(257,1069,cs),
(311,1069,o),
(363,1036,o),
(363,875,cs),
(363,712,o),
(311,679,o),
(257,679,cs),
(193,679,o),
(141,712,o),
(141,875,cs)
);
},
{
closed = 1;
nodes = (
(74,667,o),
(159,615,o),
(256,615,cs),
(346,615,o),
(429,667,o),
(429,875,cs),
(429,1081,o),
(346,1133,o),
(256,1133,cs),
(159,1133,o),
(74,1081,o),
(74,875,cs)
);
},
{
closed = 1;
nodes = (
(588,45,o),
(673,-7,o),
(770,-7,cs),
(860,-7,o),
(944,45,o),
(944,253,cs),
(944,459,o),
(860,511,o),
(770,511,cs),
(673,511,o),
(588,459,o),
(588,253,cs)
);
}
);
width = 1009;
},
{
layerId = m005;
shapes = (
{
closed = 1;
nodes = (
(17,10,l),
(203,10,l),
(962,1133,l),
(776,1133,l)
);
},
{
closed = 1;
nodes = (
(674,381,o),
(709,407,o),
(756,407,cs),
(795,407,o),
(830,381,o),
(830,253,cs),
(830,123,o),
(795,97,o),
(756,97,cs),
(709,97,o),
(674,123,o),
(674,253,cs)
);
},
{
closed = 1;
nodes = (
(165,993,o),
(196,1019,o),
(241,1019,cs),
(279,1019,o),
(310,993,o),
(310,875,cs),
(310,756,o),
(279,730,o),
(241,730,cs),
(196,730,o),
(165,756,o),
(165,875,cs)
);
},
{
closed = 1;
nodes = (
(42,667,o),
(144,615,o),
(241,615,cs),
(331,615,o),
(432,667,o),
(432,875,cs),
(432,1081,o),
(331,1133,o),
(241,1133,cs),
(144,1133,o),
(42,1081,o),
(42,875,cs)
);
},
{
closed = 1;
nodes = (
(556,45,o),
(659,-7,o),
(756,-7,cs),
(846,-7,o),
(946,45,o),
(946,253,cs),
(946,459,o),
(846,511,o),
(756,511,cs),
(659,511,o),
(556,459,o),
(556,253,cs)
);
}
);
width = 979;
},
{
layerId = "1B8EDE0E-D46F-48F9-B9C6-2CD34FEA95FD";
shapes = (
{
closed = 1;
nodes = (
(20,10,l),
(179,10,l),
(954,1133,l),
(796,1133,l)
);
},
{
closed = 1;
nodes = (
(663,390,o),
(703,418,o),
(753,418,cs),
(796,418,o),
(836,390,o),
(836,253,cs),
(836,114,o),
(796,87,o),
(753,87,cs),
(703,87,o),
(663,114,o),
(663,253,cs)
);
},
{
closed = 1;
nodes = (
(152,1003,o),
(190,1031,o),
(238,1031,cs),
(282,1031,o),
(318,1003,o),
(318,875,cs),
(318,745,o),
(282,717,o),
(238,717,cs),
(190,717,o),
(152,745,o),
(152,875,cs)
);
},
{
closed = 1;
nodes = (
(44,667,o),
(141,615,o),
(238,615,cs),
(328,615,o),
(425,667,o),
(425,875,cs),
(425,1081,o),
(328,1133,o),
(238,1133,cs),
(141,1133,o),
(44,1081,o),
(44,875,cs)
);
},
{
closed = 1;
nodes = (
(559,45,o),
(656,-7,o),
(753,-7,cs),
(843,-7,o),
(940,45,o),
(940,253,cs),
(940,459,o),
(843,511,o),
(753,511,cs),
(656,511,o),
(559,459,o),
(559,253,cs)
);
}
);
width = 974;
}
);
metricRight = "=|";
unicode = 37;
},
{
glyphname = upArrow;
lastChange = "2025-11-26 14:44:30 +0000";
layers = (
{
layerId = m004;
shapes = (
{
closed = 1;
nodes = (
(444,844,l),
(389,823,l),
(389,-40,l),
(441,-40,l),
(441,823,l),
(386,844,l),
(769,538,l),
(769,606,l),
(416,878,l),
(63,606,l),
(63,538,l)
);
}
);
width = 479;
},
{
layerId = m005;
shapes = (
{
closed = 1;
nodes = (
(400,700,l),
(312,759,l),
(312,-55,l),
(473,-55,l),
(473,759,l),
(384,700,l),
(745,427,l),
(745,607,l),
(392,879,l),
(39,607,l),
(39,427,l)
);
}
);
width = 432;
},
{
layerId = "1B8EDE0E-D46F-48F9-B9C6-2CD34FEA95FD";
shapes = (
{
closed = 1;
nodes = (
(405,735,l),
(325,776,l),
(325,-51,l),
(458,-51,l),
(458,776,l),
(380,735,l),
(745,455,l),
(745,606,l),
(392,878,l),
(39,606,l),
(39,455,l)
);
}
);
width = 432;
}
);
unicode = 8593;
},
{
glyphname = rightArrow;
lastChange = "2025-11-26 14:44:30 +0000";
layers = (
{
layerId = m004;
shapes = (
{
closed = 1;
nodes = (
(948,325,l),
(927,380,l),
(64,380,l),
(64,328,l),
(927,328,l),
(948,383,l),
(642,0,l),
(710,0,l),
(982,353,l),
(710,706,l),
(642,706,l)
);
}
);
width = 585;
},
{
layerId = m005;
shapes = (
{
closed = 1;
nodes = (
(790,347,l),
(850,436,l),
(35,436,l),
(35,275,l),
(850,275,l),
(790,363,l),
(518,2,l),
(697,2,l),
(970,355,l),
(697,708,l),
(518,708,l)
);
}
);
width = 538;
},
{
layerId = "1B8EDE0E-D46F-48F9-B9C6-2CD34FEA95FD";
shapes = (
{
closed = 1;
nodes = (
(823,342,l),
(863,422,l),
(37,422,l),
(37,288,l),
(863,288,l),
(823,369,l),
(543,2,l),
(694,2,l),
(967,354,l),
(694,707,l),
(543,707,l)
);
}
);
width = 538;
}
);
unicode = 8594;
},
{
glyphname = downArrow;
lastChange = "2025-11-26 14:44:30 +0000";
layers = (
{
layerId = m004;
shapes = (
{
closed = 1;
nodes = (
(386,-14,l),
(441,6,l),
(441,870,l),
(389,870,l),
(389,6,l),
(444,-14,l),
(61,291,l),
(61,224,l),
(414,-49,l),
(767,224,l),
(767,291,l)
);
}
);
width = 479;
},
{
layerId = m005;
shapes = (
{
closed = 1;
nodes = (
(384,125,l),
(473,65,l),
(473,880,l),
(312,880,l),
(312,65,l),
(400,125,l),
(39,398,l),
(39,218,l),
(392,-54,l),
(745,218,l),
(745,398,l)
);
}
);
width = 432;
},
{
layerId = "1B8EDE0E-D46F-48F9-B9C6-2CD34FEA95FD";
shapes = (
{
closed = 1;
nodes = (
(379,91,l),
(459,51,l),
(459,877,l),
(325,877,l),
(325,51,l),
(406,91,l),
(39,371,l),
(39,220,l),
(392,-53,l),
(744,220,l),
(744,371,l)
);
}
);
width = 432;
}
);
unicode = 8595;
},
{
glyphname = leftArrow;
lastChange = "2025-11-26 14:44:30 +0000";
layers = (
{
layerId = m004;
shapes = (
{
closed = 1;
nodes = (
(98,383,l),
(118,328,l),
(982,328,l),
(982,380,l),
(118,380,l),
(98,325,l),
(403,707,l),
(336,707,l),
(63,354,l),
(336,2,l),
(403,2,l)
);
}
);
width = 585;
},
{
layerId = m005;
shapes = (
{
closed = 1;
nodes = (
(211,362,l),
(151,274,l),
(966,274,l),
(966,435,l),
(151,435,l),
(211,347,l),
(484,707,l),
(304,707,l),
(32,354,l),
(304,2,l),
(484,2,l)
);
}
);
width = 538;
},
{
layerId = "1B8EDE0E-D46F-48F9-B9C6-2CD34FEA95FD";
shapes = (
{
closed = 1;
nodes = (
(176,367,l),
(136,287,l),
(963,287,l),
(963,421,l),
(136,421,l),
(176,342,l),
(458,707,l),
(306,707,l),
(34,354,l),
(306,2,l),
(458,2,l)
);
}
);
width = 538;
}
);
unicode = 8592;
},
{
glyphname = dieresiscomb;
lastChange = "2025-11-26 14:44:30 +0000";
layers = (
{
anchors = (
{
name = _top;
pos = (202,709);
},
{
name = top;
pos = (202,910);
}
);
layerId = m004;
shapes = (
{
closed = 1;
nodes = (
(124,772,o),
(150,799,o),
(150,837,cs),
(150,873,o),
(124,898,o),
(87,898,cs),
(49,898,o),
(24,873,o),
(24,837,cs),
(24,799,o),
(49,772,o),
(87,772,cs)
);
},
{
closed = 1;
nodes = (
(361,777,o),
(381,799,o),
(381,837,cs),
(381,871,o),
(361,893,o),
(323,893,cs),
(285,893,o),
(265,871,o),
(265,837,cs),
(265,799,o),
(285,777,o),
(323,777,cs)
);
}
);
width = 405;
},
{
anchors = (
{
name = _top;
pos = (243,733);
},
{
name = top;
pos = (243,1071);
}
);
layerId = m005;
shapes = (
{
closed = 1;
nodes = (
(169,885,o),
(202,922,o),
(202,980,cs),
(202,1037,o),
(169,1071,o),
(109,1071,cs),
(50,1071,o),
(16,1037,o),
(16,980,cs),
(16,922,o),
(50,885,o),
(109,885,cs)
);
},
{
closed = 1;
nodes = (
(438,885,o),
(470,922,o),
(470,980,cs),
(470,1037,o),
(438,1071,o),
(377,1071,cs),
(318,1071,o),
(284,1037,o),
(284,980,cs),
(284,922,o),
(318,885,o),
(377,885,cs)
);
}
);
width = 485;
},
{
anchors = (
{
name = _top;
pos = (232,733);
},
{
name = top;
pos = (236,1024);
}
);
layerId = "1B8EDE0E-D46F-48F9-B9C6-2CD34FEA95FD";
shapes = (
{
closed = 1;
nodes = (
(149,826,o),
(176,858,o),
(176,911,cs),
(176,959,o),
(149,989,o),
(96,989,cs),
(44,989,o),
(16,959,o),
(16,911,cs),
(16,858,o),
(44,826,o),
(96,826,cs)
);
},
{
closed = 1;
nodes = (
(420,826,o),
(447,858,o),
(447,911,cs),
(447,959,o),
(420,989,o),
(367,989,cs),
(315,989,o),
(287,959,o),
(287,911,cs),
(287,858,o),
(315,826,o),
(367,826,cs)
);
}
);
width = 463;
}
);
unicode = 776;
},
{
glyphname = dotaccentcomb;
lastChange = "2025-11-26 14:44:30 +0000";
layers = (
{
anchors = (
{
name = _top;
pos = (82,709);
},
{
name = top;
pos = (82,929);
}
);
layerId = m004;
shapes = (
{
closed = 1;
nodes = (
(120,780,o),
(140,802,o),
(140,840,cs),
(140,874,o),
(120,896,o),
(82,896,cs),
(44,896,o),
(24,874,o),
(24,840,cs),
(24,802,o),
(44,780,o),
(82,780,cs)
);
}
);
width = 164;
},
{
anchors = (
{
name = _top;
pos = (93,273);
},
{
name = top;
pos = (93,622);
}
);
layerId = m005;
shapes = (
{
closed = 1;
nodes = (
(154,436,o),
(186,473,o),
(186,531,cs),
(186,588,o),
(154,622,o),
(93,622,cs),
(35,622,o),
(0,588,o),
(0,531,cs),
(0,473,o),
(35,436,o),
(93,436,cs)
);
}
);
width = 93;
},
{
anchors = (
{
name = _top;
pos = (88,733);
},
{
name = top;
pos = (88,1027);
}
);
layerId = "1B8EDE0E-D46F-48F9-B9C6-2CD34FEA95FD";
shapes = (
{
closed = 1;
nodes = (
(138,843,o),
(168,876,o),
(168,926,cs),
(168,972,o),
(138,1004,o),
(88,1004,cs),
(39,1004,o),
(9,972,o),
(9,926,cs),
(9,876,o),
(39,843,o),
(88,843,cs)
);
}
);
width = 177;
}
);
unicode = 775;
},
{
glyphname = gravecomb;
lastChange = "2025-11-26 14:44:30 +0000";
layers = (
{
anchors = (
{
name = _top;
pos = (132,709);
},
{
name = top;
pos = (132,997);
}
);
layerId = m004;
shapes = (
{
closed = 1;
nodes = (
(24,997,l),
(183,777,l),
(239,777,l),
(126,997,l)
);
}
);
width = 263;
},
{
anchors = (
{
name = _top;
pos = (258,733);
},
{
name = top;
pos = (172,1071);
}
);
layerId = m005;
shapes = (
{
closed = 1;
nodes = (
(17,1024,l),
(161,804,l),
(290,804,l),
(216,1024,l)
);
}
);
width = 343;
},
{
anchors = (
{
name = _top;
pos = (194,733);
},
{
name = top;
pos = (253,1071);
}
);
layerId = "1B8EDE0E-D46F-48F9-B9C6-2CD34FEA95FD";
shapes = (
{
closed = 1;
nodes = (
(8,1048,l),
(129,827,l),
(243,827,l),
(151,1048,l)
);
}
);
width = 266;
}
);
unicode = 768;
},
{
glyphname = acutecomb;
lastChange = "2025-11-26 14:44:30 +0000";
layers = (
{
anchors = (
{
name = _top;
pos = (204,709);
},
{
name = top;
pos = (204,997);
}
);
layerId = m004;
shapes = (
{
closed = 1;
nodes = (
(96,777,l),
(153,777,l),
(312,997,l),
(210,997,l)
);
}
);
width = 284;
},
{
anchors = (
{
name = _top;
pos = (140,733);
},
{
name = top;
pos = (195,1071);
}
);
layerId = m005;
shapes = (
{
closed = 1;
nodes = (
(39,804,l),
(169,804,l),
(312,1024,l),
(113,1024,l)
);
}
);
width = 343;
},
{
anchors = (
{
name = _top;
pos = (98,733);
},
{
name = top;
pos = (157,1071);
}
);
layerId = "1B8EDE0E-D46F-48F9-B9C6-2CD34FEA95FD";
shapes = (
{
closed = 1;
nodes = (
(38,827,l),
(151,827,l),
(273,1048,l),
(129,1048,l)
);
}
);
width = 288;
}
);
unicode = 769;
},
{
glyphname = hungarumlautcomb;
lastChange = "2025-11-26 14:44:30 +0000";
layers = (
{
anchors = (
{
name = _top;
pos = (221,709);
},
{
name = top;
pos = (221,996);
}
);
layerId = m004;
shapes = (
{
closed = 1;
nodes = (
(202,775,l),
(258,775,l),
(418,996,l),
(315,996,l)
);
},
{
closed = 1;
nodes = (
(24,775,l),
(80,775,l),
(239,996,l),
(137,996,l)
);
}
);
width = 441;
},
{
anchors = (
{
name = _top;
pos = (243,733);
},
{
name = top;
pos = (299,1071);
}
);
layerId = m005;
shapes = (
{
closed = 1;
nodes = (
(24,804,l),
(153,804,l),
(296,1024,l),
(98,1024,l)
);
},
{
closed = 1;
nodes = (
(277,804,l),
(406,804,l),
(550,1024,l),
(351,1024,l)
);
}
);
width = 591;
},
{
anchors = (
{
name = _top;
pos = (164,733);
},
{
name = top;
pos = (236,1071);
}
);
layerId = "1B8EDE0E-D46F-48F9-B9C6-2CD34FEA95FD";
shapes = (
{
closed = 1;
nodes = (
(-2,827,l),
(104,827,l),
(233,1048,l),
(90,1048,l)
);
},
{
closed = 1;
nodes = (
(180,827,l),
(285,827,l),
(414,1048,l),
(271,1048,l)
);
}
);
width = 490;
}
);
unicode = 779;
},
{
glyphname = circumflexcomb;
lastChange = "2025-11-26 14:44:30 +0000";
layers = (
{
anchors = (
{
name = _top;
pos = (220,709);
},
{
name = top;
pos = (220,997);
}
);
layerId = m004;
shapes = (
{
closed = 1;
nodes = (
(176,997,l),
(359,777,l),
(416,777,l),
(255,997,l)
);
},
{
closed = 1;
nodes = (
(24,777,l),
(80,777,l),
(255,997,l),
(176,997,l)
);
}
);
width = 439;
},
{
anchors = (
{
name = _top;
pos = (307,733);
},
{
name = top;
pos = (307,1071);
}
);
layerId = m005;
shapes = (
{
closed = 1;
nodes = (
(31,772,l),
(184,772,l),
(398,1024,l),
(199,1024,l)
);
},
{
closed = 1;
nodes = (
(215,1024,l),
(429,772,l),
(582,772,l),
(414,1024,l)
);
}
);
width = 615;
},
{
anchors = (
{
name = _top;
pos = (253,733);
},
{
name = top;
pos = (249,1048);
}
);
layerId = "1B8EDE0E-D46F-48F9-B9C6-2CD34FEA95FD";
shapes = (
{
closed = 1;
nodes = (
(189,1048,l),
(373,827,l),
(495,827,l),
(332,1048,l)
);
},
{
closed = 1;
nodes = (
(16,827,l),
(137,827,l),
(314,1048,l),
(170,1048,l)
);
}
);
width = 479;
}
);
unicode = 770;
},
{
glyphname = caroncomb;
lastChange = "2025-11-26 14:44:30 +0000";
layers = (
{
anchors = (
{
name = _top;
pos = (220,709);
},
{
name = top;
pos = (220,997);
}
);
layerId = m004;
shapes = (
{
closed = 1;
nodes = (
(416,997,l),
(359,997,l),
(176,777,l),
(255,777,l)
);
},
{
closed = 1;
nodes = (
(255,777,l),
(80,997,l),
(24,997,l),
(176,777,l)
);
}
);
width = 439;
},
{
anchors = (
{
name = _top;
pos = (276,733);
},
{
name = top;
pos = (276,1071);
}
);
layerId = m005;
shapes = (
{
closed = 1;
nodes = (
(551,1024,l),
(399,1024,l),
(184,772,l),
(383,772,l)
);
},
{
closed = 1;
nodes = (
(367,772,l),
(153,1024,l),
(0,1024,l),
(169,772,l)
);
}
);
width = 551;
},
{
anchors = (
{
name = _top;
pos = (261,733);
},
{
name = top;
pos = (249,1048);
}
);
layerId = "1B8EDE0E-D46F-48F9-B9C6-2CD34FEA95FD";
shapes = (
{
closed = 1;
nodes = (
(495,1048,l),
(373,1048,l),
(189,827,l),
(332,827,l)
);
},
{
closed = 1;
nodes = (
(314,827,l),
(137,1048,l),
(16,1048,l),
(170,827,l)
);
}
);
width = 496;
}
);
unicode = 780;
},
{
glyphname = ringcomb;
lastChange = "2025-11-26 14:44:30 +0000";
layers = (
{
anchors = (
{
name = _top;
pos = (147,709);
},
{
name = top;
pos = (147,907);
}
);
layerId = m004;
shapes = (
{
closed = 1;
nodes = (
(194,777,o),
(225,808,o),
(225,856,cs),
(225,903,o),
(194,934,o),
(147,934,cs),
(93,934,o),
(68,903,o),
(68,856,cs),
(68,808,o),
(99,777,o),
(147,777,cs)
);
},
{
closed = 1;
nodes = (
(123,819,o),
(110,832,o),
(110,856,cs),
(110,879,o),
(123,892,o),
(147,892,cs),
(170,892,o),
(183,879,o),
(183,856,cs),
(183,832,o),
(170,819,o),
(147,819,cs)
);
}
);
width = 284;
},
{
anchors = (
{
name = _top;
pos = (151,733);
},
{
name = top;
pos = (151,1024);
}
);
layerId = m005;
shapes = (
{
closed = 1;
nodes = (
(232,753,o),
(287,808,o),
(287,889,cs),
(287,969,o),
(232,1024,o),
(151,1024,cs),
(71,1024,o),
(16,969,o),
(16,889,cs),
(16,808,o),
(71,753,o),
(151,753,cs)
);
},
{
closed = 1;
nodes = (
(123,843,o),
(106,860,o),
(106,889,cs),
(106,917,o),
(123,934,o),
(151,934,cs),
(180,934,o),
(197,917,o),
(197,889,cs),
(197,860,o),
(180,843,o),
(151,843,cs)
);
}
);
width = 303;
},
{
anchors = (
{
name = _top;
pos = (123,733);
},
{
name = top;
pos = (123,1038);
}
);
layerId = "1B8EDE0E-D46F-48F9-B9C6-2CD34FEA95FD";
shapes = (
{
closed = 1;
nodes = (
(190,822,o),
(230,861,o),
(230,928,cs),
(230,995,o),
(190,1037,o),
(123,1037,cs),
(56,1037,o),
(16,997,o),
(16,930,cs),
(16,863,o),
(56,822,o),
(123,822,cs)
);
},
{
closed = 1;
nodes = (
(101,896,o),
(90,908,o),
(90,930,cs),
(90,948,o),
(101,963,o),
(123,963,cs),
(145,963,o),
(156,948,o),
(156,930,cs),
(156,908,o),
(145,896,o),
(123,896,cs)
);
}
);
width = 246;
}
);
unicode = 778;
},
{
glyphname = tildecomb;
lastChange = "2025-11-26 14:44:30 +0000";
layers = (
{
anchors = (
{
name = _top;
pos = (195,733);
},
{
name = top;
pos = (195,882);
}
);
layerId = m004;
shapes = (
{
closed = 1;
nodes = (
(69,777,l),
(69,815,o),
(80,835,o),
(117,835,cs),
(172,835,o),
(214,777,o),
(273,777,cs),
(317,777,o),
(366,804,o),
(366,882,c),
(320,882,l),
(320,844,o),
(309,824,o),
(273,824,cs),
(217,824,o),
(175,882,o),
(117,882,cs),
(72,882,o),
(24,856,o),
(24,777,c)
);
}
);
width = 389;
},
{
anchors = (
{
name = _top;
pos = (109,733);
},
{
name = top;
pos = (109,1026);
}
);
layerId = m005;
shapes = (
{
closed = 1;
nodes = (
(-1,833,l),
(1,863,o),
(23,885,o),
(51,885,cs),
(87,885,o),
(109,833,o),
(177,833,cs),
(280,833,o),
(328,925,o),
(328,1026,c),
(223,1026,l),
(223,997,o),
(198,971,o),
(169,971,cs),
(133,971,o),
(113,1024,o),
(45,1024,cs),
(-59,1024,o),
(-109,931,o),
(-109,833,c)
);
}
);
width = 219;
},
{
anchors = (
{
name = _top;
pos = (216,733);
},
{
name = top;
pos = (229,1071);
}
);
layerId = "1B8EDE0E-D46F-48F9-B9C6-2CD34FEA95FD";
shapes = (
{
closed = 1;
nodes = (
(98,867,l),
(104,908,o),
(124,922,o),
(148,922,cs),
(194,922,o),
(224,867,o),
(287,867,cs),
(367,867,o),
(416,933,o),
(416,1024,c),
(336,1024,l),
(329,985,o),
(307,969,o),
(285,969,cs),
(239,969,o),
(210,1024,o),
(145,1024,cs),
(66,1024,o),
(16,958,o),
(16,867,c)
);
}
);
width = 432;
}
);
unicode = 771;
},
{
glyphname = cedillacomb;
lastChange = "2025-11-26 14:44:30 +0000";
layers = (
{
anchors = (
{
name = _bottom;
pos = (147,0);
},
{
name = bottom;
pos = (147,-288);
}
);
layerId = m004;
shapes = (
{
closed = 1;
nodes = (
(63,-57,l),
(120,-57,l),
(158,8,l),
(101,8,l)
);
},
{
closed = 1;
nodes = (
(203,-288,o),
(262,-254,o),
(262,-164,cs),
(262,-76,o),
(194,-41,o),
(132,-41,cs),
(101,-41,o),
(87,-50,o),
(63,-57,c),
(80,-99,l),
(106,-93,o),
(128,-93,o),
(140,-93,cs),
(172,-95,o),
(205,-113,o),
(205,-164,cs),
(205,-214,o),
(172,-236,o),
(140,-236,cs),
(106,-236,o),
(88,-221,o),
(85,-191,c),
(32,-191,l),
(32,-255,o),
(85,-288,o),
(142,-288,cs)
);
}
);
width = 293;
},
{
anchors = (
{
name = _bottom;
pos = (157,0);
},
{
name = bottom;
pos = (157,-315);
}
);
layerId = m005;
shapes = (
{
closed = 1;
nodes = (
(60,-39,l),
(189,-39,l),
(203,0,l),
(82,0,l)
);
},
{
closed = 1;
nodes = (
(227,-315,o),
(298,-274,o),
(298,-167,cs),
(298,-68,o),
(216,-27,o),
(143,-27,cs),
(107,-27,o),
(88,-32,o),
(60,-39,c),
(113,-128,l),
(113,-128,o),
(129,-123,o),
(145,-123,cs),
(170,-123,o),
(195,-139,o),
(195,-175,cs),
(195,-213,o),
(170,-228,o),
(145,-228,cs),
(120,-228,o),
(104,-205,o),
(104,-175,c),
(16,-175,l),
(16,-273,o),
(80,-315,o),
(154,-315,cs)
);
}
);
width = 314;
},
{
anchors = (
{
name = _bottom;
pos = (131,0);
},
{
name = bottom;
pos = (131,-304);
}
);
layerId = "1B8EDE0E-D46F-48F9-B9C6-2CD34FEA95FD";
shapes = (
{
closed = 1;
nodes = (
(47,-72,l),
(128,-72,l),
(165,3,l),
(85,3,l)
);
},
{
closed = 1;
nodes = (
(187,-304,o),
(246,-269,o),
(246,-180,cs),
(246,-91,o),
(178,-57,o),
(117,-57,cs),
(85,-57,o),
(71,-66,o),
(47,-72,c),
(82,-134,l),
(101,-129,o),
(117,-129,o),
(124,-129,cs),
(148,-129,o),
(172,-143,o),
(172,-180,cs),
(172,-216,o),
(148,-232,o),
(124,-232,cs),
(101,-232,o),
(88,-221,o),
(85,-199,c),
(16,-206,l),
(16,-271,o),
(69,-304,o),
(126,-304,cs)
);
}
);
width = 262;
}
);
unicode = 807;
},
{
glyphname = dotaccentcomb.001;
lastChange = "2025-11-26 14:44:30 +0000";
layers = (
{
anchors = (
{
name = _top;
pos = (69,709);
},
{
name = top;
pos = (69,868);
}
);
layerId = m004;
shapes = (
{
closed = 1;
nodes = (
(98,777,o),
(115,796,o),
(115,824,cs),
(115,849,o),
(98,868,o),
(69,868,cs),
(41,868,o),
(24,849,o),
(24,824,cs),
(24,796,o),
(41,777,o),
(69,777,cs)
);
}
);
width = 139;
},
{
anchors = (
{
name = _top;
pos = (93,271);
},
{
name = top;
pos = (93,618);
}
);
layerId = m005;
shapes = (
{
closed = 1;
nodes = (
(164,438,o),
(183,460,o),
(183,529,cs),
(183,597,o),
(164,618,o),
(93,618,cs),
(22,618,o),
(3,597,o),
(3,529,cs),
(3,460,o),
(22,438,o),
(93,438,cs)
);
}
);
width = 236;
},
{
anchors = (
{
name = _top;
pos = (95,276);
},
{
name = top;
pos = (95,592);
}
);
layerId = "1B8EDE0E-D46F-48F9-B9C6-2CD34FEA95FD";
shapes = (
{
closed = 1;
nodes = (
(156,433,o),
(173,454,o),
(173,515,cs),
(173,573,o),
(156,592,o),
(95,592,cs),
(33,592,o),
(16,573,o),
(16,515,cs),
(16,454,o),
(33,433,o),
(95,433,cs)
);
}
);
width = 189;
}
);
},
